<svg width="500" height="460" viewBox="0 0 500 460" fill="none" xmlns="http://www.w3.org/2000/svg">
<g opacity="0.7">
<path fill-rule="evenodd" clip-rule="evenodd" d="M454.507 165.801L7.66331 78.4131C3.43551 77.5874 0.276355 82.2505 2.5826 85.9136L213.889 421.695C215.597 424.408 219.382 424.787 221.585 422.462L457.12 174.071C459.802 171.242 458.317 166.547 454.507 165.801Z" fill="#B9E1F5"/>
<path fill-rule="evenodd" clip-rule="evenodd" d="M74.0646 93.7553C73.7778 108.963 85.7863 121.526 100.888 121.817C115.988 122.108 128.464 110.012 128.751 94.8043C129.04 79.5962 117.029 67.0339 101.93 66.743C86.8279 66.4563 74.3535 78.5493 74.0646 93.7553Z" fill="#7F99C3"/>
<path fill-rule="evenodd" clip-rule="evenodd" d="M357.986 174.511C354.869 171.098 356.59 167.898 359.976 166.216C360.508 166.325 361.134 166.448 361.735 166.567C362.329 166.272 362.892 165.991 363.439 165.72C365.851 160.447 370.916 161.849 372.86 165.962C374.604 166.813 376.997 165.919 378.494 167.767C379.38 168.845 379.723 170.081 379.55 171.519C379.39 172.852 378.317 173.793 378.186 175.152C378.304 175.844 378.774 176.407 379.108 177.031C380.866 180.335 378.317 184.255 374.81 183.729C374.559 183.69 374.308 183.659 374.232 183.648C372.324 184.179 371.675 185.744 370.743 187.103C369.99 187.358 369.178 187.564 368.556 188.082C367.274 187.733 366.097 187.411 364.997 187.111C363.955 186.211 364.098 184.741 363.076 183.76C362.289 183.758 361.406 183.767 360.52 183.752C358.123 183.701 356.887 182.486 356.708 180.085C356.607 178.717 356.533 177.407 357.49 176.226C357.821 175.815 357.819 175.131 357.986 174.511Z" fill="#E56B6F"/>
<path fill-rule="evenodd" clip-rule="evenodd" d="M98.2429 177.538C95.9804 175.058 97.2287 172.735 99.6894 171.514C100.075 171.59 100.531 171.682 100.965 171.769C101.397 171.554 101.806 171.35 102.203 171.153C103.955 167.322 107.632 168.341 109.043 171.329C110.312 171.947 112.048 171.299 113.134 172.639C113.779 173.425 114.028 174.319 113.903 175.366C113.787 176.332 113.007 177.018 112.912 178.003C112.997 178.506 113.34 178.912 113.581 179.366C114.859 181.768 113.007 184.616 110.462 184.231C110.281 184.204 110.097 184.18 110.043 184.174C108.653 184.558 108.185 185.696 107.508 186.682C106.962 186.866 106.369 187.017 105.92 187.393C104.988 187.138 104.134 186.905 103.335 186.688C102.578 186.034 102.682 184.966 101.939 184.257C101.368 184.255 100.727 184.261 100.084 184.246C98.3441 184.212 97.4438 183.331 97.3152 181.585C97.2392 180.592 97.1865 179.64 97.8824 178.782C98.1227 178.485 98.1206 177.988 98.2429 177.538Z" fill="#E56B6F"/>
<path d="M46.7558 188.169C46.29 187.715 45.5849 187.653 45.0529 187.989L44.8623 188.134L34.5729 197.439L24.9174 188.669C24.4554 188.249 23.7817 188.195 23.2656 188.512L23.08 188.648L12.3821 197.947L4.00127 189.247C3.52072 188.748 2.76078 188.688 2.21234 189.072L2.03796 189.217C1.54265 189.701 1.48213 190.466 1.86442 191.019L2.00802 191.194L11.3006 200.841C11.7558 201.314 12.4662 201.396 13.0094 201.068L13.2046 200.926L23.9688 191.572L33.6402 200.36C34.1092 200.786 34.7948 200.834 35.3126 200.504L35.4981 200.362L45.7548 191.084L54.7096 199.813C55.2055 200.296 55.9671 200.333 56.5033 199.931L56.673 199.78C57.1529 199.281 57.1893 198.514 56.79 197.974L56.6408 197.803L46.7558 188.169Z" fill="#EE916D"/>
<path fill-rule="evenodd" clip-rule="evenodd" d="M194.011 106.737C190.895 103.325 192.615 100.124 196.002 98.4426C196.533 98.5509 197.159 98.6741 197.76 98.793C198.355 98.4978 198.918 98.2176 199.464 97.9458C201.876 92.6732 206.941 94.0747 208.885 98.1878C210.629 99.0393 213.022 98.1454 214.519 99.9927C215.405 101.071 215.749 102.307 215.576 103.745C215.416 105.078 214.342 106.019 214.211 107.378C214.33 108.07 214.8 108.633 215.133 109.257C216.892 112.562 214.342 116.481 210.836 115.955C210.585 115.917 210.334 115.885 210.258 115.874C208.35 116.405 207.7 117.97 206.768 119.329C206.015 119.584 205.204 119.79 204.582 120.308C203.299 119.96 202.123 119.637 201.022 119.337C199.981 118.437 200.124 116.968 199.101 115.987C198.315 115.984 197.431 115.993 196.546 115.978C194.148 115.927 192.913 114.713 192.733 112.311C192.632 110.943 192.558 109.633 193.516 108.453C193.847 108.041 193.845 107.357 194.011 106.737Z" fill="#E56B6F"/>
<path fill-rule="evenodd" clip-rule="evenodd" d="M317.979 256.39C317.957 256.804 318.114 257.006 318.346 257.165C318.675 257.392 318.979 257.736 319.342 257.814C321.008 258.171 321.528 259.537 322.188 260.807C322.817 262.018 323.683 262.128 324.28 260.912C325.073 259.295 326.076 258.098 327.816 257.409C328.763 257.035 328.755 255.862 327.789 255.486C326.04 254.804 325.019 253.636 324.259 251.98C323.726 250.815 322.752 250.915 322.215 252.079C321.587 253.442 320.953 254.701 319.304 255.147C318.701 255.31 318.117 255.769 317.979 256.39Z" fill="#FED21C"/>
<path fill-rule="evenodd" clip-rule="evenodd" d="M146.189 203.867C146.15 204.611 146.433 204.975 146.849 205.26C147.441 205.67 147.99 206.289 148.643 206.429C151.642 207.072 152.578 209.53 153.765 211.816C154.897 213.997 156.456 214.195 157.53 212.006C158.959 209.095 160.764 206.94 163.895 205.7C165.6 205.027 165.585 202.916 163.847 202.238C160.698 201.011 158.861 198.908 157.493 195.928C156.533 193.832 154.78 194.011 153.813 196.107C152.683 198.559 151.541 200.826 148.573 201.628C147.489 201.921 146.437 202.747 146.189 203.867Z" fill="#FED21C"/>
<path fill-rule="evenodd" clip-rule="evenodd" d="M287.293 188.876C287.271 189.289 287.428 189.492 287.66 189.65C287.989 189.878 288.293 190.221 288.657 190.299C290.322 190.656 290.843 192.022 291.502 193.292C292.131 194.504 292.997 194.614 293.594 193.398C294.387 191.78 295.39 190.583 297.13 189.894C298.077 189.52 298.069 188.347 297.103 187.971C295.354 187.289 294.333 186.121 293.573 184.465C293.04 183.301 292.066 183.4 291.529 184.565C290.901 185.927 290.267 187.186 288.618 187.632C288.015 187.795 287.431 188.254 287.293 188.876Z" fill="#FED21C"/>
<path d="M416.706 236.418C415.939 235.702 414.781 235.667 413.976 236.299L413.783 236.471L404.28 246.012C403.455 246.84 403.453 248.185 404.276 249.016C405.035 249.782 406.231 249.843 407.059 249.196L407.258 249.02L415.325 240.92L424.608 249.594C425.35 250.287 426.463 250.345 427.267 249.767L427.477 249.593L436.249 241.385L446.041 250.177C446.828 250.883 447.999 250.889 448.79 250.227L448.979 250.047L457.911 240.49C458.709 239.636 458.668 238.293 457.82 237.489C457.037 236.747 455.84 236.725 455.033 237.397L454.84 237.58L447.317 245.632L437.621 236.931C436.876 236.263 435.781 236.218 434.99 236.789L434.782 236.96L426.043 245.139L416.706 236.418Z" fill="#EE916D"/>
<path fill-rule="evenodd" clip-rule="evenodd" d="M383.569 331.432C383.856 316.224 371.847 303.662 356.746 303.371C341.646 303.08 329.169 315.175 328.883 330.383C328.594 345.592 340.604 358.154 355.704 358.445C370.806 358.731 383.28 346.638 383.569 331.432Z" fill="#7F99C3"/>
<path fill-rule="evenodd" clip-rule="evenodd" d="M495.67 139.89C490.442 135.346 482.548 135.93 478.037 141.192C473.525 146.454 474.103 154.404 479.33 158.948C484.555 163.49 492.45 162.908 496.96 157.644C501.472 152.384 500.895 144.434 495.67 139.89Z" fill="#7F99C3"/>
<path d="M82.7709 351.643C82.0045 350.927 80.8458 350.892 80.0414 351.524L79.848 351.696L70.345 361.237C69.5203 362.066 69.5184 363.41 70.3406 364.241C71.0997 365.007 72.2957 365.068 73.1237 364.421L73.3227 364.245L81.39 356.145L90.6731 364.819C91.4149 365.512 92.5282 365.57 93.3316 364.992L93.5425 364.818L102.314 356.61L112.106 365.402C112.893 366.109 114.064 366.114 114.855 365.452L115.044 365.272L123.976 355.715C124.774 354.862 124.733 353.518 123.885 352.714C123.102 351.972 121.905 351.95 121.098 352.622L120.905 352.805L113.382 360.857L103.686 352.156C102.941 351.488 101.846 351.443 101.055 352.014L100.847 352.185L92.108 360.364L82.7709 351.643Z" fill="#EE916D"/>
</g>
</svg>
