<svg width="410" height="522" viewBox="0 0 410 522" fill="none" xmlns="http://www.w3.org/2000/svg">
<g opacity="0.85">
<path fill-rule="evenodd" clip-rule="evenodd" d="M353.112 272.183L353.509 87.1392C353.536 75.2464 340.662 67.7865 330.34 73.7099L169.693 165.886L9.05214 258.064C-1.27286 263.988 -1.30435 278.854 8.994 284.824L169.237 377.692L329.482 470.557C339.781 476.527 352.686 469.12 352.712 457.227L353.112 272.183Z" fill="#B9E1F5"/>
<path fill-rule="evenodd" clip-rule="evenodd" d="M291.13 31.0567L298.897 47.5204C300.566 51.0596 297.664 54.9655 293.77 54.5997L275.072 52.843C271.16 52.4756 269.083 48.0689 271.429 44.9165L282.361 30.2083C284.653 27.1287 289.495 27.5854 291.13 31.0567ZM294.21 49.926C294.547 49.9577 294.733 49.708 294.645 49.5212L286.878 33.0562C286.761 32.8069 286.315 32.7648 286.134 33.0074L275.202 47.7159C275.074 47.8869 275.193 48.1396 275.512 48.1696L294.21 49.926Z" fill="#FED21C"/>
<path fill-rule="evenodd" clip-rule="evenodd" d="M73.6729 112.59C73.6754 110.173 75.6401 108.211 78.0626 108.213C80.4852 108.215 82.445 110.178 82.4426 112.598C82.4426 115.017 80.4779 116.975 78.0554 116.975C75.6352 116.975 73.6705 115.01 73.6729 112.59Z" fill="#7F99C3"/>
<path fill-rule="evenodd" clip-rule="evenodd" d="M73.6822 99.3598C73.6846 96.9425 75.6493 94.9801 78.0719 94.9825C80.4945 94.985 82.4543 96.9473 82.4519 99.367C82.4519 101.787 80.4872 103.744 78.0646 103.744C75.6445 103.744 73.6798 101.779 73.6822 99.3598Z" fill="#7F99C3"/>
<path fill-rule="evenodd" clip-rule="evenodd" d="M73.6917 86.9566C73.6917 84.5369 75.6588 82.5769 78.0814 82.5793C80.504 82.5793 82.4638 84.5441 82.4614 86.9638C82.459 89.3835 80.4967 91.3411 78.0741 91.3411C75.6516 91.3411 73.6893 89.3763 73.6917 86.9566Z" fill="#7F99C3"/>
<path d="M356.577 300.56C356.042 301.078 355.232 301.149 354.621 300.766L354.402 300.601L342.58 289.997L331.487 299.991C330.956 300.469 330.182 300.53 329.589 300.169L329.376 300.014L317.085 289.418L307.456 299.332C306.904 299.9 306.031 299.97 305.401 299.531L305.2 299.366C304.631 298.815 304.562 297.942 305.001 297.313L305.166 297.113L315.842 286.12C316.365 285.582 317.182 285.488 317.806 285.862L318.03 286.023L330.397 296.682L341.509 286.668C342.047 286.183 342.835 286.128 343.43 286.505L343.643 286.666L355.427 297.239L365.715 287.292C366.285 286.741 367.16 286.7 367.776 287.158L367.971 287.329C368.522 287.898 368.564 288.772 368.105 289.387L367.934 289.582L356.577 300.56Z" fill="#E56B6F"/>
<path fill-rule="evenodd" clip-rule="evenodd" d="M397.48 354.72L405.246 371.184C406.916 374.723 404.013 378.629 400.119 378.263L381.422 376.506C377.51 376.139 375.433 371.732 377.779 368.58L388.711 353.872C391.003 350.792 395.845 351.249 397.48 354.72ZM400.56 373.589C400.897 373.621 401.083 373.371 400.995 373.185L393.228 356.72C393.11 356.47 392.664 356.428 392.484 356.671L381.551 371.379C381.424 371.55 381.543 371.803 381.862 371.833L400.56 373.589Z" fill="#FED21C"/>
<path fill-rule="evenodd" clip-rule="evenodd" d="M368.328 213.817C367.856 213.842 367.625 213.662 367.444 213.396C367.185 213.019 366.793 212.669 366.704 212.252C366.296 210.341 364.738 209.744 363.289 208.987C361.907 208.265 361.781 207.271 363.169 206.587C365.014 205.676 366.38 204.525 367.166 202.529C367.592 201.442 368.93 201.452 369.36 202.559C370.137 204.567 371.47 205.739 373.359 206.61C374.688 207.223 374.575 208.34 373.246 208.957C371.692 209.677 370.255 210.405 369.747 212.297C369.561 212.988 369.037 213.659 368.328 213.817Z" fill="#FED21C"/>
<path fill-rule="evenodd" clip-rule="evenodd" d="M394.28 146.764C398.173 150.341 401.824 148.366 403.742 144.48C403.619 143.87 403.478 143.152 403.343 142.462C403.679 141.78 403.999 141.134 404.309 140.507C410.325 137.739 408.726 131.927 404.033 129.696C403.062 127.695 404.082 124.948 401.974 123.23C400.743 122.214 399.333 121.82 397.693 122.018C396.172 122.202 395.099 123.434 393.548 123.584C392.758 123.448 392.116 122.909 391.404 122.526C387.635 120.508 383.163 123.434 383.763 127.458C383.807 127.746 383.843 128.034 383.855 128.121C383.25 130.31 381.464 131.056 379.914 132.125C379.623 132.989 379.388 133.921 378.797 134.635C379.194 136.106 379.563 137.456 379.904 138.719C380.931 139.914 382.608 139.75 383.727 140.923C383.729 141.826 383.72 142.84 383.737 143.856C383.795 146.607 385.181 148.025 387.92 148.231C389.481 148.347 390.975 148.432 392.322 147.333C392.792 146.953 393.572 146.956 394.28 146.764Z" fill="#7F99C3"/>
<path fill-rule="evenodd" clip-rule="evenodd" d="M60.5107 446.939C45.5651 447.223 33.2197 435.353 32.9338 420.425C32.6479 405.499 44.5342 393.166 59.4798 392.883C74.4253 392.597 86.7707 404.469 87.0566 419.395C87.3383 434.323 75.4541 446.654 60.5107 446.939Z" fill="#E56B6F"/>
<path fill-rule="evenodd" clip-rule="evenodd" d="M375.98 41.3287C365.89 41.5201 357.554 33.5058 357.361 23.4271C357.168 13.3497 365.194 5.02304 375.284 4.83165C385.375 4.63886 393.71 12.6546 393.903 22.7319C394.093 32.8106 386.07 41.1359 375.98 41.3287Z" fill="#E56B6F"/>
<path fill-rule="evenodd" clip-rule="evenodd" d="M141.644 80.1368C140.795 80.1818 140.379 79.8568 140.054 79.3797C139.587 78.7 138.88 78.0701 138.72 77.3205C137.987 73.8795 135.182 72.8049 132.574 71.4428C130.086 70.1435 129.86 68.3543 132.357 67.1222C135.679 65.483 138.137 63.4113 139.552 59.8178C140.32 57.8612 142.729 57.8787 143.501 59.8728C144.901 63.4863 147.3 65.5954 150.701 67.1648C153.093 68.2667 152.888 70.2785 150.497 71.3879C147.699 72.6849 145.113 73.9944 144.198 77.4004C143.863 78.6448 142.921 79.8518 141.644 80.1368Z" fill="#FED21C"/>
<path fill-rule="evenodd" clip-rule="evenodd" d="M141.577 159.988C141.106 160.014 140.874 159.833 140.694 159.568C140.434 159.19 140.042 158.841 139.953 158.424C139.546 156.512 137.987 155.915 136.538 155.159C135.156 154.437 135.031 153.443 136.418 152.758C138.264 151.848 139.629 150.697 140.415 148.7C140.842 147.613 142.18 147.623 142.609 148.731C143.387 150.738 144.72 151.91 146.609 152.782C147.938 153.394 147.824 154.512 146.496 155.128C144.941 155.849 143.505 156.576 142.996 158.468C142.81 159.16 142.287 159.83 141.577 159.988Z" fill="#FED21C"/>
<path d="M111.589 343.995C111.054 344.512 110.244 344.583 109.633 344.2L109.414 344.035L97.5926 333.431L86.4993 343.425C85.9685 343.904 85.1945 343.965 84.6014 343.604L84.3883 343.449L72.0973 332.853L62.4686 342.766C61.9165 343.335 61.0434 343.404 60.4133 342.965L60.2129 342.801C59.6438 342.249 59.5743 341.377 60.0135 340.748L60.1785 340.547L70.8548 329.555C71.3778 329.016 72.194 328.923 72.818 329.296L73.0421 329.458L85.4094 340.117L96.521 330.103C97.0597 329.617 97.8474 329.563 98.4423 329.939L98.6555 330.101L110.439 340.673L120.728 330.727C121.297 330.176 122.173 330.134 122.788 330.592L122.983 330.764C123.535 331.333 123.577 332.207 123.118 332.822L122.947 333.017L111.589 343.995Z" fill="#E56B6F"/>
<path fill-rule="evenodd" clip-rule="evenodd" d="M121.779 25.6812C125.672 29.2575 129.323 27.283 131.242 23.397C131.118 22.7872 130.978 22.0686 130.842 21.379C131.179 20.6966 131.498 20.0506 131.809 19.4239C137.824 16.6557 136.225 10.8436 131.532 8.61261C130.561 6.61152 131.581 3.86516 129.473 2.14718C128.243 1.13091 126.833 0.736495 125.192 0.93491C123.671 1.11881 122.598 2.35043 121.047 2.50045C120.258 2.36495 119.616 1.82536 118.903 1.44305C115.134 -0.57498 110.662 2.35043 111.263 6.37439C111.306 6.66233 111.343 6.95027 111.355 7.03738C110.749 9.22721 108.964 9.97247 107.413 11.042C107.122 11.9059 106.887 12.8374 106.296 13.5513C106.694 15.0224 107.062 16.3726 107.403 17.6357C108.431 18.831 110.107 18.6665 111.226 19.84C111.229 20.7426 111.219 21.7564 111.236 22.7727C111.294 25.5239 112.68 26.9419 115.42 27.1475C116.98 27.2637 118.475 27.3484 119.822 26.2498C120.292 25.8699 121.072 25.8723 121.779 25.6812Z" fill="#7F99C3"/>
</g>
</svg>
