<svg width="91" height="91" viewBox="0 0 91 91" fill="none" xmlns="http://www.w3.org/2000/svg">
<g opacity="0.7">
<path fill-rule="evenodd" clip-rule="evenodd" d="M74.7536 68.2338C74.8534 69.892 74.2384 70.7101 73.3307 71.3527C72.0379 72.2769 70.8442 73.6671 69.4126 73.9922C62.841 75.4804 60.8303 80.9795 58.2665 86.0984C55.8206 90.981 52.4013 91.4521 50.0037 86.5916C46.814 80.1266 42.8109 75.3568 35.913 72.6502C32.1572 71.1816 32.1518 66.4736 35.9546 64.9316C42.8453 62.1372 46.8418 57.4148 49.7896 50.7442C51.8593 46.0526 55.7115 46.4191 57.8726 51.0749C60.399 56.5211 62.9461 61.5534 69.4771 63.2873C71.8634 63.921 74.1877 65.743 74.7536 68.2338Z" fill="#FED21C"/>
<path fill-rule="evenodd" clip-rule="evenodd" d="M23.6486 11.638C23.7038 12.5421 23.3653 12.9882 22.8654 13.3386C22.1535 13.8426 21.497 14.6004 20.7085 14.7775C17.0914 15.5891 15.9845 18.5873 14.5732 21.378C13.2264 24.04 11.3441 24.297 10.025 21.6473C8.26921 18.1227 6.0656 15.5222 2.26891 14.0471C0.201504 13.2463 0.198722 10.6798 2.292 9.83883C6.08491 8.31543 8.28518 5.74055 9.90786 2.1038C11.0473 -0.454135 13.1677 -0.254438 14.357 2.28371C15.7477 5.25295 17.1497 7.9963 20.7447 8.9412C22.0581 9.28695 23.3374 10.2802 23.6486 11.638Z" fill="#FED21C"/>
<path fill-rule="evenodd" clip-rule="evenodd" d="M90.5537 22.7353C90.5921 23.3643 90.3566 23.6746 90.0088 23.9183C89.5136 24.269 89.0568 24.7962 88.5084 24.9194C85.9921 25.484 85.222 27.5697 84.2402 29.5112C83.3032 31.363 81.9938 31.5418 81.0762 29.6986C79.8549 27.2467 78.322 25.4377 75.6808 24.4116C74.2426 23.8546 74.2407 22.0691 75.6969 21.4841C78.3355 20.4243 79.8662 18.633 80.9951 16.1031C81.7877 14.3236 83.2628 14.4625 84.0901 16.2282C85.0575 18.2937 86.0328 20.2021 88.5336 20.8594C89.4473 21.0999 90.3372 21.7908 90.5537 22.7353Z" fill="#FED21C"/>
</g>
</svg>
