<svg width="360" height="356" viewBox="0 0 360 356" fill="none" xmlns="http://www.w3.org/2000/svg">
<path fill-rule="evenodd" clip-rule="evenodd" d="M127.962 356.298C125.775 356.298 123.87 354.609 123.571 352.286L105.021 207.786H27.3924L9.1293 352.275C8.80951 354.812 6.58186 356.594 4.15368 356.255C1.72548 355.922 0.0181557 353.601 0.337941 351.064L19.1076 202.556C19.3976 200.258 21.2784 198.536 23.5033 198.536H108.899C111.122 198.536 113 200.252 113.295 202.548L132.363 351.057C132.685 353.591 130.983 355.917 128.555 356.255C128.357 356.283 128.157 356.298 127.962 356.298Z" fill="black"/>
<path fill-rule="evenodd" clip-rule="evenodd" d="M127.962 356.298C125.775 356.298 123.87 354.609 123.571 352.286L105.021 207.786H27.3924L9.1293 352.275C8.80951 354.812 6.58186 356.594 4.15368 356.255C1.72548 355.922 0.0181557 353.601 0.337941 351.064L19.1076 202.556C19.3976 200.258 21.2784 198.536 23.5033 198.536H108.899C111.122 198.536 113 200.252 113.295 202.548L132.363 351.057C132.685 353.591 130.983 355.917 128.555 356.255C128.357 356.283 128.157 356.298 127.962 356.298Z" fill="white" fill-opacity="0.5"/>
<path fill-rule="evenodd" clip-rule="evenodd" d="M183.852 356.298C181.664 356.298 179.759 354.609 179.461 352.286L160.911 207.786H83.2821L65.0189 352.275C64.6993 354.812 62.4716 356.594 60.0435 356.255C57.6153 355.922 55.9079 353.601 56.2277 351.064L74.9975 202.556C75.2873 200.258 77.168 198.536 79.3932 198.536H164.789C167.011 198.536 168.889 200.252 169.185 202.548L188.253 351.057C188.575 353.591 186.873 355.917 184.445 356.255C184.247 356.283 184.047 356.298 183.852 356.298Z" fill="black"/>
<path fill-rule="evenodd" clip-rule="evenodd" d="M183.852 356.298C181.664 356.298 179.759 354.609 179.461 352.286L160.911 207.786H83.2821L65.0189 352.275C64.6993 354.812 62.4716 356.594 60.0435 356.255C57.6153 355.922 55.9079 353.601 56.2277 351.064L74.9975 202.556C75.2873 200.258 77.168 198.536 79.3932 198.536H164.789C167.011 198.536 168.889 200.252 169.185 202.548L188.253 351.057C188.575 353.591 186.873 355.917 184.445 356.255C184.247 356.283 184.047 356.298 183.852 356.298Z" fill="white" fill-opacity="0.3"/>
<path fill-rule="evenodd" clip-rule="evenodd" d="M43.7391 57.3934C53.0345 57.3908 62.3274 57.3908 71.6229 57.3882C80.8243 57.3882 90.2036 57.4139 98.9554 60.2778C107.71 63.1416 115.895 69.3672 118.766 78.1949C120.9 84.7644 119.848 91.6802 120.293 98.4447C120.702 104.696 122.642 110.886 123.745 117.083C126.189 130.792 129.888 144.272 134.791 157.295C138.556 167.293 143.278 177.365 151.39 184.243C156.903 188.913 164.194 192.457 166.47 199.352C166.734 200.153 166.887 201.125 166.335 201.759C163.449 205.07 153.359 204.972 149.624 204.972C127.401 204.467 105.177 203.961 82.9532 203.456C75.7435 203.291 68.4626 203.119 61.4789 201.308C51.0149 198.595 34.5318 199.631 25.5793 193.523C22.884 191.683 20.1505 189.81 18.0546 187.3C9.90998 177.549 16.4829 158.391 16.2466 146.163C15.8579 126.018 15.4718 105.838 17.0468 85.755C17.4533 80.5712 18.0097 75.3208 19.8921 70.4809C21.7746 65.6385 25.1559 61.1862 29.8709 59.0973C33.6586 57.4242 37.9317 57.3934 42.0649 57.3934H43.7391Z" fill="black"/>
<path fill-rule="evenodd" clip-rule="evenodd" d="M43.7391 57.3934C53.0345 57.3908 62.3274 57.3908 71.6229 57.3882C80.8243 57.3882 90.2036 57.4139 98.9554 60.2778C107.71 63.1416 115.895 69.3672 118.766 78.1949C120.9 84.7644 119.848 91.6802 120.293 98.4447C120.702 104.696 122.642 110.886 123.745 117.083C126.189 130.792 129.888 144.272 134.791 157.295C138.556 167.293 143.278 177.365 151.39 184.243C156.903 188.913 164.194 192.457 166.47 199.352C166.734 200.153 166.887 201.125 166.335 201.759C163.449 205.07 153.359 204.972 149.624 204.972C127.401 204.467 105.177 203.961 82.9532 203.456C75.7435 203.291 68.4626 203.119 61.4789 201.308C51.0149 198.595 34.5318 199.631 25.5793 193.523C22.884 191.683 20.1505 189.81 18.0546 187.3C9.90998 177.549 16.4829 158.391 16.2466 146.163C15.8579 126.018 15.4718 105.838 17.0468 85.755C17.4533 80.5712 18.0097 75.3208 19.8921 70.4809C21.7746 65.6385 25.1559 61.1862 29.8709 59.0973C33.6586 57.4242 37.9317 57.3934 42.0649 57.3934H43.7391Z" fill="white" fill-opacity="0.2"/>
<path fill-rule="evenodd" clip-rule="evenodd" d="M40.2743 202.699C23.8046 202.699 6.16383 193.668 3.6361 177.368C0.254769 155.569 -0.581034 134.457 0.361467 115.082C1.43099 93.1711 11.8747 72.7866 29.0735 59.2038C29.0735 59.2038 39.4588 104.538 26.3984 167.106C18.7031 209.538 78.5749 190.201 110.606 195.864C127.53 198.855 128.173 204.974 128.173 204.974L40.2743 202.699Z" fill="black"/>
<path fill-rule="evenodd" clip-rule="evenodd" d="M40.2743 202.699C23.8046 202.699 6.16383 193.668 3.6361 177.368C0.254769 155.569 -0.581034 134.457 0.361467 115.082C1.43099 93.1711 11.8747 72.7866 29.0735 59.2038C29.0735 59.2038 39.4588 104.538 26.3984 167.106C18.7031 209.538 78.5749 190.201 110.606 195.864C127.53 198.855 128.173 204.974 128.173 204.974L40.2743 202.699Z" fill="white" fill-opacity="0.5"/>
<path fill-rule="evenodd" clip-rule="evenodd" d="M82.5111 135.222C82.2529 132.125 81.9921 127.699 81.8285 124.594C81.5601 119.429 81.3479 114.257 81.151 109.088C81.0794 107.262 81.6674 106.651 83.4621 106.337C85.625 105.952 87.816 105.785 90.0018 105.642C91.3619 105.551 92.7066 105.265 94.0693 105.221C94.4783 105.208 95.8691 105.211 96.1912 105.517C96.3472 105.668 96.2526 106.945 96.158 106.948C93.1515 107.028 90.1322 106.742 87.1461 107.307C86.5709 107.416 85.7042 107.39 85.6122 107.977C85.4844 108.781 86.4814 108.583 86.9441 108.893C87.072 108.976 87.2612 108.966 87.4222 108.994C91.6636 109.709 95.9074 110.417 100.231 109.99C103.327 109.683 106.405 109.267 109.442 108.581C109.945 108.469 110.683 108.315 110.632 107.642C110.566 106.789 109.754 106.963 109.189 106.961C105.515 106.942 101.841 106.955 98.1674 106.955C97.8887 106.539 97.9169 106.095 98.0524 105.64C100.223 104.818 102.396 105.692 104.564 105.629C106.469 105.749 108.373 105.887 110.279 105.975C116.683 106.274 112.598 133.032 112.422 135.133L82.5111 135.222Z" fill="#B9E1F5"/>
<path fill-rule="evenodd" clip-rule="evenodd" d="M96.1588 106.948C96.3403 107.481 96.3199 108.024 96.256 108.578C96.1741 109.298 96.5985 109.551 97.2249 109.592C97.9177 109.639 98.2168 109.272 98.2092 108.604C98.2066 108.055 98.1836 107.507 98.1683 106.958C101.842 106.955 105.516 106.942 109.19 106.961C109.755 106.963 110.568 106.789 110.635 107.645C110.686 108.315 109.946 108.469 109.443 108.581C106.405 109.267 103.327 109.683 100.231 109.99C95.9057 110.417 91.6644 109.709 87.4231 108.994C87.262 108.966 87.0728 108.976 86.945 108.893C86.4823 108.583 85.4852 108.781 85.613 107.977C85.7051 107.39 86.5717 107.416 87.147 107.306C90.133 106.742 93.1523 107.028 96.1588 106.948Z" fill="#EE916D"/>
<path fill-rule="evenodd" clip-rule="evenodd" d="M96.1588 106.948C96.3403 107.481 96.3199 108.024 96.256 108.578C96.1741 109.298 96.5985 109.551 97.2249 109.592C97.9177 109.639 98.2168 109.272 98.2092 108.604C98.2066 108.055 98.1836 107.507 98.1683 106.958C101.842 106.955 105.516 106.942 109.19 106.961C109.755 106.963 110.568 106.789 110.635 107.645C110.686 108.315 109.946 108.469 109.443 108.581C106.405 109.267 103.327 109.683 100.231 109.99C95.9057 110.417 91.6644 109.709 87.4231 108.994C87.262 108.966 87.0728 108.976 86.945 108.893C86.4823 108.583 85.4852 108.781 85.613 107.977C85.7051 107.39 86.5717 107.416 87.147 107.306C90.133 106.742 93.1523 107.028 96.1588 106.948Z" fill="black" fill-opacity="0.3"/>
<path fill-rule="evenodd" clip-rule="evenodd" d="M97.9944 93.8703C97.2197 95.0041 96.6215 96.2107 96.3019 97.5576L96.2482 97.6253C94.7297 96.091 94.7118 94.1772 94.9137 92.2009C94.9546 91.8238 95.1208 91.5794 95.4608 91.452C97.3271 90.7577 98.1145 89.0284 99.0835 87.4916C99.4133 86.9689 99.9808 86.2694 99.3059 85.6974C98.6616 85.1539 97.9586 85.6115 97.3476 86.0146C96.6343 86.4879 96.2406 87.3668 95.3739 87.7308C95.0722 85.0421 95.2179 84.7534 97.2964 83.6144C98.4136 83.0007 99.4746 82.3117 100.242 81.2455C100.594 80.754 100.722 80.2314 100.415 79.6827C100.121 79.1574 99.5999 79.2562 99.1065 79.2068C98.1784 79.1184 97.6083 80.0129 96.6445 80.1351C96.7468 78.4579 97.4038 77.1395 98.2193 75.8783C99.04 74.6146 99.6919 73.2571 100.137 71.8191C100.313 71.2523 100.385 70.5371 99.6715 70.2095C99.0068 69.9052 98.6872 70.4774 98.3344 70.896C97.2453 72.1936 96.78 73.8136 96.1409 75.4596C95.604 74.9344 95.5299 74.3077 95.2921 73.759C94.9418 72.9425 94.5788 72.1312 94.1672 71.3458C93.9243 70.883 93.5204 70.5085 92.9605 70.792C92.4748 71.0416 92.5438 71.5643 92.6844 71.983C93.0602 73.0855 93.1446 74.3467 93.9141 75.2438C95.806 77.4334 95.2231 79.6957 94.2669 82.3403C93.6124 81.0297 93.0244 79.9765 92.1552 79.1314C91.7487 78.7361 91.2834 78.5801 90.8105 78.7596C90.2403 78.978 90.2352 79.6151 90.3631 80.0623C90.6545 81.0999 90.767 82.1686 91.7334 82.9852C92.5719 83.6977 93.638 84.47 93.707 85.7468C93.8272 87.9909 93.1574 90.196 93.436 92.4765C92.7228 91.907 92.283 91.2491 91.6976 90.7785C90.5011 89.8137 90.133 88.6384 90.2659 87.1146C90.3886 85.6792 90.3094 84.2047 89.8901 82.8005C89.6702 82.0724 89.4657 81.1571 88.4303 81.3001C87.377 81.4457 87.2185 82.2935 87.3003 83.1984C87.4205 84.4882 87.5687 85.7728 87.7145 87.1536C86.2086 86.6777 85.659 85.9444 85.7919 84.3867C85.9198 82.8655 85.6206 81.2741 84.8741 79.8517C84.5827 79.303 84.166 78.9728 83.5473 79.095C82.9133 79.2224 82.9363 79.8023 82.8749 80.2938C82.6729 81.88 82.8417 83.5234 83.0462 85.1019C82.0824 85.4113 79.0068 83.7237 78.6182 85.5283C78.4674 86.2408 79.0401 86.4931 79.5105 86.7557C80.574 87.346 81.7423 87.1562 82.8851 87.1874C83.7288 87.2082 84.6824 87.502 84.9738 88.2041C85.296 88.9868 84.2529 89.0804 83.7441 89.4185C83.3249 89.6967 82.9005 90.0244 83.0692 90.6173C83.2047 91.1035 83.6393 91.2544 84.097 91.3064C85.3522 91.4442 86.61 91.5742 87.8295 91.1165C88.6476 90.8123 89.3225 90.9813 89.9003 91.6262C92.4543 94.4554 94.3232 97.6591 95.1566 101.437C95.0364 101.575 94.9137 101.713 94.7961 101.848C93.4897 101.123 92.733 99.7004 91.3806 99.0451C90.6954 98.7148 89.8645 98.2779 89.274 99.0087C88.6655 99.7654 89.4734 100.358 89.9003 100.855C91.4061 102.592 93.3568 103.692 95.4174 104.605C96.6905 105.049 96.0463 106.121 96.1588 106.945C96.3403 107.478 96.3198 108.022 96.2559 108.575C96.1741 109.298 96.5985 109.548 97.2223 109.59C97.9177 109.636 98.2142 109.27 98.2091 108.601C98.2066 108.053 98.1836 107.504 98.1682 106.953C97.887 106.537 97.9151 106.092 98.0532 105.637C98.204 105.138 97.7745 104.051 97.6901 103.531C97.5597 102.727 97.4447 101.913 97.501 101.099C97.6186 99.4247 98.6335 98.0361 99.4388 96.6241C99.7967 95.9922 100.679 94.4684 100.38 93.7065C99.9322 92.5702 98.4852 93.1552 97.9944 93.8703Z" fill="#256C1F"/>
<path fill-rule="evenodd" clip-rule="evenodd" d="M92.7698 124.113C92.7672 124.019 91.8367 123.312 91.7139 123.099C91.5017 122.724 91.4148 122.311 91.4608 121.882C91.5887 120.714 92.2789 120.236 93.2785 119.923C94.5415 119.531 94.1631 117.666 95.4721 117.097C96.5484 116.626 97.773 117.214 98.5042 118.038C99.4271 118.197 100.414 117.445 101.36 118.098C101.917 118.483 102.244 119.013 102.359 119.71C102.467 120.358 102.096 120.945 102.221 121.601C102.37 121.908 102.664 122.108 102.904 122.352C104.167 123.655 103.52 125.847 101.823 126.086C101.7 126.105 101.58 126.123 101.544 126.128C100.774 126.248 100.47 128.016 99.8719 128.474C99.4935 128.762 99.0691 129.012 98.6013 129.077C97.4253 129.243 97.2361 128.177 96.3873 127.738C96.0217 127.844 95.6127 127.969 95.1985 128.086C94.0813 128.396 93.3425 128 92.9334 126.9C92.7008 126.274 92.4886 125.67 92.7724 124.984C92.8721 124.745 92.7749 124.425 92.7698 124.113Z" fill="#E56B6F"/>
<path fill-rule="evenodd" clip-rule="evenodd" d="M98.8728 123.481C98.8728 124.248 98.2618 124.869 97.5077 124.869C96.7509 124.869 96.1399 124.248 96.1399 123.481C96.1399 122.711 96.7509 122.089 97.5077 122.089C98.2618 122.089 98.8728 122.711 98.8728 123.481Z" fill="#FFF7F6"/>
<path fill-rule="evenodd" clip-rule="evenodd" d="M312.748 134.083H185.235C184.949 134.083 184.719 133.848 184.719 133.56C184.719 129.532 187.927 126.268 191.887 126.268H312.748C313.032 126.268 313.262 126.502 313.262 126.791V133.56C313.262 133.848 313.032 134.083 312.748 134.083Z" fill="black"/>
<path fill-rule="evenodd" clip-rule="evenodd" d="M312.748 134.083H185.235C184.949 134.083 184.719 133.848 184.719 133.56C184.719 129.532 187.927 126.268 191.887 126.268H312.748C313.032 126.268 313.262 126.502 313.262 126.791V133.56C313.262 133.848 313.032 134.083 312.748 134.083Z" fill="white" fill-opacity="0.3"/>
<path fill-rule="evenodd" clip-rule="evenodd" d="M355.322 62.4161L339.405 130.884C338.981 132.71 337.381 133.997 335.537 133.997H237.493C234.927 133.997 233.035 131.563 233.623 129.022L249.54 60.5569C249.964 58.7314 251.565 57.4442 253.408 57.4442H351.452C354.019 57.4442 355.913 59.8782 355.322 62.4161Z" fill="black"/>
<path fill-rule="evenodd" clip-rule="evenodd" d="M299.56 88.5041C297.718 91.839 295.42 94.5822 292.974 97.1967C292.46 97.7462 292.333 98.1071 293.007 98.6639C295.352 100.609 297.148 103.059 298.589 105.777C299.023 106.595 299.345 106.585 299.856 105.947C302.06 103.176 304.398 100.557 307.18 98.3955C308.112 97.6713 307.419 97.1161 306.843 96.6581C304.033 94.4319 301.93 91.5219 299.56 88.5041Z" fill="#E56B6F"/>
<path fill-rule="evenodd" clip-rule="evenodd" d="M257.291 57.4442L240.347 133.997H237.491C234.924 133.997 233.032 131.563 233.623 129.022L249.537 60.5569C249.962 58.7314 251.562 57.4442 253.405 57.4442H257.291Z" fill="black"/>
<path fill-rule="evenodd" clip-rule="evenodd" d="M257.291 57.4442L240.347 133.997H237.491C234.924 133.997 233.032 131.563 233.623 129.022L249.537 60.5569C249.962 58.7314 251.562 57.4442 253.405 57.4442H257.291Z" fill="white" fill-opacity="0.3"/>
<path fill-rule="evenodd" clip-rule="evenodd" d="M347.55 139.504V144.773C347.55 147.805 345.748 150.262 343.526 150.262H63.5606C61.339 150.262 59.5392 147.805 59.5392 144.773V139.504C59.5392 136.472 61.339 134.018 63.5606 134.018H343.526C345.748 134.018 347.55 136.472 347.55 139.504Z" fill="#FFB700"/>
<path fill-rule="evenodd" clip-rule="evenodd" d="M327.893 163.805H87.2158C79.8274 163.805 73.8374 157.712 73.8374 150.2H341.271C341.271 157.712 335.281 163.805 327.893 163.805Z" fill="#EA9800"/>
<path fill-rule="evenodd" clip-rule="evenodd" d="M75.0015 355.96L120.567 163.805H104.563L59 355.96H75.0015Z" fill="#FFB700"/>
<path fill-rule="evenodd" clip-rule="evenodd" d="M343.974 355.96L298.411 163.805H314.412L359.975 355.96H343.974Z" fill="#FFB700"/>
<g opacity="0.7">
<path fill-rule="evenodd" clip-rule="evenodd" d="M189.156 55.0584C189.075 56.3999 189.573 57.0618 190.307 57.5817C191.353 58.3295 192.319 59.4543 193.477 59.7173C198.794 60.9214 200.421 65.3706 202.496 69.5121C204.474 73.4625 207.241 73.8436 209.181 69.9111C211.761 64.6805 215 60.8213 220.581 58.6315C223.62 57.4433 223.624 53.6342 220.547 52.3866C214.972 50.1258 211.739 46.305 209.354 40.9079C207.679 37.1121 204.563 37.4086 202.814 41.1755C200.77 45.5819 198.709 49.6534 193.425 51.0563C191.495 51.5689 189.614 53.0431 189.156 55.0584Z" fill="#FED21C"/>
<path fill-rule="evenodd" clip-rule="evenodd" d="M230.504 9.26817C230.459 9.99969 230.733 10.3606 231.137 10.6441C231.713 11.0519 232.245 11.665 232.883 11.8083C235.809 12.4649 236.705 14.8907 237.847 17.1486C238.936 19.3024 240.459 19.5103 241.526 17.3665C242.947 14.5148 244.73 12.4108 247.802 11.2173C249.474 10.5694 249.477 8.49295 247.783 7.81255C244.714 6.58 242.934 4.49674 241.621 1.55434C240.699 -0.515214 238.984 -0.353645 238.021 1.6999C236.896 4.10224 235.762 6.3218 232.853 7.0863C231.791 7.36603 230.756 8.16964 230.504 9.26817Z" fill="#FED21C"/>
<path fill-rule="evenodd" clip-rule="evenodd" d="M176.373 18.2467C176.342 18.7555 176.532 19.0066 176.814 19.2038C177.214 19.4875 177.584 19.914 178.028 20.0138C180.064 20.4706 180.687 22.1581 181.481 23.7288C182.239 25.2271 183.298 25.3718 184.041 23.8804C185.029 21.8967 186.269 20.4331 188.406 19.6029C189.57 19.1522 189.571 17.7077 188.393 17.2343C186.258 16.3769 185.02 14.9276 184.106 12.8807C183.465 11.441 182.272 11.5534 181.602 12.9819C180.82 14.6531 180.031 16.1971 178.007 16.7289C177.268 16.9235 176.548 17.4825 176.373 18.2467Z" fill="#FED21C"/>
</g>
</svg>
