<svg width="390" height="600" viewBox="0 0 390 600" fill="none" xmlns="http://www.w3.org/2000/svg">
<g opacity="0.85" clip-path="url(#clip0_167_231)">
<ellipse rx="174.583" ry="174.288" transform="matrix(1.00019 -0.000403407 -0.000405641 0.999807 207.187 423.649)" fill="#E56B6F"/>
<ellipse rx="174.583" ry="174.288" transform="matrix(1.00019 -0.000403407 -0.000405641 0.999807 207.187 423.649)" fill="white" fill-opacity="0.3"/>
<g opacity="0.644252">
<path fill-rule="evenodd" clip-rule="evenodd" d="M157.06 248.237C155.126 248.235 153.556 246.665 153.558 244.73C153.56 242.795 155.13 241.229 157.066 241.231C159.002 241.231 160.568 242.801 160.568 244.736C160.568 246.669 158.996 248.239 157.06 248.237Z" fill="#E56B6F"/>
<path fill-rule="evenodd" clip-rule="evenodd" d="M146.472 248.229C144.538 248.227 142.968 246.658 142.969 244.723C142.971 242.787 144.542 241.222 146.478 241.224C148.414 241.224 149.98 242.793 149.98 244.728C149.98 246.662 148.408 248.231 146.472 248.229Z" fill="#E56B6F"/>
<path fill-rule="evenodd" clip-rule="evenodd" d="M136.549 248.222C134.613 248.222 133.045 246.65 133.047 244.715C133.047 242.78 134.619 241.214 136.555 241.216C138.491 241.218 140.057 242.786 140.057 244.721C140.057 246.656 138.485 248.224 136.549 248.222Z" fill="#E56B6F"/>
</g>
<path opacity="0.644252" d="M244.075 206.102C244.501 205.688 245.15 205.631 245.638 205.937L245.814 206.069L255.26 214.55L264.125 206.557C264.551 206.175 265.169 206.126 265.643 206.415L265.814 206.539L275.635 215.013L283.331 207.084C283.773 206.63 284.47 206.574 284.973 206.925L285.134 207.057C285.589 207.498 285.645 208.195 285.293 208.699L285.161 208.859L276.629 217.651C276.21 218.081 275.558 218.156 275.06 217.857L274.88 217.728L264.997 209.203L256.118 217.212C255.686 217.6 255.057 217.644 254.58 217.343L254.41 217.214L244.993 208.758L236.77 216.713C236.315 217.154 235.616 217.187 235.125 216.821L234.968 216.684C234.528 216.229 234.493 215.53 234.861 215.038L234.999 214.882L244.075 206.102Z" fill="#E56B6F"/>
<path fill-rule="evenodd" clip-rule="evenodd" d="M52.5627 266.614C52.5987 267.292 52.3387 267.624 51.9569 267.884C51.413 268.257 50.9091 268.821 50.3093 268.949C47.5559 269.535 46.6961 271.776 45.6063 273.859C44.5666 275.846 43.1351 276.027 42.1492 274.032C40.8375 271.378 39.18 269.415 36.3047 268.285C34.739 267.672 34.7531 265.747 36.3487 265.13C39.24 264.012 40.9275 262.095 42.1833 259.379C43.065 257.468 44.6746 257.631 45.5623 259.542C46.6001 261.777 47.6479 263.843 50.3732 264.574C51.3689 264.841 52.3346 265.594 52.5627 266.614Z" fill="#B9E1F5"/>
<path fill-rule="evenodd" clip-rule="evenodd" d="M219.53 289.332C219.567 290.01 219.308 290.343 218.924 290.602C218.38 290.975 217.877 291.539 217.277 291.667C214.523 292.253 213.664 294.495 212.574 296.577C211.534 298.564 210.103 298.744 209.118 296.751C207.805 294.097 206.148 292.133 203.273 291.003C201.707 290.39 201.722 288.465 203.317 287.848C206.208 286.73 207.896 284.813 209.151 282.097C210.034 280.187 211.643 280.35 212.531 282.26C213.569 284.495 214.616 286.561 217.341 287.292C218.338 287.559 219.304 288.312 219.53 289.332Z" fill="#FED21C"/>
<path fill-rule="evenodd" clip-rule="evenodd" d="M323.964 488.51C323.995 489.137 323.761 489.443 323.412 489.684C322.919 490.029 322.462 490.551 321.914 490.669C319.412 491.211 318.632 493.282 317.641 495.206C316.698 497.042 315.395 497.21 314.5 495.366C313.308 492.912 311.802 491.099 309.186 490.054C307.765 489.489 307.778 487.711 309.228 487.14C311.856 486.104 313.389 484.336 314.529 481.826C315.331 480.059 316.793 480.208 317.6 481.977C318.543 484.04 319.496 485.95 321.974 486.623C322.876 486.871 323.757 487.569 323.964 488.51Z" fill="#B9E1F5"/>
<path fill-rule="evenodd" clip-rule="evenodd" d="M268.281 535.615C268.317 536.295 268.057 536.626 267.675 536.885C267.131 537.258 266.627 537.823 266.028 537.951C263.274 538.538 262.414 540.779 261.325 542.861C260.285 544.848 258.853 545.028 257.867 543.035C256.556 540.38 254.898 538.418 252.023 537.287C250.457 536.674 250.471 534.748 252.067 534.133C254.958 533.014 256.646 531.097 257.902 528.382C258.783 526.47 260.393 526.634 261.281 528.544C262.318 530.779 263.366 532.844 266.091 533.576C267.087 533.843 268.053 534.596 268.281 535.615Z" fill="#FED21C"/>
<path opacity="0.644252" fill-rule="evenodd" clip-rule="evenodd" d="M133.053 326.294C133.074 326.69 132.923 326.883 132.699 327.035C132.383 327.253 132.089 327.582 131.738 327.656C130.131 327.998 129.63 329.305 128.995 330.52C128.389 331.679 127.553 331.785 126.978 330.621C126.213 329.073 125.247 327.928 123.57 327.269C122.656 326.911 122.664 325.788 123.595 325.428C125.282 324.776 126.265 323.658 126.999 322.073C127.512 320.959 128.451 321.054 128.97 322.169C129.576 323.472 130.186 324.677 131.775 325.104C132.356 325.26 132.919 325.699 133.053 326.294Z" fill="#FED21C"/>
<path fill-rule="evenodd" clip-rule="evenodd" d="M6.5449 510.438L19.7181 504.233C22.5501 502.9 25.6753 505.218 25.3826 508.33L23.977 523.266C23.6831 526.39 20.1571 528.05 17.6347 526.177L5.86615 517.443C3.402 515.612 3.7674 511.744 6.5449 510.438ZM21.6432 507.978C21.6686 507.709 21.4686 507.56 21.3193 507.63L8.14484 513.834C7.94536 513.929 7.91169 514.285 8.10582 514.43L19.8746 523.162C20.0115 523.264 20.2136 523.169 20.2376 522.914L21.6432 507.978Z" fill="#FED21C"/>
<path d="M6.80945 376.859C7.13592 377.211 7.15195 377.743 6.86372 378.112L6.78533 378.201L2.4355 382.561C2.05802 382.94 1.44507 382.941 1.06647 382.563C0.716985 382.215 0.689337 381.666 0.98405 381.286L1.06444 381.195L4.75711 377.493L0.802599 373.233C0.486609 372.893 0.460472 372.382 0.724032 372.013L0.803102 371.916L4.54511 367.891L0.536889 363.398C0.2148 363.037 0.212399 362.5 0.514295 362.136L0.596095 362.049L4.95291 357.951C5.34224 357.585 5.9549 357.603 6.32132 357.992C6.65954 358.352 6.66972 358.901 6.36309 359.272L6.27981 359.36L2.60901 362.812L6.57575 367.262C6.88035 367.603 6.90082 368.106 6.64028 368.469L6.56225 368.564L2.8336 372.575L6.80945 376.859Z" fill="#E56B6F"/>
<path fill-rule="evenodd" clip-rule="evenodd" d="M201.99 376.269C202.021 376.896 201.787 377.201 201.438 377.443C200.945 377.788 200.488 378.31 199.94 378.428C197.438 378.97 196.658 381.041 195.667 382.964C194.724 384.801 193.421 384.969 192.527 383.125C191.334 380.671 189.828 378.858 187.212 377.813C185.791 377.248 185.805 375.469 187.255 374.898C189.882 373.863 191.415 372.094 192.556 369.584C193.357 367.818 194.819 367.967 195.626 369.735C196.569 371.798 197.522 373.708 200 374.382C200.902 374.63 201.783 375.328 201.99 376.269Z" fill="#B9E1F5"/>
<path fill-rule="evenodd" clip-rule="evenodd" d="M76.1443 399.491C76.1753 400.118 75.941 400.424 75.5925 400.666C75.0988 401.01 74.6419 401.533 74.094 401.651C71.5925 402.193 70.8123 404.263 69.821 406.187C68.8781 408.023 67.5751 408.192 66.6806 406.347C65.488 403.894 63.9817 402.08 61.3661 401.035C59.945 400.47 59.9585 398.692 61.4087 398.121C64.0359 397.086 65.5693 395.317 66.7097 392.807C67.5112 391.04 68.973 391.189 69.7803 392.958C70.7232 395.021 71.6758 396.931 74.154 397.604C75.0562 397.852 75.9371 398.551 76.1443 399.491Z" fill="#B9E1F5"/>
<path fill-rule="evenodd" clip-rule="evenodd" d="M188.809 597.596C187.143 597.596 185.691 596.311 185.463 594.544L171.326 484.648H112.164L98.2457 594.536C98.002 596.466 96.3043 597.82 94.4537 597.563C92.6032 597.309 91.302 595.544 91.5457 593.615L105.85 480.67C106.071 478.922 107.505 477.613 109.2 477.613H174.282C175.975 477.613 177.407 478.918 177.632 480.664L192.163 593.609C192.409 595.537 191.112 597.305 189.262 597.563C189.111 597.584 188.958 597.596 188.809 597.596Z" fill="black"/>
<path fill-rule="evenodd" clip-rule="evenodd" d="M188.809 597.596C187.143 597.596 185.691 596.311 185.463 594.544L171.326 484.648H112.164L98.2457 594.536C98.002 596.466 96.3043 597.82 94.4537 597.563C92.6032 597.309 91.302 595.544 91.5457 593.615L105.85 480.67C106.071 478.922 107.505 477.613 109.2 477.613H174.282C175.975 477.613 177.407 478.918 177.632 480.664L192.163 593.609C192.409 595.537 191.112 597.305 189.262 597.563C189.111 597.584 188.958 597.596 188.809 597.596Z" fill="white" fill-opacity="0.5"/>
<path fill-rule="evenodd" clip-rule="evenodd" d="M231.404 597.596C229.737 597.596 228.285 596.311 228.058 594.544L213.92 484.648H154.758L140.84 594.536C140.596 596.466 138.898 597.82 137.048 597.563C135.197 597.309 133.896 595.544 134.14 593.615L148.445 480.67C148.665 478.922 150.099 477.613 151.795 477.613H216.876C218.569 477.613 220.001 478.918 220.226 480.664L234.758 593.609C235.003 595.537 233.706 597.305 231.856 597.563C231.705 597.584 231.552 597.596 231.404 597.596Z" fill="black"/>
<path fill-rule="evenodd" clip-rule="evenodd" d="M231.404 597.596C229.737 597.596 228.285 596.311 228.058 594.544L213.92 484.648H154.758L140.84 594.536C140.596 596.466 138.898 597.82 137.048 597.563C135.197 597.309 133.896 595.544 134.14 593.615L148.445 480.67C148.665 478.922 150.099 477.613 151.795 477.613H216.876C218.569 477.613 220.001 478.918 220.226 480.664L234.758 593.609C235.003 595.537 233.706 597.305 231.856 597.563C231.705 597.584 231.552 597.596 231.404 597.596Z" fill="white" fill-opacity="0.3"/>
<path fill-rule="evenodd" clip-rule="evenodd" d="M124.622 370.27C131.706 370.268 138.789 370.268 145.873 370.266C152.885 370.266 160.033 370.286 166.703 372.464C173.375 374.642 179.613 379.377 181.801 386.09C183.427 391.087 182.626 396.346 182.964 401.491C183.276 406.245 184.755 410.952 185.596 415.666C187.458 426.092 190.277 436.343 194.014 446.248C196.883 453.852 200.482 461.512 206.664 466.742C210.866 470.295 216.422 472.99 218.157 478.234C218.358 478.843 218.474 479.582 218.054 480.064C215.855 482.582 208.165 482.508 205.319 482.508C188.382 482.123 171.445 481.739 154.508 481.355C149.013 481.23 143.464 481.099 138.142 479.721C130.167 477.658 117.605 478.445 110.782 473.801C108.728 472.401 106.645 470.977 105.048 469.068C98.8406 461.652 103.85 447.082 103.67 437.782C103.374 422.461 103.079 407.114 104.28 391.84C104.589 387.898 105.013 383.904 106.448 380.224C107.883 376.541 110.46 373.155 114.053 371.566C116.94 370.294 120.196 370.27 123.346 370.27H124.622Z" fill="black"/>
<path fill-rule="evenodd" clip-rule="evenodd" d="M124.622 370.27C131.706 370.268 138.789 370.268 145.873 370.266C152.885 370.266 160.033 370.286 166.703 372.464C173.375 374.642 179.613 379.377 181.801 386.09C183.427 391.087 182.626 396.346 182.964 401.491C183.276 406.245 184.755 410.952 185.596 415.666C187.458 426.092 190.277 436.343 194.014 446.248C196.883 453.852 200.482 461.512 206.664 466.742C210.866 470.295 216.422 472.99 218.157 478.234C218.358 478.843 218.474 479.582 218.054 480.064C215.855 482.582 208.165 482.508 205.319 482.508C188.382 482.123 171.445 481.739 154.508 481.355C149.013 481.23 143.464 481.099 138.142 479.721C130.167 477.658 117.605 478.445 110.782 473.801C108.728 472.401 106.645 470.977 105.048 469.068C98.8406 461.652 103.85 447.082 103.67 437.782C103.374 422.461 103.079 407.114 104.28 391.84C104.589 387.898 105.013 383.904 106.448 380.224C107.883 376.541 110.46 373.155 114.053 371.566C116.94 370.294 120.196 370.27 123.346 370.27H124.622Z" fill="white" fill-opacity="0.2"/>
<path fill-rule="evenodd" clip-rule="evenodd" d="M121.982 480.779C109.43 480.779 95.9856 473.911 94.0592 461.514C91.4822 444.935 90.8453 428.879 91.5636 414.144C92.3787 397.48 100.338 381.977 113.445 371.647C113.445 371.647 121.36 406.125 111.407 453.709C105.542 485.98 151.171 471.274 175.583 475.581C188.48 477.856 188.971 482.509 188.971 482.509L121.982 480.779Z" fill="black"/>
<path fill-rule="evenodd" clip-rule="evenodd" d="M121.982 480.779C109.43 480.779 95.9856 473.911 94.0592 461.514C91.4822 444.935 90.8453 428.879 91.5636 414.144C92.3787 397.48 100.338 381.977 113.445 371.647C113.445 371.647 121.36 406.125 111.407 453.709C105.542 485.98 151.171 471.274 175.583 475.581C188.48 477.856 188.971 482.509 188.971 482.509L121.982 480.779Z" fill="white" fill-opacity="0.5"/>
<path fill-rule="evenodd" clip-rule="evenodd" d="M150.67 435.06C150.474 432.755 150.277 429.462 150.153 427.151C149.95 423.308 149.789 419.459 149.64 415.611C149.586 414.253 150.031 413.798 151.39 413.564C153.028 413.278 154.687 413.154 156.343 413.047C157.373 412.979 158.391 412.767 159.423 412.734C159.733 412.724 160.786 412.726 161.03 412.954C161.148 413.067 161.076 414.017 161.005 414.019C158.728 414.079 156.441 413.866 154.18 414.286C153.744 414.367 153.088 414.348 153.018 414.785C152.922 415.383 153.677 415.236 154.027 415.466C154.124 415.528 154.267 415.52 154.389 415.542C157.601 416.074 160.815 416.6 164.089 416.283C166.434 416.055 168.765 415.745 171.065 415.234C171.446 415.151 172.005 415.037 171.966 414.535C171.916 413.901 171.301 414.03 170.873 414.028C168.091 414.015 165.309 414.024 162.526 414.024C162.315 413.715 162.337 413.384 162.439 413.045C164.083 412.434 165.729 413.084 167.371 413.038C168.813 413.127 170.255 413.229 171.699 413.295C176.549 413.517 173.455 433.431 173.321 434.994L150.67 435.06Z" fill="#B9E1F5"/>
<path fill-rule="evenodd" clip-rule="evenodd" d="M161.005 414.019C161.143 414.415 161.127 414.82 161.079 415.232C161.017 415.768 161.338 415.956 161.813 415.987C162.337 416.022 162.564 415.749 162.558 415.251C162.556 414.843 162.539 414.435 162.527 414.026C165.309 414.024 168.091 414.015 170.874 414.028C171.302 414.03 171.918 413.901 171.968 414.537C172.007 415.037 171.447 415.151 171.065 415.234C168.765 415.745 166.434 416.054 164.09 416.283C160.814 416.6 157.602 416.074 154.39 415.542C154.268 415.52 154.125 415.528 154.028 415.466C153.677 415.236 152.922 415.383 153.019 414.785C153.089 414.348 153.745 414.367 154.181 414.286C156.442 413.866 158.729 414.079 161.005 414.019Z" fill="#EE916D"/>
<path fill-rule="evenodd" clip-rule="evenodd" d="M161.005 414.019C161.143 414.415 161.127 414.82 161.079 415.232C161.017 415.768 161.338 415.956 161.813 415.987C162.337 416.022 162.564 415.749 162.558 415.251C162.556 414.843 162.539 414.435 162.527 414.026C165.309 414.024 168.091 414.015 170.874 414.028C171.302 414.03 171.918 413.901 171.968 414.537C172.007 415.037 171.447 415.151 171.065 415.234C168.765 415.745 166.434 416.054 164.09 416.283C160.814 416.6 157.602 416.074 154.39 415.542C154.268 415.52 154.125 415.528 154.028 415.466C153.677 415.236 152.922 415.383 153.019 414.785C153.089 414.348 153.745 414.367 154.181 414.286C156.442 413.866 158.729 414.079 161.005 414.019Z" fill="black" fill-opacity="0.3"/>
<path fill-rule="evenodd" clip-rule="evenodd" d="M162.395 404.286C161.809 405.13 161.356 406.028 161.114 407.031L161.073 407.081C159.923 405.939 159.91 404.515 160.062 403.044C160.093 402.763 160.219 402.582 160.477 402.487C161.89 401.97 162.486 400.683 163.22 399.539C163.47 399.15 163.9 398.63 163.389 398.204C162.901 397.8 162.368 398.14 161.906 398.44C161.365 398.792 161.067 399.447 160.411 399.717C160.182 397.716 160.293 397.502 161.867 396.654C162.713 396.197 163.516 395.684 164.097 394.891C164.364 394.525 164.461 394.136 164.229 393.728C164.006 393.337 163.611 393.411 163.238 393.374C162.535 393.308 162.103 393.974 161.373 394.065C161.451 392.816 161.948 391.835 162.566 390.897C163.187 389.956 163.681 388.946 164.018 387.876C164.151 387.454 164.206 386.922 163.666 386.678C163.162 386.452 162.92 386.877 162.653 387.189C161.828 388.155 161.476 389.36 160.992 390.585C160.585 390.194 160.529 389.728 160.349 389.32C160.084 388.712 159.809 388.108 159.497 387.524C159.313 387.179 159.007 386.901 158.583 387.111C158.215 387.297 158.268 387.686 158.374 387.998C158.659 388.818 158.723 389.757 159.305 390.425C160.738 392.054 160.297 393.738 159.573 395.706C159.077 394.73 158.632 393.947 157.973 393.318C157.666 393.024 157.313 392.907 156.955 393.041C156.523 393.204 156.519 393.678 156.616 394.011C156.837 394.783 156.922 395.578 157.654 396.186C158.289 396.716 159.096 397.291 159.149 398.241C159.24 399.911 158.732 401.552 158.943 403.249C158.403 402.825 158.07 402.336 157.627 401.986C156.721 401.268 156.442 400.393 156.543 399.259C156.636 398.191 156.576 397.093 156.258 396.048C156.092 395.506 155.937 394.825 155.153 394.932C154.355 395.04 154.235 395.671 154.297 396.344C154.388 397.304 154.5 398.26 154.61 399.288C153.47 398.934 153.054 398.388 153.154 397.229C153.251 396.097 153.025 394.912 152.459 393.854C152.239 393.445 151.923 393.2 151.455 393.291C150.974 393.385 150.992 393.817 150.945 394.183C150.792 395.363 150.92 396.586 151.075 397.761C150.345 397.991 148.016 396.735 147.722 398.078C147.608 398.609 148.041 398.796 148.397 398.992C149.203 399.431 150.088 399.29 150.953 399.313C151.592 399.328 152.314 399.547 152.535 400.07C152.779 400.652 151.989 400.722 151.604 400.973C151.286 401.18 150.965 401.424 151.093 401.866C151.195 402.227 151.524 402.34 151.871 402.378C152.821 402.481 153.774 402.578 154.698 402.237C155.317 402.011 155.828 402.136 156.266 402.616C158.2 404.722 159.615 407.106 160.246 409.918C160.155 410.02 160.062 410.123 159.973 410.224C158.984 409.684 158.411 408.625 157.387 408.138C156.868 407.892 156.239 407.567 155.791 408.11C155.331 408.674 155.942 409.115 156.266 409.484C157.406 410.777 158.883 411.596 160.444 412.275C161.408 412.606 160.92 413.403 161.005 414.017C161.143 414.413 161.127 414.818 161.079 415.23C161.017 415.768 161.338 415.954 161.811 415.985C162.337 416.02 162.562 415.747 162.558 415.249C162.556 414.841 162.539 414.433 162.527 414.023C162.314 413.713 162.335 413.382 162.44 413.043C162.554 412.672 162.229 411.863 162.165 411.476C162.066 410.878 161.979 410.272 162.022 409.666C162.111 408.42 162.879 407.387 163.489 406.336C163.76 405.866 164.428 404.732 164.202 404.165C163.863 403.319 162.767 403.754 162.395 404.286Z" fill="#256C1F"/>
<path fill-rule="evenodd" clip-rule="evenodd" d="M158.439 426.793C158.437 426.723 157.732 426.197 157.639 426.038C157.479 425.759 157.413 425.452 157.448 425.132C157.544 424.263 158.067 423.907 158.824 423.675C159.781 423.383 159.494 421.995 160.485 421.572C161.3 421.221 162.228 421.659 162.782 422.272C163.48 422.39 164.228 421.831 164.944 422.317C165.366 422.603 165.614 422.998 165.701 423.517C165.782 423.998 165.502 424.436 165.597 424.923C165.709 425.152 165.932 425.301 166.114 425.483C167.07 426.452 166.58 428.084 165.295 428.262C165.202 428.275 165.111 428.289 165.084 428.293C164.501 428.382 164.27 429.698 163.817 430.038C163.531 430.253 163.209 430.439 162.855 430.487C161.964 430.611 161.821 429.818 161.178 429.49C160.902 429.57 160.592 429.663 160.278 429.75C159.432 429.98 158.873 429.686 158.563 428.867C158.387 428.401 158.226 427.952 158.441 427.441C158.516 427.263 158.443 427.025 158.439 426.793Z" fill="#E56B6F"/>
<path fill-rule="evenodd" clip-rule="evenodd" d="M163.061 426.323C163.061 426.894 162.598 427.356 162.027 427.356C161.454 427.356 160.991 426.894 160.991 426.323C160.991 425.75 161.454 425.287 162.027 425.287C162.598 425.287 163.061 425.75 163.061 426.323Z" fill="#FFF7F6"/>
<path fill-rule="evenodd" clip-rule="evenodd" d="M325.03 434.212H228.463C228.247 434.212 228.072 434.038 228.072 433.823C228.072 430.826 230.502 428.397 233.501 428.397H325.03C325.245 428.397 325.419 428.571 325.419 428.786V433.823C325.419 434.038 325.245 434.212 325.03 434.212Z" fill="black"/>
<path fill-rule="evenodd" clip-rule="evenodd" d="M325.03 434.212H228.463C228.247 434.212 228.072 434.038 228.072 433.823C228.072 430.826 230.502 428.397 233.501 428.397H325.03C325.245 428.397 325.419 428.571 325.419 428.786V433.823C325.419 434.038 325.245 434.212 325.03 434.212Z" fill="white" fill-opacity="0.3"/>
<path fill-rule="evenodd" clip-rule="evenodd" d="M357.272 380.878L345.218 431.832C344.896 433.191 343.684 434.148 342.288 434.148H268.039C266.095 434.148 264.662 432.337 265.108 430.446L277.162 379.494C277.483 378.136 278.695 377.178 280.091 377.178H354.34C356.284 377.178 357.719 378.989 357.272 380.878Z" fill="black"/>
<path fill-rule="evenodd" clip-rule="evenodd" d="M315.043 400.293C313.647 402.775 311.907 404.816 310.055 406.762C309.666 407.171 309.57 407.439 310.08 407.854C311.855 409.301 313.216 411.125 314.307 413.147C314.636 413.756 314.879 413.749 315.267 413.274C316.936 411.212 318.706 409.263 320.813 407.654C321.519 407.115 320.994 406.702 320.558 406.361C318.43 404.704 316.838 402.539 315.043 400.293Z" fill="#E56B6F"/>
<path fill-rule="evenodd" clip-rule="evenodd" d="M283.032 377.178L270.2 434.148H268.037C266.093 434.148 264.661 432.337 265.108 430.446L277.16 379.494C277.481 378.136 278.693 377.178 280.089 377.178H283.032Z" fill="black"/>
<path fill-rule="evenodd" clip-rule="evenodd" d="M283.032 377.178L270.2 434.148H268.037C266.093 434.148 264.661 432.337 265.108 430.446L277.16 379.494C277.481 378.136 278.693 377.178 280.089 377.178H283.032Z" fill="white" fill-opacity="0.3"/>
<path fill-rule="evenodd" clip-rule="evenodd" d="M351.386 438.247V442.168C351.386 444.425 350.021 446.253 348.339 446.253H136.318C134.636 446.253 133.273 444.425 133.273 442.168V438.247C133.273 435.991 134.636 434.164 136.318 434.164H348.339C350.021 434.164 351.386 435.991 351.386 438.247Z" fill="#FFB700"/>
<path fill-rule="evenodd" clip-rule="evenodd" d="M336.499 456.332H154.233C148.638 456.332 144.101 451.798 144.101 446.207H346.631C346.631 451.798 342.095 456.332 336.499 456.332Z" fill="#EA9800"/>
<path fill-rule="evenodd" clip-rule="evenodd" d="M144.983 599.334L179.49 456.332H167.37L132.865 599.334H144.983Z" fill="#FFB700"/>
<path fill-rule="evenodd" clip-rule="evenodd" d="M348.677 599.334L314.172 456.332H326.29L360.796 599.334H348.677Z" fill="#FFB700"/>
<path fill-rule="evenodd" clip-rule="evenodd" d="M292.137 327.372L271.354 349.388V327.372H265.549C251.827 327.372 240.703 316.31 240.703 302.66V256.802C240.703 243.157 251.827 232.095 265.549 232.095H356.902C370.625 232.095 381.748 243.157 381.748 256.802V302.66C381.748 316.31 370.625 327.372 356.902 327.372H292.137Z" fill="#FED21C"/>
<path fill-rule="evenodd" clip-rule="evenodd" d="M311.226 314.2C291.751 314.2 275.964 298.446 275.964 279.012C275.964 259.578 291.751 243.824 311.226 243.824C330.7 243.824 346.487 259.578 346.487 279.012C346.487 298.446 330.7 314.2 311.226 314.2Z" fill="white"/>
<path fill-rule="evenodd" clip-rule="evenodd" d="M310.106 302.356L284.768 282.522L293.589 271.037L307.976 282.301L326.627 259.837L337.66 269.172L310.106 302.356Z" fill="#FED21C"/>
<path fill-rule="evenodd" clip-rule="evenodd" d="M102.92 4.63287C99.1157 4.63287 96.0358 7.71051 96.0358 11.5074V182.87C96.0358 186.668 99.1165 189.748 102.92 189.748H332.297C336.097 189.748 339.178 186.669 339.178 182.87V11.5074C339.178 7.70981 336.097 4.63287 332.297 4.63287H102.92ZM92.948 11.5074C92.948 6.00323 97.4128 1.54651 102.92 1.54651H332.297C337.801 1.54651 342.266 6.00358 342.266 11.5074V182.87C342.266 188.373 337.802 192.835 332.297 192.835H102.92C97.412 192.835 92.948 188.374 92.948 182.87V11.5074Z" fill="#B9E1F5"/>
<mask id="mask0_167_231" style="mask-type:alpha" maskUnits="userSpaceOnUse" x="91" y="0" width="250" height="192">
<path fill-rule="evenodd" clip-rule="evenodd" d="M91.4062 191.292H340.72V0H91.4062V191.292Z" fill="white"/>
</mask>
<g mask="url(#mask0_167_231)">
<path fill-rule="evenodd" clip-rule="evenodd" d="M110.754 25.2147H228.509V20.0754H110.754V25.2147Z" fill="#B9E1F5"/>
<path fill-rule="evenodd" clip-rule="evenodd" d="M110.754 34.7671H179.625V29.1216H110.754V34.7671Z" fill="#B9E1F5"/>
<path fill-rule="evenodd" clip-rule="evenodd" d="M109.171 168.322H241.265V55.3973H109.171V168.322Z" fill="#B9E1F5"/>
<path fill-rule="evenodd" clip-rule="evenodd" d="M248.215 108.386H319.911V55.3973H248.215V108.386Z" fill="#B9E1F5"/>
<path fill-rule="evenodd" clip-rule="evenodd" d="M248.221 168.322H319.586V115.77H248.221V168.322Z" fill="#B9E1F5"/>
<path fill-rule="evenodd" clip-rule="evenodd" d="M116.52 175.698C116.52 177.726 114.875 179.374 112.846 179.374C110.816 179.374 109.171 177.726 109.171 175.698C109.171 173.669 110.816 172.025 112.846 172.025C114.875 172.025 116.52 173.669 116.52 175.698Z" fill="#B9E1F5"/>
<path fill-rule="evenodd" clip-rule="evenodd" d="M128.869 175.698C128.869 177.726 127.223 179.374 125.194 179.374C123.164 179.374 121.519 177.726 121.519 175.698C121.519 173.669 123.164 172.025 125.194 172.025C127.223 172.025 128.869 173.669 128.869 175.698Z" fill="#B9E1F5"/>
<path fill-rule="evenodd" clip-rule="evenodd" d="M141.217 175.698C141.217 177.726 139.572 179.374 137.542 179.374C135.513 179.374 133.867 177.726 133.867 175.698C133.867 173.669 135.513 172.025 137.542 172.025C139.572 172.025 141.217 173.669 141.217 175.698Z" fill="#B9E1F5"/>
<path fill-rule="evenodd" clip-rule="evenodd" d="M213.795 113.671C213.795 137.029 194.852 155.966 171.481 155.966C148.113 155.966 129.167 137.029 129.167 113.671C129.167 90.3141 148.113 71.377 171.481 71.377C194.852 71.377 213.795 90.3141 213.795 113.671Z" fill="white"/>
<path fill-rule="evenodd" clip-rule="evenodd" d="M207.523 107.373L175.782 145.229L146.591 122.603L156.754 109.503L173.327 122.349L194.812 96.7251L207.523 107.373Z" fill="#B9E1F5"/>
<path fill-rule="evenodd" clip-rule="evenodd" d="M292.125 82.6893C292.174 83.398 291.916 83.7542 291.528 84.0335C290.973 84.435 290.466 85.0355 289.852 85.1856C287.026 85.8525 286.187 88.2231 285.105 90.4296C284.078 92.5314 282.604 92.7514 281.545 90.681C280.138 87.9263 278.388 85.9014 275.398 84.7771C273.773 84.1661 273.745 82.1481 275.377 81.4673C278.335 80.2349 280.036 78.1924 281.273 75.319C282.143 73.2975 283.802 73.4372 284.759 75.4203C285.877 77.742 286.998 79.8822 289.824 80.5945C290.857 80.8563 291.867 81.6244 292.125 82.6893Z" fill="white"/>
<path fill-rule="evenodd" clip-rule="evenodd" d="M266.255 130.211C264.752 130.211 263.537 131.427 263.537 132.924V153.254C263.537 154.751 264.752 155.967 266.255 155.967H303.825C305.323 155.967 306.539 154.752 306.539 153.254V132.924C306.539 131.427 305.323 130.211 303.825 130.211H266.255ZM261.791 132.924C261.791 130.462 263.789 128.466 266.255 128.466H303.825C306.288 128.466 308.286 130.462 308.286 132.924V153.254C308.286 155.716 306.288 157.713 303.825 157.713H266.255C263.789 157.713 261.791 155.716 261.791 153.254V132.924Z" fill="white"/>
</g>
</g>
<defs>
<clipPath id="clip0_167_231">
<rect width="390" height="600" fill="white"/>
</clipPath>
</defs>
</svg>
