<svg width="280" height="250" viewBox="0 0 280 250" fill="none" xmlns="http://www.w3.org/2000/svg">
<g opacity="0.7">
<path fill-rule="evenodd" clip-rule="evenodd" d="M258.338 128.396C258.338 191.923 207.008 243.423 143.689 243.423C80.3717 243.423 29.0419 191.923 29.0419 128.396C29.0419 64.8693 80.3717 13.3701 143.689 13.3701C207.008 13.3701 258.338 64.8693 258.338 128.396Z" fill="#FED21C"/>
<path fill-rule="evenodd" clip-rule="evenodd" d="M215.888 39.0631C219.09 36.2901 223.925 36.6465 226.688 39.8574C229.452 43.0683 229.098 47.9197 225.896 50.6926C222.696 53.4643 217.86 53.1092 215.098 49.897C212.334 46.6874 212.688 41.836 215.888 39.0631Z" fill="#F67E62"/>
<path fill-rule="evenodd" clip-rule="evenodd" d="M181.252 15.1819C184.454 12.409 189.29 12.7653 192.052 15.9762C194.816 19.1871 194.462 24.0385 191.26 26.8114C188.06 29.5831 183.225 29.228 180.462 26.0158C177.698 22.8062 178.052 17.9549 181.252 15.1819Z" fill="#F67E62"/>
<path d="M138.419 20.0334C138.704 19.7564 139.136 19.7181 139.462 19.9234L139.579 20.0117L145.881 25.6902L151.795 20.3382C152.078 20.0821 152.491 20.0494 152.807 20.2427L152.921 20.3258L159.473 25.9999L164.606 20.6912C164.901 20.3868 165.366 20.3497 165.702 20.5845L165.809 20.6729C166.112 20.9682 166.149 21.4353 165.915 21.7723L165.827 21.8795L160.136 27.7662C159.857 28.0546 159.422 28.1045 159.089 27.9047L158.969 27.818L152.376 22.11L146.452 27.4725C146.165 27.7326 145.745 27.7619 145.428 27.5603L145.315 27.4738L139.032 21.812L133.547 27.1386C133.244 27.4335 132.777 27.4558 132.449 27.2105L132.345 27.1188C132.051 26.814 132.029 26.3461 132.273 26.0166L132.365 25.9123L138.419 20.0334Z" fill="#B9E1F5"/>
<path d="M62.1226 187.294C62.592 186.857 63.3017 186.835 63.7944 187.221L63.9128 187.326L69.7334 193.148C70.2385 193.654 70.2397 194.474 69.7362 194.981C69.2712 195.449 68.5387 195.485 68.0315 195.091L67.9096 194.984L62.9684 190.041L57.2825 195.334C56.8281 195.757 56.1462 195.792 55.6541 195.439L55.525 195.333L50.1527 190.324L44.155 195.69C43.6729 196.121 42.9558 196.124 42.4712 195.72L42.3552 195.61L36.8847 189.779C36.3958 189.258 36.4206 188.437 36.9401 187.947C37.4195 187.494 38.1529 187.481 38.6473 187.891L38.7657 188.002L43.3735 192.916L49.3122 187.606C49.7681 187.199 50.4389 187.171 50.9235 187.52L51.0507 187.624L56.4036 192.615L62.1226 187.294Z" fill="#F67E62"/>
<path fill-rule="evenodd" clip-rule="evenodd" d="M28.7824 177.149C28.8064 177.603 28.633 177.826 28.3783 178C28.0155 178.25 27.6793 178.627 27.2792 178.713C25.4425 179.105 24.869 180.606 24.142 182.001C23.4485 183.331 22.4935 183.452 21.8359 182.116C20.9609 180.34 19.8552 179.025 17.9372 178.268C16.8928 177.858 16.9021 176.569 17.9665 176.156C19.8952 175.407 21.0209 174.124 21.8586 172.305C22.4468 171.026 23.5205 171.135 24.1127 172.414C24.8049 173.911 25.5039 175.294 27.3218 175.783C27.9861 175.962 28.6303 176.466 28.7824 177.149Z" fill="#FED21C"/>
<path fill-rule="evenodd" clip-rule="evenodd" d="M4.54339 133.085L13.3309 128.931C15.22 128.038 17.3047 129.591 17.1095 131.673L16.1718 141.674C15.9758 143.767 13.6237 144.878 11.9411 143.623L4.09059 137.776C2.44685 136.55 2.69059 133.96 4.54339 133.085ZM14.6149 131.438C14.6318 131.257 14.4985 131.158 14.3988 131.205L5.61065 135.36C5.47759 135.422 5.45513 135.661 5.58462 135.758L13.4352 141.605C13.5265 141.673 13.6614 141.609 13.6774 141.439L14.6149 131.438Z" fill="#FED21C"/>
<path fill-rule="evenodd" clip-rule="evenodd" d="M81.3336 248.015C80.0434 248.013 78.996 246.962 78.9973 245.667C78.9986 244.371 80.046 243.322 81.3375 243.324C82.629 243.324 83.6739 244.375 83.6739 245.67C83.6739 246.965 82.6252 248.016 81.3336 248.015Z" fill="#F67E62"/>
<path fill-rule="evenodd" clip-rule="evenodd" d="M74.2719 248.009C72.9817 248.008 71.9343 246.957 71.9356 245.662C71.9369 244.366 72.9843 243.317 74.2758 243.319C75.5673 243.319 76.6121 244.37 76.6121 245.665C76.6121 246.96 75.5634 248.011 74.2719 248.009Z" fill="#F67E62"/>
<path fill-rule="evenodd" clip-rule="evenodd" d="M67.6517 248.004C66.3602 248.004 65.314 246.952 65.3153 245.656C65.3153 244.361 66.364 243.312 67.6556 243.314C68.9471 243.315 69.9919 244.365 69.9919 245.66C69.9919 246.956 68.9432 248.006 67.6517 248.004Z" fill="#F67E62"/>
<path fill-rule="evenodd" clip-rule="evenodd" d="M279.336 134.389C279.36 134.843 279.186 135.066 278.932 135.239C278.569 135.489 278.233 135.867 277.833 135.953C275.996 136.345 275.422 137.845 274.695 139.24C274.002 140.571 273.047 140.692 272.389 139.356C271.514 137.579 270.409 136.265 268.491 135.508C267.446 135.097 267.456 133.809 268.52 133.395C270.449 132.647 271.574 131.363 272.412 129.545C273 128.265 274.074 128.375 274.666 129.654C275.358 131.15 276.057 132.533 277.875 133.023C278.54 133.202 279.184 133.706 279.336 134.389Z" fill="#FED21C"/>
<path fill-rule="evenodd" clip-rule="evenodd" d="M31.3663 52.791C31.3798 53.0433 31.2834 53.1669 31.1419 53.2634C30.9403 53.4023 30.7536 53.6121 30.5312 53.6597C29.5109 53.8775 29.1923 54.7111 28.7885 55.4861C28.4031 56.2253 27.8725 56.2925 27.5073 55.5505C27.0212 54.5633 26.4068 53.8329 25.3413 53.4126C24.7611 53.1844 24.7663 52.4686 25.3576 52.239C26.429 51.823 27.0545 51.1101 27.5198 50.0997C27.8466 49.389 28.4431 49.4496 28.7721 50.1603C29.1567 50.9917 29.545 51.7601 30.555 52.0321C30.924 52.1316 31.2819 52.4116 31.3663 52.791Z" fill="#FED21C"/>
<path fill-rule="evenodd" clip-rule="evenodd" d="M94.8819 51.0232C94.9026 51.443 94.7463 51.6477 94.5138 51.8097C94.1845 52.0403 93.8797 52.3902 93.5142 52.4692C91.8456 52.832 91.3251 54.2185 90.6638 55.5065C90.0349 56.7362 89.1657 56.8489 88.569 55.6141C87.7734 53.971 86.7686 52.7569 85.0238 52.0572C84.0758 51.6788 84.0848 50.488 85.0522 50.1057C86.8048 49.4125 87.8277 48.2281 88.5884 46.5475C89.123 45.3645 90.0981 45.4642 90.6367 46.6486C91.2657 48.0299 91.9011 49.3088 93.5542 49.7598C94.1561 49.9256 94.7437 50.3934 94.8819 51.0232Z" fill="#FFFAD9"/>
<path fill-rule="evenodd" clip-rule="evenodd" d="M240.207 136.23C240.223 136.523 240.113 136.666 239.951 136.778C239.721 136.939 239.508 137.181 239.255 137.238C238.09 137.491 237.727 138.458 237.268 139.356C236.828 140.213 236.223 140.291 235.807 139.431C235.252 138.285 234.55 137.439 233.335 136.951C232.674 136.688 232.68 135.857 233.353 135.59C234.577 135.108 235.289 134.281 235.821 133.11C236.193 132.285 236.872 132.356 237.248 133.18C237.687 134.144 238.13 135.034 239.281 135.349C239.702 135.466 240.11 135.79 240.207 136.23Z" fill="#F67E62"/>
<path fill-rule="evenodd" clip-rule="evenodd" d="M45.1886 118.089C45.2041 118.382 45.0943 118.525 44.9329 118.637C44.703 118.798 44.4899 119.04 44.2367 119.097C43.0718 119.35 42.7089 120.317 42.2491 121.215C41.81 122.073 41.2043 122.15 40.7884 121.29C40.2331 120.144 39.5318 119.298 38.3165 118.81C37.6552 118.547 37.6617 117.716 38.3345 117.449C39.5589 116.967 40.2705 116.141 40.8026 114.969C41.1746 114.144 41.8539 114.215 42.2297 115.039C42.6689 116.003 43.1118 116.893 44.2626 117.208C44.6836 117.325 45.0917 117.649 45.1886 118.089Z" fill="#B9E1F5"/>
<path fill-rule="evenodd" clip-rule="evenodd" d="M40.1464 12.5731C39.9664 11.0187 39.9033 9.62173 39.3246 8.31352C37.77 4.80406 34.9101 3.95986 31.5448 4.32073C28.7133 4.62356 27.1406 6.63809 26.2508 9.17961C25.7454 10.6257 25.4071 11.0677 23.9888 10.0366C21.7385 8.40371 19.2965 8.695 17.1143 10.2339C14.6929 11.9403 13.7491 14.4638 14.1503 17.4409C14.3123 18.6408 14.3882 19.8653 14.8936 20.9376C14.3355 21.3552 13.9921 20.9968 13.6423 20.8925C11.4383 20.2274 9.4914 20.8125 8.14119 22.5718C6.6804 24.4767 6.4335 27.303 7.42879 29.195C7.9663 30.2158 8.78543 30.0959 9.62771 30.0959C19.0818 30.0985 28.5371 30.0972 37.9911 30.0972C49.7804 30.0972 61.5711 30.1037 73.3615 30.0818C73.9878 30.0805 74.8532 30.4529 75.176 29.5779C75.486 28.7376 75.0486 27.9656 74.5048 27.3301C73.3924 26.0323 71.8622 25.4755 70.3075 25.1378C68.0481 24.6494 66.4742 23.4288 65.1998 21.4311C63.4909 18.7491 61.0502 16.8301 57.7788 17.4138C55.6301 17.7967 53.9609 18.1588 52.3716 16.0464C51.6502 15.0876 50.0311 14.92 48.708 15.6753C48.2091 15.9601 47.813 16.049 47.5944 15.2306C46.3946 10.7352 43.8421 9.77632 40.1464 12.5731Z" fill="#B9E1F5"/>
<path fill-rule="evenodd" clip-rule="evenodd" d="M252.636 184.884C252.76 183.819 252.803 182.86 253.199 181.964C254.265 179.557 256.224 178.978 258.529 179.226C260.469 179.433 261.548 180.813 262.157 182.557C262.503 183.55 262.734 183.853 263.707 183.145C265.249 182.026 266.921 182.225 268.417 183.281C270.075 184.45 270.722 186.181 270.447 188.225C270.336 189.046 270.285 189.886 269.937 190.622C270.321 190.908 270.556 190.662 270.796 190.591C272.306 190.136 273.639 190.535 274.565 191.741C275.566 193.05 275.733 194.987 275.053 196.286C274.685 196.985 274.123 196.903 273.546 196.903C267.069 196.904 260.59 196.903 254.114 196.903C246.035 196.903 237.958 196.908 229.878 196.893C229.45 196.892 228.857 197.147 228.636 196.547C228.424 195.971 228.724 195.442 229.096 195.007C229.858 194.117 230.906 193.733 231.972 193.502C233.52 193.168 234.599 192.33 235.471 190.96C236.642 189.121 238.314 187.805 240.555 188.205C242.028 188.468 243.171 188.716 244.261 187.267C244.754 186.61 245.863 186.495 246.77 187.013C247.114 187.208 247.385 187.268 247.533 186.707C248.356 183.625 250.105 182.968 252.636 184.884Z" fill="#B9E1F5"/>
<path fill-rule="evenodd" clip-rule="evenodd" d="M252.822 76.8072C261.738 76.7838 268.984 84.0188 269.006 92.9646C269.028 101.911 261.818 109.179 252.902 109.201C243.988 109.225 236.742 101.99 236.718 93.0439C236.698 84.0981 243.907 76.8293 252.822 76.8072Z" fill="#F67E62"/>
</g>
</svg>
