<svg width="48" height="48" viewBox="0 0 48 48" fill="none" xmlns="http://www.w3.org/2000/svg">
<path d="M44.822 6.53452H3.17798C1.61948 6.53452 0.357483 7.79752 0.357483 9.35702V33.1105C0.357483 34.6695 1.61948 35.9325 3.17798 35.9325H20.314V40.048H17.512C17.122 40.048 16.807 40.3635 16.807 40.7535C16.807 41.144 17.122 41.459 17.512 41.459H30.9885C31.3785 41.459 31.6935 41.144 31.6935 40.7535C31.6935 40.3635 31.3785 40.048 30.9885 40.048H28.189V35.9325H44.822C46.378 35.9325 47.6425 34.6695 47.6425 33.1105V9.35702C47.6425 7.79752 46.378 6.53452 44.822 6.53452Z" fill="white"/>
<path d="M44.822 6.53451V6.18201H3.17802C1.42702 6.18201 0.0045166 7.60251 0.0045166 9.35701V33.1105C0.0045166 34.8625 1.42702 36.285 3.17802 36.285H19.9615V39.6955H17.512C16.927 39.6955 16.4545 40.168 16.4545 40.7535C16.4545 41.3395 16.927 41.812 17.512 41.812H30.9885C31.5735 41.812 32.046 41.3395 32.046 40.7535C32.046 40.168 31.5735 39.6955 30.9885 39.6955H28.5415V36.285H44.822C46.573 36.285 47.9955 34.8625 47.9955 33.1105V9.35701C47.9955 7.60251 46.573 6.18201 44.822 6.18201V6.88751C45.5035 6.88751 46.1195 7.16251 46.566 7.61201C47.0125 8.05851 47.29 8.67501 47.29 9.35701V33.1105C47.29 33.7925 47.0125 34.4085 46.566 34.8555C46.1195 35.3045 45.5035 35.5795 44.822 35.5795H27.836V40.401H30.9885C31.1835 40.401 31.341 40.5585 31.341 40.7535C31.341 40.949 31.1835 41.1065 30.9885 41.1065H17.512C17.317 41.1065 17.1595 40.949 17.1595 40.7535C17.1595 40.5585 17.317 40.401 17.512 40.401H20.667V35.5795H3.17802C2.49652 35.5795 1.88052 35.3045 1.43402 34.8555C0.987517 34.4085 0.710017 33.7925 0.710017 33.1105V9.35701C0.710017 8.67501 0.987517 8.05851 1.43402 7.61201C1.88052 7.16251 2.49652 6.88751 3.17802 6.88751H44.822V6.53451Z" fill="#282E53"/>
<path d="M45.0145 32.287H2.46802V8.88651H45.0145V32.287Z" fill="white"/>
<path d="M45.0145 32.287V31.9345H2.82098V9.23951H44.662V32.287H45.0145V31.9345V32.287H45.3675V8.53351H2.11548V32.64H45.3675V32.287H45.0145Z" fill="#282E53"/>
<path d="M44.467 33.992C44.467 34.425 44.1165 34.7755 43.682 34.7755C43.2495 34.7755 42.899 34.425 42.899 33.992C42.899 33.5595 43.2495 33.209 43.682 33.209C44.1165 33.209 44.467 33.5595 44.467 33.992Z" fill="#282E53"/>
<path d="M41.7965 34.0605C41.7965 34.3075 41.597 34.5075 41.3525 34.5075C41.1055 34.5075 40.906 34.3075 40.906 34.0605C40.906 33.8135 41.1055 33.616 41.3525 33.616C41.597 33.616 41.7965 33.8135 41.7965 34.0605Z" fill="#282E53"/>
<path d="M40.6705 34.0605C40.6705 34.3075 40.471 34.5075 40.224 34.5075C39.9795 34.5075 39.78 34.3075 39.78 34.0605C39.78 33.8135 39.9795 33.616 40.224 33.616C40.471 33.616 40.6705 33.8135 40.6705 34.0605Z" fill="#282E53"/>
<path d="M38.3295 34.0605C38.3295 34.3075 38.1295 34.5075 37.885 34.5075C37.6385 34.5075 37.4385 34.3075 37.4385 34.0605C37.4385 33.8135 37.6385 33.616 37.885 33.616C38.1295 33.616 38.3295 33.8135 38.3295 34.0605Z" fill="#282E53"/>
<path d="M37.154 34.0605C37.154 34.3075 36.9545 34.5075 36.71 34.5075C36.463 34.5075 36.2635 34.3075 36.2635 34.0605C36.2635 33.8135 36.463 33.616 36.71 33.616C36.9545 33.616 37.154 33.8135 37.154 34.0605Z" fill="#282E53"/>
<path d="M44.079 31.4615H3.33551V9.82501H44.079V31.4615Z" fill="#282E53"/>
<path d="M42.5675 12.7765L41.3335 14.74L40.135 12.7765L41.3335 10.8125L42.5675 12.7765Z" fill="white"/>
<path d="M39.8715 15.3045L38.64 17.2685L37.4385 15.3045L38.64 13.341L39.8715 15.3045Z" fill="white"/>
<path d="M42.5675 17.6565L41.3335 19.62L40.135 17.6565L41.3335 15.6925L42.5675 17.6565Z" fill="white"/>
</svg>
