<svg width="577" height="602" viewBox="0 0 577 602" fill="none" xmlns="http://www.w3.org/2000/svg">
<g clip-path="url(#clip0_571_51)">
<path d="M214.467 2.26665C205.267 7.06665 202.867 18 209.267 26C215.533 33.8667 224.067 34.9333 232.867 28.9333C237.4 25.8666 237.4 25.8666 242.333 28.2666C247.4 30.8 255.533 38.8 259.933 45.6L262.333 49.2L255.133 56.4C249.4 62.1333 247.4 65.3333 245.533 71.3333C242.733 81.0667 243.533 91.8667 247.8 100.8C249.4 104.4 250.867 107.733 250.867 108.133C251 108.533 248.733 111.467 245.933 114.533L241 120.133L231.933 112.933C207.533 93.2 158.333 63.2 136.6 54.5333C121.4 48.4 99.6668 41.4667 87.0001 38.6667C75.5334 36.1333 68.4668 35.6 37.1334 35.0667L0.600098 34.4L1.53343 48.6667C2.06676 56.5333 3.4001 66.9333 4.46676 71.8667C5.66676 76.6667 6.73343 81.7333 7.0001 82.9333C7.8001 86.6667 17.0001 109.333 21.1334 117.6C27.4001 130 41.9334 150.667 51.5334 160.533C58.7334 168 74.4668 182.133 80.3334 186.4C87.0001 191.333 104.733 201.6 111.667 204.533C116.467 206.667 122.2 209.067 124.333 210.133C136.867 215.6 150.867 218 170.333 218C191.667 218 197.933 216.533 216.067 207.467C223.133 203.867 225 203.333 224.467 205.067C215.267 234.8 220.333 268.533 237.8 294.933C244.867 305.6 266.333 330.4 279.933 343.733L288.467 352L306.867 333.2C335.533 304 345.133 290 353.267 265.867C357.4 253.467 357.8 222.133 353.8 210.933C352.467 207.067 351.667 203.6 351.8 203.333C352.067 203.067 357.8 205.6 364.6 208.8C379.4 216 390.867 218.667 407.4 218.667C444.6 218.667 487.133 198.667 521.533 164.933C526.067 160.4 531.933 154 534.467 150.667C536.867 147.333 539.267 144.4 539.667 144C542.2 141.733 552.733 124 558.333 112.667C568.867 90.8 574.2 70 576.067 43.4667L576.733 34.4L539.8 35.0667C519.533 35.4667 500.067 36.4 496.333 37.2C465 44.4 449 50.1333 421.667 63.7333C405.133 72 393.933 78 389 81.3333C387.133 82.5333 381.533 86.2667 376.333 89.4667C371.267 92.6667 366.733 95.6 366.333 96C365.933 96.4 361.533 99.8667 356.333 103.733C351.267 107.733 344.733 112.933 342.067 115.467C337.133 120 334.333 121.2 334.333 118.8C334.333 118.133 332.2 115.333 329.667 112.533C325.267 108 325.133 107.467 327.133 105.2C330.333 101.733 333 91.2 333 82.1333C333 71.8667 328.867 62.8 321 55.0667C315.4 49.7333 315.267 49.3333 317 46C320.6 39.3333 327.4 32.5333 334.333 28.8L341.267 25.0666L344.867 28.5333C355.4 38.6667 372.733 29.7333 371.267 14.9333C370.2 4.79998 360.6 -1.86669 350.867 0.533315C348.867 1.06665 345 3.86665 342.067 6.79998C339.267 9.59998 335.933 12 334.867 12C333.667 12 329.133 13.8666 324.733 16.2666C316.333 20.8 306.733 30.2666 303.133 37.8667L301 42.5333L289.133 42.9333L277.267 43.3333L274.733 38.6667C269 27.6 255 15.7333 243.267 12C240.467 11.0666 236.2 8.39998 233.933 5.86665C228.467 0.133315 221.133 -1.20002 214.467 2.26665ZM294.733 58.5333C301.267 60.1333 301.4 60.2667 300.333 65.3333C299.533 69.2 299.133 69.4667 293.933 69.0667C285.267 68.6667 280.467 70.4 275 76C271.133 79.8667 269.667 82.9333 268.333 88.9333L266.733 96.6667L264.467 91.7333C261.533 84.9333 261.8 78.9333 265.4 72C268.733 65.4667 272.733 62.1333 280.467 59.3333C286.6 57.0667 288.067 57.0667 294.733 58.5333ZM71.0001 63.2C87.4001 65.7333 92.8668 67.2 108.333 72.5333C135.4 81.8667 155.8 91.8667 185.667 110.4C200.333 119.467 224.067 136.133 223.267 136.8C223.133 136.933 220.333 136.533 217 135.867C210.067 134.533 164.733 130.667 155.4 130.667C151.8 130.667 149 131.2 149 132C149 133.467 162.067 140.267 171.933 143.867C182.867 147.867 192.333 149.333 208.6 149.6C216.867 149.733 223.267 150.267 222.867 150.933C222.467 151.467 221.533 152 220.867 152C215.667 152 187.8 168 185 172.4C183.533 174.8 183.8 174.933 189.267 174C199.933 172.267 212.333 168.933 217.4 166.4C220.333 164.933 222.867 164.133 223.133 164.4C224.2 165.333 207.933 179.733 200.467 184.533C188.467 192.133 179.267 194.933 163.4 195.733C145.133 196.533 143.933 196 148.867 190.533C151 188.267 154.2 185.333 156.067 184.133C160.467 181.333 177.267 165.2 176.6 164.533C176.333 164.267 171.667 165.467 166.333 167.333C155.667 170.933 135.133 174.667 125.8 174.667C117.4 174.667 101.933 171.2 95.4001 167.867C90.0668 165.2 89.9334 164.933 92.4668 163.067C100.867 156.667 119 150.533 137 148C151.8 145.867 153 145.467 150.2 143.867C147.133 142.267 132.067 139.2 117 137.333C91.8001 134.133 75.4001 130 62.4668 123.333C55.6668 119.867 45.0001 111.2 45.0001 109.2C45.0001 108.533 47.2668 108 50.0668 108.133C52.7334 108.267 62.4668 107.867 71.6668 107.333C87.0001 106.4 116.467 107.867 127.4 110.133C129.8 110.667 131.667 110.4 131.667 109.733C131.667 106.667 108.067 97.2 77.4001 88C52.2001 80.2667 38.2001 74.1333 31.5334 67.7333L27.0001 63.4667L31.0001 62.5333C38.0668 60.9333 58.6001 61.3333 71.0001 63.2ZM545.4 62.5333L549.267 63.3333L544.467 68.1333C538.333 74.2667 529.133 78.6667 511.667 84C482.733 92.6667 467.933 97.7333 456.733 102.933C444.733 108.533 441.4 111.733 449.4 110.133C461.533 107.6 485 106.4 506.333 107.333C519.133 107.733 530.067 108.667 530.733 109.2C533.8 112.133 513.4 124.933 498.067 129.733C486.733 133.2 482.467 134 452.333 138.8C433.533 141.6 426.333 143.467 426.333 145.467C426.333 146.133 428.333 146.667 430.733 146.667C435.667 146.667 453.8 149.867 461.667 152.133C464.6 152.933 471.667 156 477.533 159.067C487.133 164 487.8 164.667 485.533 166.267C481.4 169.333 466.333 173.333 456.333 174.133C445 175.2 424.333 172.133 410.6 167.467C405.267 165.6 401 164.667 401 165.333C401 166.533 420.467 184.267 428.333 190L433.667 194L429.667 194.8C422.067 196.4 405.533 196 397.667 194C387 191.2 371.667 182.4 362.067 173.467C354.067 166 352.067 162.667 357.267 165.467C365.133 169.733 391.667 175.2 391.667 172.533C391.667 170.267 378.6 161.867 367.667 156.933C350.6 149.333 350.333 150.133 371 149.2C390.867 148.267 398.867 146.667 414.6 140C425.267 135.467 429.933 132.533 428.6 131.2C427.267 129.733 373.8 133.333 362.333 135.467C349.933 137.733 350.333 137.867 354.333 134.667C374.467 118.4 422.867 90.5333 449.667 79.6C463.8 73.8667 492.067 65.3333 503 63.4667C514.067 61.6 538.867 61.0667 545.4 62.5333ZM295.4 118.267L295.8 124H290.467C271.8 124 257.133 139.467 258.733 157.333C259.533 166 261.667 170.933 267.533 176.8C274.333 183.733 279.8 185.6 292.2 185.333C306.467 184.933 305.4 184.533 309 190.933C310.733 194.133 313.267 198.267 314.733 200.267C316.2 202.133 317 204.267 316.6 204.933C313.933 209.2 283.667 211.2 270.067 208C261.4 206 243.667 197.733 243.667 195.733C243.667 194.933 245.8 191.067 248.333 187.2L253 180.133L250.467 175.733C245.533 167.333 243.267 156.667 244.867 149.333C247.8 135.733 258.467 121.2 268.733 117.067C276.333 114 284.6 112.133 289.667 112.4C295 112.667 295 112.667 295.4 118.267ZM249 227.467C263.533 233.467 269.933 234.667 288.467 234.667C301.267 234.667 308.333 234 315.4 232.133L325 229.6V238.533C325 243.333 324.2 248.8 323.267 250.667C320.6 255.867 312.333 257.6 290.333 257.733C269.933 257.733 257.533 255.6 243.4 249.467C238.067 247.2 237 246.133 236.2 242C235 235.467 236.733 222.267 238.733 223.067C239.667 223.467 244.2 225.467 249 227.467ZM253.667 279.467C267.933 283.067 279.133 284.267 294.6 283.733C304.067 283.467 311.667 283.733 311.667 284.4C311.667 286.933 304.867 296.933 299.8 301.867L294.467 307.067L284.067 306.267C267 304.933 261.133 302.533 255.267 294.667C252.6 290.8 249 285.333 247.533 282.4L244.733 276.933L247.933 277.867C249.533 278.4 252.2 279.067 253.667 279.467Z" fill="black"/>
<path d="M184.333 51.4666C182.467 53.4666 181 56.1333 181 57.3333C181 58.9333 186.067 62.9333 195.8 68.8C203.933 73.8666 214.067 80.8 218.333 84.2666C222.6 87.8666 226.467 90.6666 226.867 90.6666C231.133 90.6666 216.067 64.8 205.133 53.3333C200.6 48.5333 199.4 48 193.8 48C188.733 48 186.867 48.6666 184.333 51.4666Z" fill="black"/>
<path d="M374.6 49.9999C371.267 52.3999 355.667 74.2666 352.2 81.5999C349.8 86.7999 350.467 89.4666 353.667 87.3332C354.6 86.5332 360.067 82.6666 365.933 78.5332C371.667 74.3999 377 70.7999 377.667 70.5332C383.267 68.2666 397 59.4666 397 58.1332C397 56.3999 393.133 50.5332 391.133 49.0666C388.6 47.1999 377.667 47.9999 374.6 49.9999Z" fill="black"/>
<path d="M43.9333 190.933C39.2667 200.8 33 218 33 220.8C33 222.4 38.6 222.667 69.6667 222.667C89.8 222.667 106.333 222.267 106.333 221.6C106.333 221.067 102.6 219.2 98.0667 217.333C87 212.933 68.8667 200.933 58.0667 190.8C53.2667 186.4 49 182.667 48.6 182.667C48.2 182.667 46.0667 186.4 43.9333 190.933Z" fill="black"/>
<path d="M522.2 187.467C514.6 195.467 495.667 208.933 483.933 214.8C477.8 217.867 472.6 220.933 472.2 221.6C471.8 222.133 487.4 222.667 506.867 222.667C526.333 222.667 542.467 222.267 542.733 221.6C543.8 220 537.667 202.533 532.467 192.267C529.8 186.933 527.4 182.667 527.267 182.667C527 182.667 524.733 184.8 522.2 187.467Z" fill="black"/>
<path d="M26.3335 248C25.6668 251.333 24.8668 257.6 24.6002 262L24.3335 270L114.2 270.4C163.667 270.533 204.6 270.267 205.133 269.733C205.667 269.067 205.267 265.333 204.2 261.333C203.133 257.333 202.333 251.467 202.333 248.4C202.333 244.8 201.667 242.533 200.733 242.4C199.8 242.133 160.467 242 113.4 242H27.8002L26.3335 248Z" fill="black"/>
<path d="M375.267 242.133C374.734 242.667 374.334 245.867 374.334 249.2C374.334 252.533 373.534 258.4 372.467 262.267C371.4 266 371 269.467 371.4 269.867C371.8 270.267 412.467 270.667 461.934 270.667C542.867 270.667 551.8 270.4 552.6 268.533C553.267 266.533 550.867 250.4 549.134 245.067C548.334 242.933 541.667 242.8 462.2 242C414.867 241.6 375.8 241.733 375.267 242.133Z" fill="black"/>
<path d="M21.9333 290.267C21.4 290.667 21 298.533 21 307.6V324H128.333C187.4 324 235.667 323.6 235.667 322.933C235.667 322.4 233.133 318.933 229.933 315.333C226.733 311.6 221.533 304.267 218.467 298.933L212.867 289.333H117.8C65.5333 289.333 22.3333 289.733 21.9333 290.267Z" fill="black"/>
<path d="M360.2 296.267C356.333 304 348.2 315.333 343.8 319.2C342.333 320.667 341 322.267 341 322.933C341 323.467 389.267 324 448.333 324H555.667V306.667V289.333H459.667H363.667L360.2 296.267Z" fill="black"/>
<path d="M63.4002 344.933C40.7335 345.2 22.3335 345.867 22.3335 346.4C22.3335 347.467 25.8002 369.2 27.0002 376L27.9335 380.667L67.1335 380.8H106.334V373.867V366.933L119.4 365.867C126.467 365.333 164.6 365.333 204.067 365.867C243.4 366.4 275.667 366.533 275.667 366.133C275.667 365.867 271 360.933 265.4 355.333L255 345.067L179.667 344.8C138.2 344.667 85.9335 344.667 63.4002 344.933Z" fill="black"/>
<path d="M351.667 345.067L321.667 345.333L312.733 354.267C307.667 359.2 303.667 363.867 303.667 364.667C303.667 365.6 325.933 365.867 372.067 365.733C409.533 365.6 447.133 365.867 455.4 366.267L470.467 367.067L470.067 373.867L469.667 380.667L509.133 380.8H548.733L550.867 369.467C552.067 363.2 553.267 354.933 553.8 351.333L554.6 344.667H468.067C420.6 344.667 368.2 344.8 351.667 345.067Z" fill="black"/>
<path d="M126.733 409.6C127.4 429.733 128.2 436.4 131 447.733C137.933 474.933 152.467 503.2 167.933 519.333C170.733 522.267 173 525.067 173 525.6C173 526.133 178.6 531.2 185.4 536.8C192.067 542.4 197.933 547.2 198.2 547.467C198.467 547.733 193 548 185.8 548H173L160.467 535.6C140.867 516.267 127.533 494.533 118.333 467.067C115.533 458.667 113 451.467 112.6 451.067C111.8 450.4 56.7335 450.533 55.9335 451.2C54.7335 452.533 64.0668 467.2 78.2001 486.133C92.0668 504.667 122.333 531.067 143.4 543.067L151 547.333L111.4 547.733C89.5335 547.867 71.6668 548.4 71.6668 548.933C71.6668 550.933 83.2668 564.667 91.9335 572.8C107 586.933 128.733 596.4 154.2 600C165.8 601.6 399.533 601.6 420.333 600C442.733 598.133 467.133 588.667 482.333 575.867C489.4 569.867 502.6 554.4 504.067 550.4C504.867 548.133 502.2 548 465.933 547.733L427 547.333L435 542.8C457.8 529.733 489 501.733 504.067 480.4C519.267 459.067 533.533 431.2 540.467 409.333C542.2 403.867 543.667 399.2 543.667 399.067C543.667 398.8 532.6 398.667 519 398.667C505.4 398.667 494.333 398.933 494.333 399.333C494.333 399.733 496.733 402.267 499.8 404.933C506.733 411.2 512.467 422.533 513.667 432.4L514.6 440H507.267C500.067 440 499.8 439.867 499 435.6C496.867 425.867 488.6 414.267 479.667 408.667C474.333 405.333 464.333 401.867 456.067 400.667L450.467 399.733L450.067 392.933L449.667 386L287.8 385.6L125.933 385.333L126.733 409.6ZM375 416.933C373.8 426.667 367.667 445.333 362.2 456.267C357.267 466 345.4 480.933 335.667 489.733C314.867 508.533 287.4 519.467 258.067 520.933C249.4 521.333 242.333 522.133 242.333 522.667C242.333 527.333 285.667 528.933 302.333 524.933C307.133 523.867 311.133 523.067 311.267 523.2C311.4 523.333 311.8 525.467 311.933 528L312.333 532.533L302.333 535.6C288.867 539.867 273.133 541.733 253.8 541.067C238.067 540.667 237.4 540.533 226.333 535.067C184.467 514.667 155.267 470.4 152.2 422.667L151.267 409.333H263.667H375.933L375 416.933ZM459.133 426.133C465.667 428.8 469.933 432.667 473.133 438.933C476.6 445.867 476.333 446.667 470.733 446.667C467.933 446.667 465 447.2 464.333 447.733C463.533 448.267 461.667 452.8 459.933 458C458.333 463.067 456.467 468 455.933 468.933C454.867 470.533 439.667 472.4 439.667 470.933C439.667 470.4 440.6 467.333 441.8 464C445 454.8 447.267 445.467 448.333 436.667C449.267 428.4 450.867 424 452.867 424C453.533 424 456.333 424.933 459.133 426.133ZM398.733 567.333C398.6 568 394.067 570.933 388.733 573.6L379 578.533L259 578.667C179.267 578.667 137.267 578.133 133.933 577.2C129 575.867 119.667 568.933 119.667 566.533C119.667 565.867 177.133 565.467 259.4 565.6C351.533 565.867 398.867 566.4 398.733 567.333Z" fill="black"/>
<path d="M187.8 442.133C181.934 449.6 185.534 459.467 194.6 460.8C201.134 461.867 206.334 457.067 206.334 450C206.334 439.867 193.8 434.533 187.8 442.133Z" fill="black"/>
<path d="M237.533 440C231.133 442.533 230.2 455.2 236.067 459.333C246.867 466.933 259.133 451.333 249.667 442C246.333 438.533 242.467 438 237.533 440Z" fill="black"/>
<path d="M281.8 441.467C277 445.2 276.867 453.333 281.667 458C287.534 464 297.534 460.8 299.134 452.533C301.134 441.6 290.467 434.667 281.8 441.467Z" fill="black"/>
<path d="M328.333 442C326.067 444.133 325 446.667 325 450C325 455.467 329.8 461.333 334.333 461.333C343 461.333 348.6 453.467 345.533 445.733C342.333 438.133 333.933 436.267 328.333 442Z" fill="black"/>
<path d="M34.4669 402.933C37.8002 413.467 38.7335 415.867 42.7335 424L47.0002 432.667L78.0669 432.8C95.1335 432.933 109.267 432.667 109.4 432.133C109.667 431.733 109.267 424 108.6 414.933L107.267 398.667H70.2002H33.1335L34.4669 402.933Z" fill="black"/>
</g>
<defs>
<clipPath id="clip0_571_51">
<rect width="577" height="602" fill="white"/>
</clipPath>
</defs>
</svg>
