<svg id="Layer_1" enable-background="new 0 0 68 68" height="512" viewBox="0 0 68 68" width="512" xmlns="http://www.w3.org/2000/svg"><g id="_x31_0"><path d="m19.1794434 31.3886375c-2.8757248-.1274662-5.738245.1542301-8.5561523.0322266-.38622-.0428181-.801899.3113022-.7822266.78125.0558834 1.2635269-.1179743 2.9643898-.059082 4.3310547.0175781.4013672.3476563.7177734.7490234.7177734 2.3095703.0009766 5.8364258.0292969 8.5097656.0898438h.0170898c.4373474 0 .7827644-.373024.7475586-.8095703-.0859375-1.0849609-.1054688-3.171875.0805664-4.2675781.0756378-.445654-.2561798-.856577-.7065429-.8750001zm-.9150391 4.4355469c-2.269043-.0439453-4.9570313-.0673828-6.9946289-.0722656.0069323-.9170799.0747232-1.87006.0825195-2.8076172 2.3285751.0478935 4.6366987-.1255951 6.9545898-.0820313-.0751952.9365235-.0761718 2.0712891-.0424804 2.9619141z"/><path d="m19.0012207 41.3642235c-2.8816223-.1279411-5.7096176.1553001-8.5561523.0322266-.379508-.0452614-.8020115.3086205-.7822266.78125.0557795 1.2630768-.1177225 2.9702225-.059082 4.3310547.0175781.4013672.3476563.7177734.7490234.7177734 2.3291016.0019531 5.8637695.0302734 8.5097656.0908203h.0170898c.4373474 0 .7827644-.373024.7475586-.8095703-.0859375-1.0839844-.1054688-3.1708984.0805664-4.2695313.0758515-.4448585-.2571639-.8556404-.7065429-.8740234zm-.9150391 4.4365234c-2.253418-.0439453-4.9448242-.0673828-6.9946289-.0732422.0069008-.9128838.0747271-1.8685722.0825195-2.8076172 2.2861576.0487213 4.6902676-.1266212 6.9545898-.0820313-.0751952.9375001-.0761718 2.0722657-.0424804 2.9628907z"/><path d="m19.0012207 52.8544579c-2.8213387-.1271629-5.7085009.1533623-8.5561523.0322266-.3898821-.0393448-.8018036.3135681-.7822266.78125.0557795 1.2630768-.1177225 2.971199-.059082 4.3320313.0175781.4013672.3476563.7177734.7490234.7177734 2.3095703.0009766 5.8364258.0292969 8.5097656.0898438h.0170898c.4373474 0 .7827644-.373024.7475586-.8095703-.0859375-1.0839844-.1054688-3.1708984.0805664-4.2695313.0758515-.4448587-.2571639-.8556405-.7065429-.8740235zm-.9150391 4.4365234c-2.269043-.0439453-4.9570313-.0673828-6.9946289-.0722656.0068846-.9107246.0747423-1.8714218.0825195-2.8085938 2.3745346.046711 4.6507797-.1254234 6.9545898-.0820313-.0751952.9375001-.0761718 2.0722657-.0424804 2.9628907z"/><path d="m3.3361816 63.5868797c-.4140625 0-.75.3359375-.75.7499962 0 .4140625.3359375.75.75.75h61.3276367c.4140625 0 .75-.3359375.75-.75 0-.4140587-.3359375-.7499962-.75-.7499962h-2.5261841c.1635742-.1394043.272522-.3398438.2703247-.5712891-.1314735-13.2350807-.4367332-27.4191742-.5678711-40.6533203-.0014648-.1386719-.0415039-.2744141-.1157227-.3925781-.8795242-1.3938522-2.0667-2.6895981-2.90625-4.0185547-.1854935-.2925549-.7145233-.4589844-.8691406-.4589844-.0019531 0-.003418 0-.0053711 0-4.494873.0324707-9.1331177.1376953-13.1966553.2420654-.0089111-3.4456787-.0170288-6.9654541-.0236206-10.6092529-.0020752-1.1317139-.2159424-2.5151367-1.0435791-3.121582-.0004272-.1159668-.0008545-.2280273-.0012817-.3442383-.0009766-.2607422-.137207-.5019531-.3598633-.6376953-.2231445-.1337891-.5004883-.1445313-.7319336-.0273438l-18.4082031 9.4238281c-.2514648.1289063-.4091797.3886719-.4082031.6708984.0188599 5.0581055.0376587 9.3430176.0563354 13.2233887-.5997314.0029297-1.2125854.0092773-1.8185425.0140381v-2.8009033c0-.4140625-.3359375-.75-.75-.75h-2.7910155v-6.7197266c0-.4140625-.3359375-.75-.75-.75s-.75.3359375-.75.75v6.7197266h-3.9833984v-2.8632812c0-.4140625-.3359375-.75-.75-.75s-.75.3359375-.75.75v2.8632813h-2.3261719c-.4140625 0-.75.3359375-.75.75v2.9898682c-.119607.0021057.4263086-.007349-2.1416016.0374756-.4140625.0078125-.7441406.3486328-.7368164.7636719.0025635.1447754.0567017.2713623.1299438.3847656l-.1325683 35.8857421zm53.862793-44.5888672c0 37.0067978.1392517 44.3926888.2158203 44.5888672h-12.5376587c-.0300293-15.8029785-.0861206-29.4047852-.1262207-44.3520508 3.8375244-.0996093 8.1898804-.1989746 12.4480591-.2368164zm-15.0161133-14.1113281c.0814018 21.8794899.155529 37.3672714.234375 58.7001953h-16.9077148c-.0799637-21.2218246-.1590748-29.0558548-.2373047-50.0429688zm-32.2753906 19.3886719h10.6005859v2.0332031h-10.6005859zm-2.7496948 3.7619629c5.6466675-.0993652 11.0097046-.1925049 16.1378784-.2229004 0 12.5689697.0037231 24.4580078.1851807 35.7724609h-16.4544068z"/><path d="m48.0300293 26.3652c.4140625 0 .75-.3359375.75-.75v-1.961914c0-.4140625-.3359375-.75-.75-.75s-.75.3359375-.75.75v1.961914c0 .4140625.3359375.75.75.75z"/><path d="m53.8195801 26.1864891c.4140625 0 .75-.3359375.75-.75v-1.8720703c0-.4140625-.3359375-.75-.75-.75s-.75.3359375-.75.75v1.8720703c0 .4140625.3359375.75.75.75z"/><path d="m48.0300293 34.0234032c.4140625 0 .75-.3359375.75-.75v-1.9619141c0-.4140625-.3359375-.75-.75-.75s-.75.3359375-.75.75v1.9619141c0 .4140625.3359375.75.75.75z"/><path d="m53.8195801 33.8446922c.4140625 0 .75-.3359375.75-.75v-1.8720703c0-.4140625-.3359375-.75-.75-.75s-.75.3359375-.75.75v1.8720703c0 .4140625.3359375.75.75.75z"/><path d="m48.2077637 38.2216454c-.4140625 0-.75.3359375-.75.75v1.9619141c0 .4140625.3359375.75.75.75s.75-.3359375.75-.75v-1.9619141c0-.4140625-.3359375-.75-.75-.75z"/><path d="m53.9978027 38.1327782c-.4140625 0-.75.3359375-.75.75v1.8720703c0 .4140625.3359375.75.75.75s.75-.3359375.75-.75v-1.8720703c0-.4140625-.3359375-.75-.75-.75z"/><path d="m48.0300293 48.9872704c.4140625 0 .75-.3359375.75-.75v-1.9619141c0-.4140625-.3359375-.75-.75-.75s-.75.3359375-.75.75v1.9619141c0 .4140625.3359375.75.75.75z"/><path d="m53.8195801 48.809536c.4140625 0 .75-.3359375.75-.75v-1.8730469c0-.4140625-.3359375-.75-.75-.75s-.75.3359375-.75.75v1.8730469c0 .4140625.3359375.75.75.75z"/><path d="m48.2077637 53.630825c-.4140625 0-.75.3359375-.75.75v1.9619141c0 .4140625.3359375.75.75.75s.75-.3359375.75-.75v-1.9619141c0-.4140625-.3359375-.75-.75-.75z"/><path d="m53.9978027 53.5419579c-.4140625 0-.75.3359375-.75.75v1.8730469c0 .4140625.3359375.75.75.75s.75-.3359375.75-.75v-1.8730469c0-.4140625-.3359375-.75-.75-.75z"/><path d="m30.1560059 23.193325c2.3095703.0009766 5.8364258.0292969 8.5097656.0898438h.0170898c.4373474 0 .7827644-.3730259.7475586-.8095703-.0859375-1.0849609-.1054688-3.171875.0805664-4.2685547.0756378-.4456539-.2561798-.8565769-.706543-.875-2.8615685-.1270103-5.7293587.1544876-8.5561523.0322266-.3818703-.0444031-.8018894.3115234-.7822266.78125.0552521 1.2707882-.1177635 2.9683876-.059082 4.3320313.0175781.4013671.3476563.7177733.7490235.7177733zm.8208007-4.3076171c2.3145065.045475 4.7792625-.1267014 6.9550781-.0820313-.0751953.9365234-.0761719 2.0722656-.0429688 2.9628906-2.2685547-.0439453-4.956543-.0673828-6.9941406-.0722656.0070249-.9312916.0752126-1.8715877.0820313-2.8085937z"/><path d="m29.9777832 33.168911c2.3095703.0009766 5.8364258.0292969 8.5097656.0898438h.0170898c.4373474 0 .7827644-.373024.7475586-.8095703-.0859375-1.0839844-.1054688-3.1708984.0805664-4.2675781.0756378-.4456539-.2561798-.8565769-.706543-.875-2.8572159-.1248112-5.7546692.1535206-8.5561523.0322266-.4268761-.0314159-.8007584.3385582-.7822266.78125.0557804 1.2630768-.1177235 2.9702225-.059082 4.3310547.0175782.401367.3476563.7177733.7490235.7177733zm.8212891-4.3066406c2.2953835.0489788 4.6480827-.125494 6.9545898-.0820313-.0751953.9365234-.0761719 2.0712891-.0429688 2.9619141-2.2685547-.0439453-4.956543-.0673828-6.9941406-.0722656.0069008-.9128838.0747261-1.8685723.0825196-2.8076172z"/><path d="m29.9777832 42.52145c2.3095703.0009766 5.8364258.0292969 8.5097656.0898438h.0170898c.4373474 0 .7827644-.373024.7475586-.8095703-.0859375-1.0839844-.1054688-3.1708984.0805664-4.2675781.0756378-.445652-.2561798-.856575-.706543-.875-2.8883438-.1282425-5.7047157.1556816-8.5561523.0322266-.3676224-.0534439-.8022537.3028221-.7822266.78125.0557804 1.2630768-.1177235 2.9702225-.059082 4.3310547.0175782.4013671.3476563.7177733.7490235.7177733zm.8212891-4.3066406c2.3421974.0480537 4.6776237-.1268883 6.9545898-.0820313-.0751953.9365234-.0761719 2.0712891-.0429688 2.9619141-2.2685547-.0439453-4.956543-.0673828-6.9941406-.0722656.0069008-.9128838.0747261-1.8685722.0825196-2.8076172z"/><path d="m29.9777832 51.4384422c2.3095703.0009766 5.8364258.0292969 8.5097656.0898438h.0170898c.4373474 0 .7827644-.373024.7475586-.8095703-.0859375-1.0849609-.1054688-3.171875.0805664-4.2675781.0758209-.4446869-.2571602-.856617-.706543-.875-2.8515358-.1282654-5.7186165.1550789-8.5561523.0322266-.4108505-.0361977-.8012314.3272667-.7822266.78125.0558834 1.2635269-.1179733 2.9643898-.059082 4.3310547.0175782.4013671.3476563.7177733.7490235.7177733zm.8212891-4.3066406c2.3305664.0478935 4.6368904-.1256294 6.9545898-.0820313-.0751953.9365234-.0761719 2.0712891-.0429688 2.9619141-2.2685547-.0439453-4.956543-.0673828-6.9941406-.0722656.0069332-.9170799.0747223-1.87006.0825196-2.8076172z"/><path d="m29.9777832 60.3544579c2.3208008.0009766 5.8520508.0292969 8.5097656.0908203h.0170898c.4373474 0 .7827644-.373024.7475586-.8095703-.0859375-1.0849609-.1054688-3.171875.0805664-4.2685547.0756378-.445652-.2561798-.856575-.706543-.875-2.8540001-.1266327-5.7026787.1536102-8.5561523.0322266-.3776894-.0451508-.8020916.3066826-.7822266.78125.0557804 1.2630768-.1177235 2.9702225-.059082 4.3310547.0175782.4013671.3476563.7177734.7490235.7177734zm.8212891-4.3066407c2.3009758.048996 4.6496773-.1254463 6.9545898-.0820313-.0751953.9365234-.0761719 2.0712891-.0429688 2.9628906-2.2597656-.0449219-4.9492188-.0673828-6.9941406-.0732422.0069008-.9128836.0747261-1.8685721.0825196-2.8076171z"/></g></svg>