<svg id="Layer_1" enable-background="new 0 0 72 72" height="512" viewBox="0 0 72 72" width="512" xmlns="http://www.w3.org/2000/svg">
<g id="_x39_">
<path d="m24.0643883 50.3441963c.6748047.5166016 4.1513672 3.15625 6.3100586 4.3427734.0668945.0371094.1362305.0625.2070313.0771484.2778778.1618004.6506767.1318779.902832-.1152344 3.9460716-3.8934097 10.2500839-7.4702988 11.4624023-13.8203125 1.1984406-6.2797394-4.0358734-9.8599453-8.597168-7.2851563-1.1318359.6386719-2.0917969 1.5273438-2.8066406 2.5820313-1.9317513-3.6223984-6.7318306-3.6076775-9.6826172-1.3710938-4.3724155 3.319298-4.5379028 10.4293825 2.2041016 15.5898439zm-3.612793-10.9052734c.4467773-1.4882813 1.2255859-2.6621094 2.3154297-3.4892578 1.3935986-1.0568047 3.6381054-1.5280914 5.2265625-1.0146484 1.3789063.4462891 2.4658203 1.7617188 2.6435547 3.2001953.0948524.772049 1.1650143.9032097 1.4443359.1767578.5576172-1.4541016 1.625-2.6835938 3.0053711-3.4619141 3.5186958-1.9829941 7.330555.7565002 6.3862305 5.6972656-1.0616341 5.5596313-6.7837067 8.9710922-10.6611328 12.6640625-1.6113281-.9316406-4.034668-2.6787109-5.8354492-4.0585938-4.2318497-3.2385368-5.2561665-7.2789192-4.5249024-9.7138671z"/>
<path d="m31.8734703 12.4076719c.1318359.2617188.3959961.4121094.6699219.4121094.5526924 0 .9223251-.5864334.6689453-1.0878906-.4501953-.8916016-.0288086-2.0839844.3969727-3.2890625.2646484-.75 1.0703125-3.0302734-.2441406-4.5576172-.269043-.3125-.7421875-.3496094-1.0576172-.0791016-.3139648.2705081-.3496094.7441409-.0791016 1.0576174.5029297.5849609.4921875 1.5917969-.0517578 3.1308594-.4643555 1.3144529-1.0424805 2.9501951-.3032227 4.4130857z"/>
<path d="m50.4503136 53.6081123c1.1634521-.1593018 3.1427612-1.6998901 3.7299805-2.2576294 4.3260612-4.1088142 5.862236-8.9350319 5.8666382-14.9350586.0022583-3.003418-.4412842-6.16675-1.9276733-8.7130756-.3291016-1.0317383-.7422485-1.9800415-1.2540894-2.720459-1.598999-2.3046265-4.2512817-4.1417847-7.0595093-4.9494019-.0292969-.1762695-.0597534-.2859497-.0908813-.3573608-.0289001-2.2910309-5.4720154-3.4053917-7.7797241-3.80194 1.3195305-2.1655531 2.7292328-5.627284 1.7650757-8.0426636-.6020508-1.5097656-2.3803711-2.7353516-4.0673828-2.1435547-1.9634399.6824737-2.5000153 3.2434492-.9555664 4.65625.3056641.2802734.7802734.2597656 1.0595703-.0478516.2792969-.3056641.2583008-.7802734-.0478516-1.0595703-.7023087-.6418018-.4631004-1.8190722.4370117-2.1328125.8388672-.2919922 1.84375.4365234 2.1806641 1.2832031.8053322 2.0150614-.7831726 5.4351845-1.991333 7.239624-3.6001778-.4870682-8.189167-.7423038-12.8479614-.5457153 1.6903685-7.4586428-2.2554838-10.9663886-5.5718385-10.2974242-1.5888672.3242188-2.8076172 1.7167969-2.8349609 3.2402344-.0284367 1.6688585 1.5223446 3.1908541 3.1821289 2.953125.4101563-.0576172.6958008-.4375.6376953-.8476563-.0585938-.4101563-.440918-.7070313-.8476563-.6367188-.7368565.0993252-1.4853973-.6845417-1.472168-1.4423828.0141602-.8095703.7475586-1.6152344 1.6347656-1.7958984 2.230196-.4618459 5.3871517 2.2036543 3.7177734 8.9067383-3.1102657.1905384-13.9599609 1.0963926-13.9599609 4.2260733 0 .2746582.088562.5354004.2456055.7842407.0004673.1046867.004468 37.8956451.0004883 38.015564-.1204224 3.6261597 4.6468506 5.7944946 9.0437622 6.968502 7.1595631 2.9608841 15.6922569 3.3682327 23.484314 3.1826172 2.5437622-.0606079 5.1669312-.2044067 7.4429932-1.1245728 2.276001-.920166 4.135437-2.8063354 3.9650879-4.8587608-.2054443-2.474514-3.7086029-3.9086914-6.1264038-4.4820557.3858642-1.2531719.3918571-1.5208453.4414062-4.2636089zm-24.9993897-36.8089618c-.1834717.5883789-.3754883 1.1682129-.56427 1.7296143-.1626663.4843845.1965599.9892578.7109375.9892578.3134766 0 .6054688-.1972656.7109375-.5107422.2422485-.720459.498291-1.4902344.7341919-2.2903442 3.9690304-.1680603 8.1513863-.1108055 12.1745605.3552856-.4169312.4822388-.8637085.9405518-1.3428345 1.3676758-.309082.2753906-.3364258.7490234-.0610352 1.0585938.2758369.3085041.7497139.3371849 1.059082.0605469.7700806-.6862793 1.4645386-1.4451904 2.0864868-2.2572021 1.6370239.2460327 3.0079956.5366211 4.0992432.8381348 1.5657349.4880981 2.3596802.9799805 2.3596802 1.3077393 0 .8789063-5.6943359 2.9375-16.7368164 2.9375-11.0419922 0-16.7363281-2.0585938-16.7363281-2.9375 0-.4367065 1.4087524-1.1646729 4.1776123-1.7868042 1.8967896-.364136 4.3519898-.6793826 7.3285523-.8617556zm25.0330811 33.8513202c.0070801-1.0554199.0108032-2.201416.0106812-3.4263306 5.7721329-4.5168648 5.5234528-14.5445404 2.5542603-21.3115864 1.5792046.8093414 3.4214172 2.8095264 4.0046997 4.9404297 2.2027053 8.0432111-1.5051652 17.2298947-6.5696412 19.7974873zm.7075195-25.3194599c.006897.0932617.0291748.1868896.0730591.2758789 2.8724861 5.833559 3.6597557 14.8648624-.7736206 19.5665302-.0205688-6.609314-.1338501-14.5968647-.3347778-19.8729877.3394165-.0281372.6868286-.0146484 1.0353393.0305786zm-37.4928589-3.9466553c6.6399059 3.4487991 27.9317322 3.3714581 34.1494141.3867798v35.617981c0 3.459404-4.8406754 4.9062996-8.0961914 5.9414063-3.7851563 1.2128868-7.9111328 1.7265587-11.9331055 1.4716759-4.9936523-.3095703-14.2441406-2.8388634-14.1206055-6.5664024.0039301-.1180059.0010472-36.7312242.0004883-36.8514406zm42.0845947 4.706482c-1.5916214-1.5333786-3.4957619-2.4556103-5.6907959-2.2871704-.0383911-.8226929-.0794678-1.5427246-.1231079-2.1502075 2.5684395.8905849 4.7235985 2.6590785 5.8139038 4.4373779z"/>
</g>
</svg>