<svg id="Layer_1" enable-background="new 0 0 75 75" viewBox="0 0 75 75" xmlns="http://www.w3.org/2000/svg"><g id="_x31_2"><path d="m68.6905441 21.7547588c-.8359375-.9443359-1.8984375-1.8837891-3.2431641-2.8652344-5.2978516-3.9423828-11.1582031-7.171875-17.4199219-9.5986328-2.7949219-1.0732422-5.7841797-1.9628901-8.703125-1.2138672-1.5739136.4229126-3.0369263 1.4701538-3.9528198 2.8102417-2.0636597 1.3453979-3.175354 3.5211792-2.8831787 5.6021118-3.1288433.8654785-6.1087017 3.131958-8.1303082 4.829834-6.7582892 5.6593743-16.3766898 13.6340924-18.7460941 21.9296895-.9450989 3.2270736-.8783746 5.5041961-1.5942383 19.2880859-.0439453.9003906-.1772461 3.6425781 1.8422852 4.4785156 1.4980974.6181107 3.2187648-.3940659 3.8657231-1.8320313 1.0867414-2.3580284-.2451897-5.1026878.7548828-7.0029297 1.2420835-2.3349152 5.49827-2.1710777 7.2612305-5.1237793 8.7115536-2.500679 4.1558361-1.1918678 16.6138897-4.7788696.1574745 1.4098701.2162285 2.9573326.9466553 4.3342896 1.0195313 1.9160156 3.3242188 3.0654297 5.4790039 2.7255859 2.1523438-.3496094 3.9775391-2.1611328 4.3388672-4.3056641.3597794-2.0916519-.6747246-4.3708763-.5498047-6.2089844.1689644-2.7216301 3.361763-3.3606186 5.9931641-2.3896484 1.5762444.6153793 3.0332336 1.4959297 4.7470703 1.2558594 1.6970444-.2412987 3.0926285-1.6347198 3.6796265-3.2122803 5.1735001-2.5052414 6.8759232-4.8283539 7.7422485-5.5845947l.0917969-.0800781c.0019531-.0009766.0039063-.0029297.0058594-.0048828 4.3631209-3.7846393 5.8169631-8.6233043 1.8603514-13.0527363zm-30.9321289-10.328125c2.503418-.6533203 5.2172852.1748047 7.7797852 1.1640625 7.9375381 3.064189 15.2604218 7.687151 18.697937 10.6995239-3.1420708.1975613-5.817955 2.0923576-7.6066284 4.6358032-1.5068054-1.9768791-2.5563583-2.7588444-4.2797852-3.9720459-2.403923-1.5783348-4.6363716-2.78685-6.0654297-3.453125-.0917358-.0449829-9.0095215-3.9928589-12.3335571-4.2293701-.3371696-2.1491775 1.7021027-4.3002395 3.8076782-4.8448486zm17.3422852 30.7773457c-1.2314186.176506-2.4425812-.5643158-4.0048828-1.171875-3.7305565-1.3830528-7.7920036-.0048485-8.0224609 3.6943359-.1394615 2.0535126.8599434 4.3543663.5683594 6.0537109-.2587891 1.5332031-1.5625 2.8271484-3.0966797 3.0761719-1.5439453.2451172-3.1889648-.5771484-3.9179688-1.9482422-.8883743-1.6747284-.509613-4.1259995-1.3212891-6.2294922-.9365425-2.3721275-3.3973198-4.0217667-5.9418926-1.4199219-2.1053085 2.1554337-4.2531357 2.3868027-6.3540039 2.1982422-1.3481445-.1191406-2.8745117-.2558594-4.1020508.6767578-1.8208065 1.3593636-1.537569 3.7154007-2.5585938 5.3251953-1.4898214 2.2418251-5.6267719 2.073307-7.1943359 5.0195313-1.2845535 2.440258.1071234 5.1285667-.7944336 7.0830078-.3330078.7421875-1.2304692 1.3554688-1.9272466 1.0673828-.6923828-.2861328-1.0009766-1.3017578-.9174805-3.0166016.7298679-14.0499611.6614966-15.9564514 1.5371094-18.9462891 2.2531943-7.888916 11.7840862-15.7663364 18.269043-21.1972675 2.0534668-1.7250977 5.1355591-4.0873413 8.1886578-4.7020874.1264305.0015984.3124161-.081316 1.3260498.1426392 2.1256104.4776611 5.9812622 1.9265137 8.5581055 2.9797974 3.6154709 1.4817047 4.7669945 2.2370396 8.1161499 4.3091431 3.2241669 2.2593536 4.4379807 4.0189381 5.3476563 6.4560547.9714584 2.439661 1.655201 6.0908833.6103516 8.586916-.5019528 1.0742187-1.4101559 1.8271484-2.3681637 1.9628906zm4.3291015-3.6230469c.2551765-2.331871-.2570801-5.1664467-1.1494141-7.4042988-.1855469-.6528931-.4606934-1.2723389-.7825928-1.8601685 2.3267441-3.6311264 5.5103683-4.878603 8.2816162-4.4647827 2.6326981 3.0952282 2.1782532 6.2205353-.4082031 9.2302265-.0009766.0009766-.0009766.0009766-.0009766.0009766-1.563732 1.8238182-3.8065871 3.3631783-5.9404296 4.4980469z"/><path d="m29.6671085 24.6541729c-1.4790039 1.6191406-2.1333008 5.0605469-1.6313477 6.7421875.375 1.2558613 1.2553711 1.9804707 2.4160156 1.98633h.0141602c1.6430645 0 3.6059551-1.5166035 4.1245098-3.189455.3833008-1.2363281.3256836-2.6806641-.1665039-4.1757813-.9218978-2.8102874-3.3016376-2.955759-4.756834-1.3632812zm3.4907208 5.0957031c-.3222656 1.0390625-1.7031231 2.1328125-2.6909161 2.1328125-.0024414 0-.0048828 0-.0068359 0-1.9092007-.0121403-1.0035686-4.7735634.3144531-6.2177734 1.7995281-1.9656048 3.0366726 1.9771347 2.3832989 4.0849609z"/><path d="m12.8170109 38.0936279c-.8849974 1.4207573-1.2028265 3.2530594-.71875 5.1044922.3419199 1.3233566.6913662 2.0878906 2.2729492 2.0878906 3.6787682 0 6.5351067-3.4916153 5.6743164-6.6660156-.9084187-3.3405609-5.0859871-3.9623756-7.2285156-.5263672zm1.5541992 5.6923828c-.5974741 0-.5817404-.0415535-.8398438-1.0361328-.3452301-1.3220901-.1331081-2.7510834.5585938-3.8632813h.0004883c.5480309-.8790359 1.4110126-1.5917969 2.4506836-1.5917969.9953766 0 1.809473.8089333 2.0571289 1.71875.5840034 2.1578904-1.462122 4.772461-4.2270508 4.772461z"/><path d="m41.3380051 47.2967529c-.4140625.0146484-.7373047.3632813-.7216797.7763672.0117188.3173828-.2871094.6630859-.6025391.6982422-.3173828.0322266-.6835938-.2382813-.7402344-.5498047-.0756836-.4082031-.4702148-.6787109-.8745117-.6005859-1.3142815.2426834-.3151855 2.6533203 1.5629883 2.6533203 1.184639 0 2.1961403-1.0859451 2.1523438-2.2558594-.0146485-.415039-.3916016-.765625-.7763672-.7216797z"/><path d="m12.2432804 49.9842529c-.3061523.2958984-.8676758.3242188-1.2021484.0585938-.3276367-.2587891-.4326172-.8222656-.2202148-1.1826172.2099609-.3574219.0908203-.8173828-.2661133-1.0273438-.3554688-.2099609-.8164063-.0908203-1.0268555.265625-.8593493 1.4597511.0627775 3.6191406 2.0708008 3.6191406.6176758 0 1.2358398-.2207031 1.6855469-.6533203.2983398-.2871094.3071289-.7617188.0195313-1.0605469-.2866212-.2968749-.7612306-.3076171-1.060547-.0195312z"/><path d="m45.5176926 28.1121807c-.0048828 0-.0107422 0-.0166016 0-1.5057297.0094357-3.987072 1.9104366-4.7714844 3.0371094-.9619141 1.3828144-1.296875 4.5849628.2275391 6.0068378 2.674118 2.492672 8.8960838-.699688 7.8691406-5.8759785-.3046875-1.5390624-1.5664062-3.1679687-3.3085937-3.1679687zm1.0361328 6.7802754c-.962738 1.2163544-3.421463 2.2412109-4.5732422 1.1660156-.8154297-.7597656-.7080078-3.0634766-.0205078-4.0517578.529068-.7590961 2.6195068-2.3897743 3.5507813-2.3945332h.0068359c1.7091026 0 2.7475509 3.115839 1.0361328 5.2802754z"/><path d="m34.4752121 34.0633545c-.3525391-.2167969-.8144531-.1064453-1.0317383.2460938-1.534565 2.5015793-5.20014 2.379715-6.5991192-.1494141-.2011719-.3632813-.6572266-.4931641-1.0195313-.2929688s-.4936523.6572266-.2929688 1.0195313c1.9667606 3.5532036 7.0563946 3.6825447 9.1899395.2080078.216797-.3535156.1064454-.8154297-.2465819-1.03125z"/></g></svg>