<svg id="Layer_1" enable-background="new 0 0 73 73" height="512" viewBox="0 0 73 73" width="512" xmlns="http://www.w3.org/2000/svg"><g id="_x36_4"><path d="m19.5974331 62.8181915c5.1022339 3.9348145 14.279295 5.2813721 17.9949322 5.5040283 9.961792.5969238 16.2801514.5305176 28.2392616-2.4848633 2.0145493-.5081253 2.6256485-2.2028923 1.7987061-2.9760742-.338501-.3165283-.8338623-.4116211-1.2971802-.4212646-6.0051918-.1239014-10.8990517.0354004-15.817997.7032471 18.2123604-9.9305229 21.9479485-36.8255005 5.4570313-51.2058105-14.1474038-12.3328314-35.9723359-9.2139622-46.0727521 6.7662353-4.0839844 5.6201172-6.2557983 12.4710693-5.6838379 19.6168213.7998658 9.9934082 6.798584 19.3735351 15.381836 24.4976806zm14.2321758-56.8660884c16.2148933-1.088316 29.9949112 11.1486168 31.0839882 27.0976563 1.4859085 21.7769623-20.5286636 37.1702194-40.2919922 28.9208984-9.8909616-4.127274-17.1097317-13.5191235-17.8896503-24.945313-1.0957032-16.0380859 11.0605468-29.9775385 27.0976543-31.0732417z"/><path d="m50.3354683 23.1103058c-.4072266.0712891-.6806641.4599609-.6083984.8681641.0712891.4082031.4580078.6835938.8681641.6083984.6586914-.1153564 1.3275146-.1520996 1.9954834-.1308594-.4992638 1.7366028.8690262 3.578125 3.2740479 3.578125 1.155426 0 2.2033615-.4373493 3.2431641-.8857422.0661621-.0285645.1107788-.0839844.164856-.1286621 2.3417969 1.9503002 2.0199509 3.0075684 2.9103394 3.0075684.5728798 0 .9402161-.626545.6464844-1.1289063-2.4550784-4.1923828-7.7011722-6.6308594-12.4941409-5.7880859z"/><path d="m36.4428902 60.2968292c12.2992935 0 20.2815666-15.2844124 14.78125-26.6923828-2.0585938-4.2695313-6.8876953-6.6123047-12.3242188-5.9794922-9.1037464 1.0683842-15.0936699 10.9475174-14.9404278 19.8857422.1201878 6.9386368 4.8029156 12.7861328 12.4833966 12.7861328zm-9.76367-7.4814453c.2950439-.6430664.8843384-1.012207 1.3701172-1.1982422 2.2021408-.8472557 5.0587292.128315 7.1757793 1.5078125.6601563.4306641 1.4072266.9199219 2.2851563 1.0292969 1.2871017.1556244 2.3804779-.529747 3.3789063-.890625 1.833313-.6575928 3.90979-.2055664 5.4694214 1.1296387-6.4516869 6.6712799-16.3291875 5.4933052-19.6793805-1.5778809zm22.390379-19.9002685c-5.2954712 1.7924805-11.2764282 1.3283691-16.2362671-1.2557373 5.7149925-4.2512894 13.1466827-3.0520974 16.2362671 1.2557373zm-17.4815655-.2174073c5.3361683 2.9818726 12.090765 3.7255821 18.268919 1.5302734 2.8013115 5.7426834 1.9761505 13.5114555-2.505249 19.0458984-1.9684448-1.6948242-4.6164551-2.263916-6.9693604-1.4223633-.2714844.0986328-.5419922.2138672-.8125.3300781-2.023922.8669739-2.0942039.5622635-4.0136719-.6259766-2.9626312-1.8121376-7.2689991-2.6016808-9.5185528-.409668-1.7765255-5.8986891.7505379-14.0084074 5.5504151-18.448242z"/><path d="m10.2915249 27.051712c-.4683046.4745922-.1276855 1.2773438.5332031 1.2773438.1933594 0 .3867188-.0742188.5332031-.2226563 1.0023804-1.013916 2.175293-1.8408203 3.4505005-2.4562988.6922913 1.6680145 2.8398304 2.3318558 4.8942261.9641113.8125-.5410156 1.4414063-1.2851563 1.9951172-1.9404297.0418091-.0495605.053833-.1125488.0811157-.1696777 1.7009888.2150879 3.3546143.7775879 4.8358765 1.6618652.3583984.2138672.8173828.0966797 1.0283203-.2587891.2128906-.3554688.0966797-.8164063-.2587891-1.0283203-5.6197033-3.3537273-12.6657171-2.3053397-17.0927734 2.1728516z"/><path d="m41.8676949 14.5839396c1.6396484-.7958984 3.3496094-1.4443359 5.1015625-1.9365234-.9277344 2.0556641-1.7060547 4.1855459-2.3193359 6.3515615-.1628571.5752964.3838196 1.1024914.9521484.9179688l6.3916016-2.0654297c.3945313-.1279297.6103516-.5507813.4833984-.9443359s-.5517578-.609375-.9443359-.4833984l-5.03125 1.6259766c1.8571663-5.8348808 3.0272179-6.2091722 2.4150391-6.984374-.1787109-.2275391-.4697266-.3349609-.7548828-.2675781-2.3955078.5419922-4.7333984 1.3623047-6.9482422 2.4365234-.3730469.1806641-.5283203.6298828-.3476563 1.0019531.1816406.3720701.6289062.5273436 1.0019531.3476561z"/><path d="m58.3217964 10.9228067 3.8232422-1.2353516c.3945313-.1279297.6103516-.5507813.4833984-.9443359s-.5517578-.609375-.9443359-.4833984l-2.4443359.7900391c1.0813942-3.1456089 1.7016792-3.2706313 1.2089844-3.8945317-.1787109-.2275391-.4707031-.3339844-.7548828-.2675781-1.4570313.3300781-2.8769531.828125-4.2216797 1.4804688-.3720703.1806641-.5273438.6298828-.3466797 1.0029297.1806641.3720703.6259766.5263672 1.0029297.3466797.7695313-.3740234 1.5664063-.6933594 2.3818359-.9541016-.4472656 1.0556641-.8291016 2.1406255-1.140625 3.2412114-.1616135.570896.3776626 1.1020984.9521484.9179686z"/><path d="m67.8930893 13.6161661-1.3535156.4375c.2275391-.6152344.4873047-1.2197266.7773438-1.8076172.2807236-.5635757-.2244415-1.2047176-.8378906-1.0634766-1.0615234.2402344-2.0996094.6044922-3.0839882 1.0820313-.3730469.1806641-.5283203.6289063-.3476563 1.0019531.1816406.3730469.6289063.5283203 1.0019569.3476563.4091797-.1982422.828125-.375 1.2548828-.5283203-.2509766.6328125-.4697266 1.2773438-.6542969 1.9296875-.134819.4762316.2226257.9541016.7216797.9541016.2114716 0 .0809174-.0012016 2.984375-.9257813.3935547-.1279297.609375-.5507813.4824219-.9453125-.1279297-.3925781-.5478516-.6064453-.9453125-.4824219z"/></g></svg>