<svg id="Layer_1" enable-background="new 0 0 75 75" viewBox="0 0 75 75" xmlns="http://www.w3.org/2000/svg"><g id="_x33_"><path d="m49.7215233 15.9809065c.3554688 0 .6708984-.253418.7373047-.6152344.3388672-1.8588867 1.2675781-3.6108398 2.6152344-4.9335938.2958984-.2900391.2998047-.7651367.0097656-1.0605469-.2890625-.2944336-.7636719-.2998047-1.0605469-.0097656-1.5664063 1.5375977-2.6464844 3.5737305-3.0410156 5.734375-.0835076.4587308.2680549.8847657.7392578.8847657z"/><path d="m58.755703 24.9511223c.2119141 0 .4238281-.0898438.5712891-.2646484 1.2226563-1.4399414 2.9033203-2.4926758 4.7314415-2.9648438.4013672-.1035156.6425781-.5126953.5390625-.9135742-.1044922-.4023438-.5195313-.6411133-.9140587-.5385742-2.125.5483398-4.078125 1.7724609-5.4990234 3.4462891-.4159356.4892902-.0612031 1.2353515.571289 1.2353515z"/><path d="m68.3289413 35.5458488c-2.1152344-.5869141-4.4208946-.5043945-6.4853477.2348633-.9278069.3305321-.4365959 1.7495804.5039063 1.4121094 1.7792931-.6352539 3.7597618-.7060547 5.5810509-.2016602.3964844.1088867.8125-.1230469.9228516-.5219727.1103514-.399414-.123047-.8124999-.5224611-.9233398z"/><path d="m6.6707406 37.6049309c2.1465611.5954552 4.4465795.4941101 6.4863286-.2348633.3901367-.1391602.5932617-.5683594.4536133-.9584961-.1396484-.390625-.5698242-.5942383-.9584961-.4536133-1.7788086.6337891-3.7612305.706543-5.5800786.2016602-.402832-.1103516-.8125.1225586-.9233398.5219727-.1108399.3989257.1230468.8124999.5219726.9233398z"/><path d="m16.0208378 25.0922356c.9905834.1791477 1.2336483-1.2998714.2695313-1.4755859-1.8583975-.3388672-3.6108389-1.2675781-4.9340811-2.6152344-.2890625-.2944336-.7641602-.300293-1.0605469-.0097656-.2954102.2900391-.2998047.7651367-.0097656 1.0605469 1.5380859 1.5664062 3.5751953 2.6464843 5.7348623 3.040039z"/><path d="m24.6399784 15.8910627c.3153954.2673769.7883644.2300825 1.0571289-.0864258.2680664-.315918.2294922-.7890625-.0864258-1.0571289-1.4394531-1.222168-2.4921875-2.9023438-2.9648438-4.730957-.1035156-.4013672-.5117188-.6430664-.9135742-.5385742-.4013672.1035156-.6420898.5126953-.5385742.9135742.5493165 2.1259766 1.7729493 4.0791016 3.4462891 5.4995117z"/><path d="m37.4109764 12.7299299c.5149155 0 .8817139-.5116987.7060547-1.0024414-.6347656-1.7783203-.7070313-3.7602534-.2011719-5.5800776.1103516-.3994141-.1230469-.8125-.5224609-.9233398-.4008789-.1113281-.8125.1225586-.9233398.5219727-.5869141 2.1152344-.5039063 4.4189448.234375 6.4863276.1098632.3066406.3984374.4975585.7065429.4975585z"/><path d="m37.5047264 15.6190901c-16.4031639 0-26.4112167 18.0510941-17.8670063 31.9384766h-12.2799678c-.4140625 0-.75.3359375-.75.75s.3359375.75.75.75c1.711925.0001488-6.1963606-.0005417 16.7270508.0014648.4140625 0 .75-.3359375.75-.75s-.3359375-.75-.75-.75h-.0103149c-.3219166-.0001907-2.6422577-.0015526-2.4937744-.0014648-5.6066179-12.846386 3.8997154-27.2084961 17.8537006-27.2084961 6.1664429 0 12.0232544 2.963623 15.682312 7.9285889 2.8510437 6.026207 2.4931488 13.3566704-1.5458984 19.2799072h-14.9440313c-.4140625 0-.75.3359375-.75.75s.3359375.75.75.75h27.9091759c.4140625 0 .75-.3359375.75-.75s-.3359375-.75-.75-.75h-11.1743126c8.7068062-14.1489516-1.7104187-31.9384766-17.8569336-31.9384766z"/><path d="m33.3890038 49.0575676c.4140625 0 .75-.3359375.75-.75s-.3359375-.75-.75-.75h-4.0439472c-.4140625 0-.75.3359375-.75.75s.3359375.75.75.75z"/><path d="m12.9807997 53.4320793c0 .4140625.3359375.75.75.75h33.7827148c.4140625 0 .75-.3359375.75-.75s-.3359375-.75-.75-.75h-33.7827148c-.4140625 0-.75.3359375-.75.75z"/><path d="m66.9920273 58.2416496h-10.0615196c-.4140625 0-.75.3359375-.75.75s.3359375.75.75.75h10.0615196c.4140625 0 .75-.3359375.75-.75s-.3359375-.75-.75-.75z"/><path d="m27.2845097 58.9916496c0 .4140625.3359375.75.75.75h21.6098652c.4140625 0 .75-.3359375.75-.75s-.3359375-.75-.75-.75h-21.6098652c-.4140625 0-.75.3359375-.75.75z"/><path d="m56.6492577 63.8007317h-33.3574238c-.4140625 0-.75.3359337-.75.7499962s.3359375.75.75.75h33.3574219c.4140625 0 .75-.3359375.75-.75s-.3359356-.7499962-.7499981-.7499962z"/><path d="m46.7762108 69.0536575c0-.4140625-.3359375-.75-.75-.75h-8.2324219c-.4140625 0-.75.3359375-.75.75s.3359375.75.75.75h8.2324219c.4140625 0 .75-.3359375.75-.75z"/><path d="m33.5638084 68.3036575h-1.9858418c-.4140625 0-.75.3359375-.75.75s.3359375.75.75.75h1.9858418c.4140625 0 .75-.3359375.75-.75s-.3359375-.75-.75-.75z"/></g></svg>