<svg width="89" height="155" viewBox="0 0 89 155" fill="none" xmlns="http://www.w3.org/2000/svg">
<path d="M87.8712 77.0541V62.3294C87.8712 59.8515 87.895 57.3736 87.9665 54.8957C88.026 52.3939 88.0618 49.9755 88.0618 47.6525C88.0618 45.1507 88.0856 42.649 88.1571 40.171C88.2524 37.6931 88.3 35.2867 88.3 32.9279V31.403C88.3 29.342 88.3 27.3287 88.3 25.3511C88.3 23.3855 88.3 21.3721 88.3 19.2993C88.3 17.1072 88.3239 14.9152 88.3953 12.7232C88.4549 10.5312 88.2047 8.33918 87.6329 6.14717C87.0611 3.64541 85.5124 2.02523 83.0106 1.28662C80.5327 0.559917 78.4836 0.131045 76.8634 0H65.2362C64.4976 0 63.7709 0.0357401 63.0442 0.095305C62.3056 0.166785 61.5789 0.274002 60.8522 0.428872C60.2446 0.428872 59.6609 0.428872 59.0891 0.428872C58.5172 0.428872 57.9216 0.512265 57.3259 0.667135C56.8732 0.667135 56.3967 0.702875 55.8964 0.76244C55.3841 0.83392 54.9076 0.857745 54.4668 0.857745C53.895 1.02453 53.2993 1.07218 52.7036 1.0007C52.1318 0.905397 51.4766 0.941137 50.7499 1.09601C49.8564 1.22705 48.9391 1.4534 47.986 1.76314C47.033 2.04906 46.0442 2.33497 45.0316 2.62089C44.4598 2.78767 43.7569 2.94254 42.9349 3.09741C42.1367 3.22846 41.3743 3.43098 40.6476 3.71689C40.1949 3.88368 39.7541 3.9909 39.3133 4.05046C38.8606 4.12194 38.4317 4.31255 38.0267 4.62229C36.8473 5.03925 35.5964 5.61108 34.2621 6.33778C33.9762 6.50456 33.6903 6.65943 33.4044 6.8143C33.1185 6.94535 32.8087 7.08831 32.499 7.24318C32.3679 7.37422 31.9986 7.43379 31.403 7.43379L29.4492 8.57745C28.8417 8.86336 28.2579 9.31606 27.6861 9.91171C27.1143 10.4835 26.459 10.9839 25.7323 11.3889C25.2796 11.7106 24.8389 11.9846 24.3981 12.199C23.9454 12.3896 23.5046 12.6517 23.0638 12.9615C22.9328 13.0925 22.7898 13.2712 22.6349 13.4857C22.4681 13.712 22.3252 13.9622 22.2061 14.2481C21.9201 14.4149 21.5508 14.6293 21.11 14.9152C20.6574 15.2011 20.3 15.5109 20.014 15.8206C18.5487 17.1311 17.1549 18.513 15.8206 19.9664L13.6286 22.5873C13.3427 22.9089 13.0806 23.2901 12.8662 23.7309C12.6398 24.1479 12.3896 24.5768 12.1037 25.0175C11.9369 25.3035 11.7225 25.6132 11.4366 25.9229C11.1507 26.2089 10.8648 26.4948 10.5789 26.7807C10.4121 27.0666 10.2572 27.4359 10.1023 27.8767C9.97128 28.3294 9.76876 28.7702 9.48284 29.211C9.16119 29.7828 8.81571 30.3308 8.43449 30.8312C8.0771 31.3434 7.76735 31.9629 7.48144 32.6896C7.31466 33.1423 7.20744 33.5831 7.14787 34.0239C7.07639 34.4766 6.90961 34.9174 6.62369 35.3581C6.30204 36.0968 6.00421 36.8592 5.7183 37.6455C5.43238 38.4436 5.14647 39.2061 4.86055 39.9328C4.25298 41.4338 3.74072 43.1136 3.33567 44.9839C3.16889 45.7226 2.93063 46.4969 2.62089 47.3189C2.33497 48.1171 2.12053 48.8795 2.0014 49.6062C1.71549 50.7856 1.48914 52.0365 1.33427 53.3708C1.16748 54.6812 1.02453 55.9797 0.905397 57.2783C0.905397 57.8858 0.857745 58.4934 0.76244 59.0891C0.690959 59.6609 0.667135 60.2327 0.667135 60.8046C0.53609 61.4121 0.476525 61.972 0.476525 62.4724C0.476525 62.9847 0.393132 63.5207 0.238262 64.0926V68.0477C0.238262 70.8473 0.238262 73.5992 0.238262 76.2916C0.238262 78.9959 0.238262 81.6644 0.238262 84.2972C0.238262 87.0968 0.26209 89.8487 0.333567 92.5411C0.428872 95.2454 0.476525 97.9973 0.476525 100.785C0.476525 103.549 0.393132 106.301 0.238262 109.029C0.0714802 111.733 0 114.461 0 117.225V133.713C0 136.512 0 139.264 0 141.957C0 144.661 0 147.413 0 150.201C0 150.618 0.15487 151.273 0.476525 152.154C0.476525 152.762 0.905397 153.203 1.76314 153.489C2.20393 153.62 2.87106 153.679 3.76455 153.679C7.40996 153.679 11.0316 153.727 14.6293 153.822C18.2152 153.894 21.8367 153.917 25.4941 153.917C25.9349 153.917 26.3637 153.941 26.7807 154.013C27.2215 154.108 27.6623 154.156 28.115 154.156C29.4492 153.846 30.1759 153.179 30.307 152.154C30.307 151.868 30.2712 151.618 30.2117 151.392C30.1402 151.177 30.1164 150.987 30.1164 150.82C30.1164 147.484 30.0687 144.101 29.9734 140.67C29.9019 137.215 29.8781 133.796 29.8781 130.425C29.8781 129.412 29.9019 128.364 29.9734 127.28C30.0687 126.172 30.1164 125.088 30.1164 124.039C30.1164 123.313 30.1759 122.8 30.307 122.515C30.307 121.788 30.6644 121.419 31.403 121.419C31.7127 121.264 32.1654 121.18 32.7373 121.18C36.5495 121.18 40.314 121.264 44.0309 121.419C47.7716 121.585 51.56 121.657 55.3722 121.657H56.6588C56.9447 121.788 57.1949 121.931 57.4212 122.086C57.6357 122.217 57.8263 122.443 57.9931 122.753C57.9931 122.884 58.0169 123.027 58.0884 123.182C58.1837 123.313 58.2313 123.539 58.2313 123.849C58.2313 126.041 58.1479 128.209 57.9931 130.33C57.8263 132.426 57.7548 134.594 57.7548 136.81C57.7548 139.002 57.7191 141.17 57.6595 143.291C57.588 145.388 57.5642 147.532 57.5642 149.724C57.5642 150.046 57.6238 150.427 57.7548 150.868C57.9097 151.285 58.0645 151.654 58.2313 151.964C58.2313 152.988 58.5887 153.632 59.3273 153.917C59.6133 154.072 59.9587 154.072 60.3757 153.917C60.8165 153.763 61.1977 153.679 61.5194 153.679C64.8789 153.679 68.1669 153.763 71.3834 153.917C74.588 154.072 77.8165 154.156 81.0569 154.156C81.7836 154.156 82.5817 154.156 83.4395 154.156C84.3211 154.156 85.1312 154.072 85.8698 153.917H86.7752C87.7878 153.632 88.3 153.048 88.3 152.154C88.3 151.868 88.2167 151.559 88.0618 151.201C87.9307 150.82 87.8712 150.558 87.8712 150.391C87.8712 147.913 87.895 145.435 87.9665 142.957C88.026 140.456 88.0618 138.037 88.0618 135.714C88.0618 133.212 88.0856 130.711 88.1571 128.233C88.2524 125.755 88.3 123.348 88.3 120.99V106.265C88.3 103.787 88.2524 101.345 88.1571 98.9265C88.0856 96.5201 88.0618 94.1375 88.0618 91.7787C88.0618 89.3007 88.026 86.8228 87.9665 84.3449C87.895 81.8431 87.8712 79.4128 87.8712 77.0541ZM58.2313 61.0428V75.1003C58.2313 77.4234 58.1479 79.7226 57.9931 82.0099C57.8263 84.2734 57.7548 86.656 57.7548 89.1578L57.5642 90.0155C57.3974 90.6231 57.0996 90.9924 56.6588 91.1115C56.5278 91.1115 56.3491 91.1592 56.1346 91.2545C55.9083 91.326 55.6581 91.3498 55.3722 91.3498C51.6791 91.4808 47.9384 91.5404 44.1262 91.5404C40.3378 91.5404 36.5495 91.5404 32.7373 91.5404C32.1654 91.5404 31.7127 91.4808 31.403 91.3498C30.6644 91.3498 30.307 90.9924 30.307 90.2538C30.0211 89.6581 29.8781 89.134 29.8781 88.6813V73.0989C29.8781 71.9314 29.9377 70.7997 30.0687 69.7156C30.2236 68.6077 30.307 67.5474 30.307 66.5229V62.9966C30.4618 62.4247 30.4976 61.8887 30.4023 61.3764C30.3308 60.876 30.307 60.3161 30.307 59.7086C30.4618 58.5411 30.6048 57.4451 30.7358 56.4205C30.8907 55.4079 31.0456 54.3953 31.2124 53.3708C31.4983 52.4892 31.7842 51.6076 32.0701 50.7499C32.356 49.8683 32.6539 48.9748 32.9755 48.0813C33.2614 47.3546 33.5473 46.7709 33.8333 46.3182C34.1192 45.8774 34.4051 45.3652 34.691 44.7933C35.0007 44.0666 35.3343 43.2565 35.6917 42.3631C36.0729 41.4815 36.478 40.7429 36.9307 40.171C37.3357 39.5992 37.8003 39.0989 38.3126 38.6462C38.8487 38.2054 39.4086 37.7646 39.9804 37.3119C40.7071 36.5852 41.41 35.93 42.0771 35.3581C42.7443 34.7625 43.5067 34.2383 44.3645 33.7856C44.6504 33.6665 45.0078 33.5712 45.4605 33.4997C45.9012 33.4044 46.2706 33.2972 46.5565 33.1661C46.8662 33.0113 47.2355 32.8683 47.6525 32.7373C48.0933 32.5824 48.534 32.4275 48.9867 32.2607C49.5586 32.1416 50.1304 31.9986 50.7022 31.8319C51.2979 31.677 51.9055 31.534 52.513 31.403C53.3708 31.403 54.0975 31.3315 54.705 31.1647C54.991 31.1647 55.2411 31.1052 55.4675 30.9741C55.6819 30.8192 55.944 30.7358 56.2299 30.7358C56.6707 30.7358 57.1115 30.9622 57.5642 31.403C57.6833 31.6889 57.7548 32.1178 57.7548 32.6896V33.3567C57.7548 35.7155 57.7786 38.0267 57.8501 40.314C57.9454 42.5775 57.9931 44.8767 57.9931 47.2236C57.9931 49.5467 58.0169 51.8459 58.0884 54.1332C58.1837 56.3967 58.2313 58.6959 58.2313 61.0428Z" fill="#060823"/>
</svg>
