<svg width="337" height="276" viewBox="0 0 337 276" fill="none" xmlns="http://www.w3.org/2000/svg">
<path fill-rule="evenodd" clip-rule="evenodd" d="M62.0154 237.493L65.041 234.283L71.2962 227.653L85.1971 238.712L77.9862 244.58L74.6186 247.32L64.8055 255.304L53.6177 246.402L62.0154 237.493Z" fill="#9F91CA"/>
<path fill-rule="evenodd" clip-rule="evenodd" d="M73.2826 250.18C73.2826 250.18 105.079 228.258 114.947 220.261C120.951 215.397 126.545 210.058 132.134 204.776C134.537 202.506 143.34 191.421 146.834 192.314C149.538 193 157.873 209.801 168.163 219.559C176.242 227.217 183.704 235.441 192.07 242.816C197.519 247.62 203.43 251.95 209.998 255.276C244.177 272.585 260.784 256.937 271.197 245.421C281.611 233.906 236.069 199.845 236.069 199.845C236.069 199.845 151.078 160.961 147.337 160.294C142.524 159.432 135.345 163.227 127.276 169.405C103.025 187.971 57.9821 236.969 57.9821 236.969L73.2826 250.18Z" fill="#7F99C3"/>
<path fill-rule="evenodd" clip-rule="evenodd" d="M73.2826 250.18C73.2826 250.18 105.079 228.258 114.947 220.261C120.951 215.397 126.545 210.058 132.134 204.776C134.537 202.506 143.34 191.421 146.834 192.314C149.538 193 157.873 209.801 168.163 219.559C176.242 227.217 183.704 235.441 192.07 242.816C197.519 247.62 203.43 251.95 209.998 255.276C244.177 272.585 260.784 256.937 271.197 245.421C281.611 233.906 236.069 199.845 236.069 199.845C236.069 199.845 151.078 160.961 147.337 160.294C142.524 159.432 135.345 163.227 127.276 169.405C103.025 187.971 57.9821 236.969 57.9821 236.969L73.2826 250.18Z" fill="black" fill-opacity="0.2"/>
<path fill-rule="evenodd" clip-rule="evenodd" d="M17.0066 265.213L72.2582 263.992C72.6523 263.277 72.8516 262.267 72.9128 261.067C73.1506 256.632 71.4882 249.599 70.648 245.159C70.5438 244.64 70.4555 244.157 70.3876 243.717C70.2675 242.977 70.1883 242.359 70.177 241.902C70.0864 238.265 66.7051 238.965 66.7051 238.965C61.2426 244.284 54.7202 236.635 51.0853 239.27C51.0853 239.27 50.9381 239.377 50.6052 239.634C50.3017 239.872 49.8397 240.244 49.1965 240.778C48.2757 241.546 46.9802 242.658 45.2273 244.222C40.9334 248.058 33.5345 250.689 27.2454 253.347C26.4414 253.686 25.6986 254.023 25.0101 254.356C24.4847 254.611 23.991 254.864 23.5267 255.117C18.4016 257.887 16.8118 260.46 16.4811 262.314C16.1663 264.095 17.0066 265.213 17.0066 265.213Z" fill="#131E2A"/>
<path fill-rule="evenodd" clip-rule="evenodd" d="M17.0043 265.213L72.2569 263.992C72.651 263.275 72.848 262.267 72.9114 261.067L16.4789 262.314C16.1641 264.093 17.0043 265.213 17.0043 265.213Z" fill="#FCAA80"/>
<path fill-rule="evenodd" clip-rule="evenodd" d="M66.62 264.117L68.2619 264.078C66.5792 262.342 64.9803 259.656 65.0845 255.762C65.2249 250.584 68.4137 247.027 70.6444 245.16C70.5425 244.641 70.4565 244.156 70.3862 243.718C67.9766 245.55 63.9386 249.528 63.7687 255.731C63.6691 259.448 65.0234 262.192 66.62 264.117Z" fill="#FCAA80"/>
<path fill-rule="evenodd" clip-rule="evenodd" d="M51.2894 245.273L60.0924 242.19L66.9024 258.136L57.6283 260.117L53.2982 261.044L40.682 263.736L35.2014 250.903L47.0278 246.762L51.2894 245.273Z" fill="#EAAC8B"/>
<mask id="mask0_138_3981" style="mask-type:alpha" maskUnits="userSpaceOnUse" x="0" y="225" width="45" height="51">
<path fill-rule="evenodd" clip-rule="evenodd" d="M44.2603 225.848H0.281481V276H44.2603V225.848Z" fill="white"/>
</mask>
<g mask="url(#mask0_138_3981)">
<path fill-rule="evenodd" clip-rule="evenodd" d="M0.282038 227.435L21.0111 275.974C21.8581 276.071 22.9248 275.891 24.1296 275.521C28.5934 274.163 34.9505 270.207 39.0361 267.889C39.514 267.619 39.9601 267.368 40.3678 267.153C41.0585 266.782 41.6405 266.495 42.0867 266.323C45.6446 264.958 43.7626 262.21 43.7626 262.21C36.5789 259.247 41.8262 250.763 37.94 248.475C37.94 248.475 37.7814 248.381 37.41 248.177C37.0658 247.991 36.5381 247.712 35.7817 247.332C34.6991 246.787 33.1433 246.032 30.9805 245.03C25.6742 242.581 20.4608 236.953 15.6143 232.314C14.9982 231.724 14.4004 231.186 13.8274 230.692C13.3926 230.319 12.9668 229.971 12.5546 229.647C8.00703 226.083 4.90435 225.583 2.95668 225.948C1.08828 226.296 0.282038 227.435 0.282038 227.435Z" fill="#131E2A"/>
</g>
<path fill-rule="evenodd" clip-rule="evenodd" d="M0.283807 227.435L21.0129 275.974C21.8599 276.071 22.9266 275.891 24.1314 275.521L2.95845 225.948C1.09232 226.296 0.283807 227.435 0.283807 227.435Z" fill="#FCAA80"/>
<path fill-rule="evenodd" clip-rule="evenodd" d="M18.8976 271.023L19.5136 272.465C20.6346 270.36 22.7205 267.993 26.6022 266.71C31.7658 265.002 36.4062 266.573 39.0378 267.89C39.5134 267.618 39.9618 267.369 40.3695 267.152C37.7107 265.663 32.3523 263.49 26.1696 265.53C22.4645 266.758 20.236 268.925 18.8976 271.023Z" fill="#FCAA80"/>
<path fill-rule="evenodd" clip-rule="evenodd" d="M139.167 221.457C138.728 221.554 138.291 221.65 137.847 221.747C138.039 221.693 138.497 221.592 139.167 221.457Z" fill="#8A60E2"/>
<path fill-rule="evenodd" clip-rule="evenodd" d="M175.275 214.771C158.464 217.82 143.689 220.534 139.167 221.457C153.736 218.26 166.799 215.724 175.275 214.771Z" fill="#8A60E2"/>
<path fill-rule="evenodd" clip-rule="evenodd" d="M158.829 248.263C158.485 248.33 158.129 248.398 157.751 248.474C157.903 248.003 157.984 247.746 157.984 247.746C157.984 247.746 158.279 247.939 158.829 248.263Z" fill="#8A60E2"/>
<path fill-rule="evenodd" clip-rule="evenodd" d="M139.168 221.456C143.69 220.534 158.465 217.82 175.277 214.771C203.769 209.6 238.078 203.465 238.078 203.465H265.027C265.027 203.465 291.162 262.55 250.764 263.14C227.685 263.14 227.188 263.306 202.49 258.612C177.794 253.917 171.244 247.037 157.752 248.472C149.882 249.989 135.243 252.787 123.285 254.909C117.037 256.021 111.518 256.946 108.098 257.407C95.2432 259.141 54.7046 262.55 54.7046 262.55L49.2737 243.621C49.2737 243.621 98.5996 230.417 137.847 221.746C138.291 221.65 138.728 221.553 139.168 221.456Z" fill="#7F99C3"/>
<path fill-rule="evenodd" clip-rule="evenodd" d="M139.168 221.456C143.69 220.534 158.465 217.82 175.277 214.771C203.769 209.6 238.078 203.465 238.078 203.465H265.027C265.027 203.465 291.162 262.55 250.764 263.14C227.685 263.14 227.188 263.306 202.49 258.612C177.794 253.917 171.244 247.037 157.752 248.472C149.882 249.989 135.243 252.787 123.285 254.909C117.037 256.021 111.518 256.946 108.098 257.407C95.2432 259.141 54.7046 262.55 54.7046 262.55L49.2737 243.621C49.2737 243.621 98.5996 230.417 137.847 221.746C138.291 221.65 138.728 221.553 139.168 221.456Z" fill="black" fill-opacity="0.2"/>
<path fill-rule="evenodd" clip-rule="evenodd" d="M225.561 86.9225L226.018 103.378C226.168 109.156 230.004 112.16 236.006 111.977C241.131 111.821 245.857 109.167 246.328 104.33L244.294 78.4686L225.561 86.9225Z" fill="#EAAC8B"/>
<path fill-rule="evenodd" clip-rule="evenodd" d="M225.844 94.9477C237.998 94.9593 245.714 79.9281 245.714 79.9281L225.479 84.234L225.844 94.9477Z" fill="#00023C" fill-opacity="0.18"/>
<path fill-rule="evenodd" clip-rule="evenodd" d="M198.07 53.9037C199.304 54.7705 201.177 55.3713 202.56 54.5345C201.532 54.2255 198.058 52.8416 197.331 47.9816C196.523 44.2182 198.165 42.9308 198.165 42.9308C198.165 42.9308 197.857 42.6754 197.42 42.2377C195.3 44.1323 194.328 47.0376 195.107 49.7604C195.574 51.3911 196.634 52.8973 198.07 53.9037ZM201.007 24.6176C199.881 25.021 198.919 25.699 198.418 26.8512C197.725 28.4476 198.074 30.3036 198.984 31.8184C199.363 31.739 199.605 31.724 199.605 31.724C199.605 31.724 197.721 28.4884 199.614 26.0123C200.044 25.4458 200.524 24.9952 201.007 24.6176ZM282.32 60.3943C283.611 59.3622 284.46 57.8645 284.736 56.2918C285.307 53.054 283.278 49.9599 280.374 48.37C280.123 48.5181 279.955 48.5846 279.955 48.5846C279.955 48.5846 283.178 49.9363 283.337 54.8048C283.495 59.6712 277.763 59.4437 277.763 59.4437C277.763 59.4437 278.248 60.5101 278.458 62.0314C279.826 61.6452 281.21 61.2804 282.32 60.3943ZM281.461 27.8189C280.469 25.7805 278.839 23.9782 276.9 22.6908C275.691 21.8905 274.457 21.5836 273.184 21.5622C274.74 21.9205 276.576 22.6844 278.141 24.285C281.649 27.8683 280.118 32.8891 277.731 33.8289C277.731 33.8289 279.391 34.5691 280.873 36.5582C282.7 34.0928 282.825 30.6168 281.461 27.8189ZM196.659 41.4267C195.37 39.944 193.846 37.5967 194.679 35.4274C195.399 33.5457 196.758 32.6209 197.868 32.166C196.874 30.4194 196.518 28.3296 197.315 26.4907C198.482 23.7979 201.496 23.0405 204.32 23.0019C204.307 22.9676 202.087 18.0304 205.394 14.9686C208.711 11.896 213.381 12.8143 213.381 12.8143C213.381 12.8143 213.456 6.59622 218.361 4.52995C223.269 2.46368 227.597 5.40323 227.597 5.40323C227.597 5.40323 228.218 2.24268 232.736 1.60971C237.254 0.974599 238.311 3.54939 238.311 3.54939C238.311 3.54939 241.052 -0.718325 245.348 0.105607C249.644 0.927394 248.947 3.34555 248.947 3.34555C248.947 3.34555 253.721 0.650603 256.667 3.19535C259.611 5.74225 258.282 9.25469 258.282 9.25469C258.282 9.25469 263.652 6.93952 267.724 10.7438C271.193 13.9859 270.233 19.35 269.873 20.8691C272.443 20.2769 274.921 20.1439 277.272 21.5944C279.588 23.0255 281.547 25.1991 282.639 27.6065C284.122 30.8829 283.79 34.8288 281.527 37.558C282.114 38.5687 282.621 39.811 282.902 41.3408C283.52 44.7117 282.367 46.6256 281.328 47.6298C284.329 49.4643 286.426 52.6871 285.932 56.1652C285.685 57.901 284.872 59.5424 283.574 60.7998C282.17 62.158 280.356 62.5785 278.547 63.1386C278.581 64.6684 278.252 66.4579 276.991 68.0736C274.004 71.9014 269.698 69.4468 269.698 69.4468C269.698 69.4468 271.623 76.9802 263.796 77.4437C263.796 77.4437 261.86 83.2133 255.023 84.0694C248.186 84.9256 244.243 81.1256 244.243 81.1256L216.812 72.7125C216.812 72.7125 210.584 73.3948 206.877 70.5003C203.17 67.6101 205.391 63.4239 205.391 63.4239C205.391 63.4239 202.216 62.2417 201.492 58.785C201.229 57.5255 201.342 56.6372 201.589 56.0064C200.4 56.1394 199.136 55.809 198.081 55.2361C196.231 54.2319 194.845 52.4661 194.158 50.5736C192.969 47.2865 194.075 43.7332 196.659 41.4267Z" fill="black"/>
<path fill-rule="evenodd" clip-rule="evenodd" d="M232.367 87.3899C222.252 88.0979 213.334 81.1138 212.444 73.3079L210.465 54.8789C209.348 45.0947 215.327 36.3232 225.611 34.9479H225.613C236.14 33.5382 249.026 40.1468 250.514 50.1219L251.936 64.9613C253.037 76.4384 244.411 85.7763 232.367 87.3899Z" fill="#EAAC8B"/>
<path fill-rule="evenodd" clip-rule="evenodd" d="M261.407 64.6759C262.018 68.7634 259.013 72.5483 254.696 73.1255C250.38 73.7027 246.387 70.8576 245.778 66.7679C245.166 62.6783 248.172 58.8955 252.488 58.3162C256.803 57.7412 260.798 60.5863 261.407 64.6759Z" fill="#EAAC8B"/>
<path fill-rule="evenodd" clip-rule="evenodd" d="M251.189 68.2884C251.189 68.2884 250.387 62.9199 255.931 63.0401L251.189 68.2884Z" fill="#00023C" fill-opacity="0.18"/>
<path fill-rule="evenodd" clip-rule="evenodd" d="M206.544 51.3222C210.595 53.1267 220.929 53.6824 225.133 52.9507C230.407 52.0324 235.544 50.3459 240.313 47.9321C241.86 50.4124 242.659 53.3241 244.41 55.6693C246.158 58.0166 249.447 59.7053 252.049 58.3385C258.472 54.9612 254.47 43.4047 250.466 40.0768C225.334 19.1824 202.456 49.5005 206.544 51.3222Z" fill="black"/>
<path fill-rule="evenodd" clip-rule="evenodd" d="M234.755 70.9256C235.344 71.7066 236.272 72.2495 237.264 72.4748C238.408 72.7322 239.626 72.5906 240.734 72.2151C241.456 71.9684 242.16 71.6079 242.665 71.0586C243.537 70.1102 243.596 68.3637 243.306 67.1857C243.13 66.4798 242.699 65.8039 242.031 65.4456C241.053 64.9199 239.989 64.8813 238.915 65.068C237.966 65.2353 237.006 65.4263 236.161 65.864C234.472 66.7394 233.573 68.8786 234.508 70.548C234.583 70.681 234.664 70.8054 234.755 70.9256Z" fill="#E56B6F"/>
<path fill-rule="evenodd" clip-rule="evenodd" d="M234.755 70.9256C235.344 71.7066 236.272 72.2495 237.264 72.4748C238.408 72.7322 239.626 72.5906 240.734 72.2151C241.456 71.9684 242.16 71.6079 242.665 71.0586C243.537 70.1102 243.596 68.3637 243.306 67.1857C243.13 66.4798 242.699 65.8039 242.031 65.4456C241.053 64.9199 239.989 64.8813 238.915 65.068C237.966 65.2353 237.006 65.4263 236.161 65.864C234.472 66.7394 233.573 68.8786 234.508 70.548C234.583 70.681 234.664 70.8054 234.755 70.9256Z" fill="white" fill-opacity="0.25"/>
<path fill-rule="evenodd" clip-rule="evenodd" d="M241.767 69.5267C241.882 69.5267 242 69.4924 242.1 69.4237C242.353 69.2477 242.408 68.9129 242.224 68.6746L240.736 66.7429C240.551 66.5025 240.195 66.4553 239.946 66.6249C239.692 66.8009 239.638 67.1379 239.821 67.3761L241.309 69.3057C241.42 69.4516 241.592 69.5267 241.767 69.5267Z" fill="#FFD0F6"/>
<path fill-rule="evenodd" clip-rule="evenodd" d="M237.457 71.135H237.488C237.801 71.1179 238.039 70.8647 238.023 70.5686L237.88 68.1826C237.864 67.8865 237.602 67.7019 237.284 67.6762C236.972 67.6933 236.734 67.9465 236.75 68.2405L236.89 70.6286C236.909 70.914 237.158 71.135 237.457 71.135Z" fill="#FFD0F6"/>
<path fill-rule="evenodd" clip-rule="evenodd" d="M240 70.5338C240.089 70.5338 240.177 70.5145 240.258 70.4759C240.537 70.3386 240.648 70.0167 240.503 69.7528L239.189 67.3282C239.047 67.0643 238.705 66.9613 238.429 67.0944C238.15 67.2317 238.039 67.5535 238.184 67.8174L239.497 70.242C239.597 70.4265 239.796 70.5338 240 70.5338Z" fill="#FFD0F6"/>
<path fill-rule="evenodd" clip-rule="evenodd" d="M219.952 73.1614C219.458 73.818 218.682 74.2707 217.851 74.4574C216.893 74.6741 215.873 74.5561 214.945 74.2428C214.338 74.0347 213.749 73.7343 213.326 73.273C212.594 72.4791 212.544 71.0157 212.789 70.0287C212.936 69.4365 213.298 68.8721 213.856 68.5718C214.675 68.1297 215.568 68.0976 216.467 68.2542C217.262 68.3915 218.066 68.5546 218.775 68.9194C220.19 69.6532 220.944 71.4449 220.161 72.846C220.097 72.9554 220.029 73.0605 219.952 73.1614Z" fill="#E56B6F"/>
<path fill-rule="evenodd" clip-rule="evenodd" d="M219.952 73.1614C219.458 73.818 218.682 74.2707 217.851 74.4574C216.893 74.6741 215.873 74.5561 214.945 74.2428C214.338 74.0347 213.749 73.7343 213.326 73.273C212.594 72.4791 212.544 71.0157 212.789 70.0287C212.936 69.4365 213.298 68.8721 213.856 68.5718C214.675 68.1297 215.568 68.0976 216.467 68.2542C217.262 68.3915 218.066 68.5546 218.775 68.9194C220.19 69.6532 220.944 71.4449 220.161 72.846C220.097 72.9554 220.029 73.0605 219.952 73.1614Z" fill="white" fill-opacity="0.25"/>
<path fill-rule="evenodd" clip-rule="evenodd" d="M213.077 72.0768C213.251 72.0768 213.423 72.0016 213.534 71.8557L214.78 70.2395C214.963 69.9991 214.909 69.6642 214.658 69.4882C214.404 69.3144 214.053 69.3637 213.865 69.6063L212.619 71.2247C212.436 71.4629 212.49 71.7977 212.744 71.9737C212.843 72.0424 212.961 72.0768 213.077 72.0768Z" fill="#FFD0F6"/>
<path fill-rule="evenodd" clip-rule="evenodd" d="M216.687 73.4263C216.986 73.4263 217.235 73.2052 217.253 72.9198L217.371 70.9194C217.389 70.6232 217.149 70.3699 216.837 70.3527C216.483 70.3677 216.257 70.5631 216.241 70.8614L216.121 72.8597C216.105 73.1559 216.343 73.4091 216.655 73.4263H216.687Z" fill="#FFD0F6"/>
<path fill-rule="evenodd" clip-rule="evenodd" d="M214.556 72.9214C214.76 72.9214 214.959 72.8141 215.059 72.6295L216.16 70.5991C216.302 70.3351 216.194 70.0131 215.915 69.8757C215.637 69.7448 215.295 69.8457 215.154 70.1075L214.053 72.1401C213.909 72.4041 214.02 72.7261 214.298 72.8634C214.38 72.9021 214.468 72.9214 214.556 72.9214Z" fill="#FFD0F6"/>
<path fill-rule="evenodd" clip-rule="evenodd" d="M224.392 69.2073C224.478 68.6409 224.716 68.0551 225.012 67.4908C225.162 67.2076 225.341 66.9308 225.76 66.9909C226.19 67.0488 226.364 67.3363 226.41 67.6925C226.444 67.9521 226.448 68.2289 226.387 68.4821C226.09 69.7201 226.05 71.014 225.524 72.2027C225.37 72.5524 225.148 72.7949 224.722 72.7305C224.242 72.6575 224.016 72.3185 224.004 71.9087C223.973 71.014 224.1 70.13 224.392 69.2073Z" fill="#00023C" fill-opacity="0.18"/>
<path fill-rule="evenodd" clip-rule="evenodd" d="M233.18 58.0022C232.867 57.8305 232.469 57.6695 232.367 57.2488C232.269 56.8474 232.534 56.5255 232.829 56.3216C233.775 55.6627 234.885 55.4974 236.022 55.624C236.677 55.697 236.91 56.4096 236.509 56.9097C236.065 57.4634 233.929 58.1803 233.18 58.0022Z" fill="black"/>
<path fill-rule="evenodd" clip-rule="evenodd" d="M213.6 58.5441C213.958 58.4475 214.345 58.4453 214.499 58.426C215.695 58.4818 216.281 58.8617 216.234 59.4176C216.184 60.0057 215.489 60.4307 214.624 60.4414C214.229 60.4457 213.878 60.3492 213.518 60.2161C213.106 60.068 212.78 59.8555 212.8 59.4005C212.823 58.9326 213.167 58.6621 213.6 58.5441Z" fill="black"/>
<path fill-rule="evenodd" clip-rule="evenodd" d="M225.81 78.7371C225.785 78.7285 225.76 78.7199 225.735 78.7113C225.382 78.6083 224.845 78.707 224.798 78.2157C224.75 77.6943 225.314 77.7608 225.645 77.6127C227.662 77.7801 229.264 76.9991 230.616 75.6495C231.037 75.5164 231.415 74.7976 231.879 75.3791C232.35 75.9713 231.526 76.1494 231.257 76.5034C231.091 76.7244 230.749 76.7738 230.641 77.057C229.173 77.9882 227.597 78.6298 225.81 78.7371Z" fill="black"/>
<path fill-rule="evenodd" clip-rule="evenodd" d="M225.809 78.7376C227.596 78.6303 229.172 77.9885 230.64 77.057C230.658 77.5314 230.606 78.01 230.44 78.4543C230.021 79.5747 229.131 80.0855 227.904 80.034C226.953 79.9975 226.196 79.6198 225.809 78.7376Z" fill="#E56B6F"/>
<path fill-rule="evenodd" clip-rule="evenodd" d="M230.615 75.6486C229.263 77.0008 227.662 77.78 225.644 77.6126C225.683 76.5544 226.292 76.035 227.361 75.7989C228.448 75.5607 229.522 75.5113 230.615 75.6486Z" fill="#E56B6F"/>
<path fill-rule="evenodd" clip-rule="evenodd" d="M223.553 63.2906L227.369 62.6016L227.145 61.4941L223.328 62.1831L223.553 63.2906Z" fill="#282E53"/>
<path fill-rule="evenodd" clip-rule="evenodd" d="M243.895 62.2591L255.882 57.6588L255.436 56.616L243.449 61.2163L243.895 62.2591Z" fill="#282E53"/>
<path fill-rule="evenodd" clip-rule="evenodd" d="M235.392 54.875C237.365 54.875 239.22 55.6346 240.619 57.0121C242.028 58.4003 242.805 60.2477 242.809 62.2153C242.811 64.185 242.041 66.0346 240.635 67.4271C239.24 68.811 237.381 69.577 235.403 69.5792H235.392C231.309 69.5792 227.984 66.2878 227.977 62.2389C227.971 58.1836 231.291 54.8814 235.381 54.875H235.392ZM235.392 70.7057H235.406C237.709 70.7014 239.872 69.8131 241.496 68.2038C243.113 66.601 244 64.4747 243.996 62.2153C243.994 59.9538 243.099 57.8296 241.477 56.2311C239.851 54.6304 237.691 53.7485 235.392 53.7485H235.379C230.634 53.755 226.779 57.5635 226.786 62.2389C226.795 66.9078 230.654 70.7057 235.392 70.7057Z" fill="#282E53"/>
<path fill-rule="evenodd" clip-rule="evenodd" d="M216.231 57.9469C220.051 57.9469 223.161 61.0259 223.167 64.8109C223.172 68.6022 220.069 71.6898 216.246 71.6963H216.235C214.392 71.6963 212.657 70.9882 211.35 69.7008C210.032 68.4005 209.305 66.6711 209.303 64.8323C209.296 61.0409 212.401 57.9533 216.224 57.9469H216.231ZM216.235 72.8249H216.249C220.726 72.8185 224.363 69.2223 224.354 64.8109H223.761H224.354C224.347 60.4037 220.703 56.8204 216.231 56.8204H216.222C211.744 56.8269 208.107 60.4208 208.114 64.8323C208.116 66.9672 208.963 68.9734 210.492 70.4797C212.027 71.9924 214.065 72.8249 216.235 72.8249Z" fill="#282E53"/>
<path fill-rule="evenodd" clip-rule="evenodd" d="M219.434 63.4031C219.282 63.2915 219.13 63.195 218.99 63.1177C218.245 62.71 217.336 62.6371 216.487 62.7701C215.502 62.9246 214.485 63.3709 213.711 63.9631C213.351 64.2378 213.013 64.7355 212.864 65.1454C212.676 65.6625 213.024 66.1109 213.656 65.847C214.621 65.4436 215.103 64.3386 216.209 64.0725C217.287 63.8172 218.322 64.2957 219.182 64.875C219.388 65.0145 219.615 65.1304 219.81 65.2827C220.45 65.7869 220.811 65.0874 220.58 64.5188C220.389 64.0468 219.819 63.6842 219.434 63.4031Z" fill="black"/>
<path fill-rule="evenodd" clip-rule="evenodd" d="M238.177 60.7796C237.98 60.6359 237.785 60.5093 237.602 60.4084C236.64 59.8785 235.462 59.7862 234.363 59.9579C233.088 60.1595 231.775 60.7346 230.769 61.5027C230.305 61.8568 229.866 62.5026 229.673 63.0347C229.431 63.6999 229.882 64.2813 230.702 63.9423C231.949 63.4209 232.572 61.9855 234.003 61.6465C235.396 61.3161 236.737 61.9319 237.851 62.6828C238.118 62.8631 238.411 63.0133 238.662 63.2128C239.495 63.8651 239.96 62.9596 239.661 62.2215C239.414 61.6122 238.678 61.1423 238.177 60.7796Z" fill="black"/>
<path fill-rule="evenodd" clip-rule="evenodd" d="M239.694 113.146L222.204 107.891L221.565 99.4824C221.565 99.4824 224.725 102.649 235.111 100.823C245.497 98.9972 254.702 93.6569 254.702 93.6569L239.694 113.146Z" fill="white"/>
<path fill-rule="evenodd" clip-rule="evenodd" d="M178.006 164.184C178.006 164.184 177.872 164.232 175.057 164.59C172.244 164.948 169.203 165.038 166.041 164.931C162.88 164.828 159.603 164.528 156.263 164.118C152.92 163.706 149.514 163.185 146.06 162.614L146.042 162.61C140.946 161.771 136.097 165.002 135.21 169.83C134.365 174.43 137.458 178.829 142.16 179.955C145.698 180.796 149.301 181.611 153.006 182.332C156.713 183.051 160.522 183.68 164.488 184.094C168.453 184.504 172.584 184.705 176.894 184.476C181.195 184.242 185.699 183.56 190.17 182.156C193.03 181.26 195.191 179.279 196.314 176.855L196.574 176.284L221.294 122.303C224.073 116.235 221.133 109.183 214.729 106.55C208.324 103.919 200.88 106.704 198.101 112.77C198.015 112.961 197.917 113.191 197.843 113.382L178.006 164.184Z" fill="#EAAC8B"/>
<path fill-rule="evenodd" clip-rule="evenodd" d="M193.956 148.366C191.838 143.399 194.689 138.586 196.85 128.293C197.205 126.609 197.529 124.894 197.797 123.159C197.939 122.236 197.926 122.815 197.917 123.111C197.928 122.991 197.951 122.873 197.96 122.751C197.964 122.699 197.971 122.644 197.975 122.592C197.987 122.429 197.998 122.272 198.009 122.114C198.052 121.536 198.091 120.974 198.127 120.431C198.381 116.629 198.499 113.645 199.176 111.199C199.368 110.501 199.608 109.845 199.907 109.227C200.809 107.373 202.265 105.856 204.713 104.498C206.208 103.665 208.069 102.899 210.4 102.144C211.369 101.833 221.314 98.7431 221.565 99.4834C222.965 103.549 226.058 107.197 230.239 108.811C234.417 110.426 239.656 109.716 242.785 106.635C244.106 105.33 245.005 103.706 245.884 102.103C246.697 100.625 247.51 99.1487 248.323 97.6682C249.016 96.4044 249.763 95.0848 251.011 94.2909C253.991 92.3984 262.851 95.2865 266.123 95.8937C267.12 96.0782 268.148 96.2778 269.19 96.4859C271.878 97.0266 274.089 97.9728 275.88 99.2388C283.646 104.73 283.514 116.256 280.076 127.059C279.105 130.108 278.206 133.258 277.397 136.412C277.284 136.837 277.175 137.26 277.071 137.685C276.908 138.337 276.75 138.987 276.591 139.642C274.181 149.694 272.669 159.497 272.419 166.082C272.25 170.505 270.42 196.848 270.986 202.399C271.108 203.602 271.249 204.832 271.412 206.094L271.409 206.091C271.409 206.094 271.412 206.094 271.414 206.094C271.414 206.094 271.677 210.361 265.607 211.052L198.784 207.862C198.784 207.862 194.773 205.512 195.985 200.648C195.985 200.648 195.998 200.641 196.001 200.641C195.994 200.644 195.987 200.646 195.985 200.646C196.064 199.646 196.134 198.685 196.202 197.766C196.288 196.524 199.128 165.445 199.183 164.39C199.253 163.081 199.291 161.926 199.303 160.961C199.305 160.708 199.307 160.465 199.305 160.238C199.303 160.208 199.303 160.178 199.303 160.148C199.303 160.148 196.22 153.685 193.956 148.366Z" fill="white"/>
<path fill-rule="evenodd" clip-rule="evenodd" d="M273.1 202.349C273.1 202.349 271.834 205.152 274.398 205.476C276.384 205.727 277.442 204.746 277.442 204.746C277.442 204.746 277.19 208.072 281.174 207.465C283.647 207.087 293.897 199.772 297.756 194.994C301.615 190.222 295.981 179.573 286.412 179.815C286.412 179.815 271.515 181.701 265.079 187.398C258.642 193.093 262.904 196.305 263.629 196.803C263.756 196.891 263.867 196.959 263.973 197.017C263.69 197.923 263.813 199.079 265.497 199.981C266.564 200.547 267.293 200.575 267.789 200.388C268.292 199.674 268.793 199.165 268.793 199.165C268.793 199.165 268.616 200.075 267.789 200.388C266.956 201.577 267.45 202.628 268.847 203.6C270.614 204.825 273.1 202.349 273.1 202.349Z" fill="#EAAC8B"/>
<path fill-rule="evenodd" clip-rule="evenodd" d="M114.845 169.586C117.819 172.293 129.231 175.259 132.306 176.789C135.375 178.308 146.637 179.771 146.637 179.771L151.448 170.553C151.448 170.553 151.826 168.225 146.264 162.745C140.715 157.255 131.233 148.084 129.201 149.017C127.24 149.925 131.851 157.81 132.891 159.454L132.992 159.608C133.056 159.703 132.997 159.72 132.823 159.694C130.877 159.293 114.453 150.912 113.024 152.648C112.599 153.18 112.313 154.551 112.202 156.291C112.195 156.409 112.189 156.529 112.189 156.66C112.125 157.945 112.143 159.411 112.257 160.885C112.257 161.018 112.27 161.14 112.291 161.276C112.417 162.745 112.635 164.222 112.95 165.528C112.99 165.668 113.022 165.796 113.056 165.925C113.482 167.558 114.075 168.895 114.845 169.586Z" fill="#EAAC8B"/>
<path fill-rule="evenodd" clip-rule="evenodd" d="M137.717 169.227L137.726 169.221C137.81 169.167 137.828 169.058 137.769 168.979C135.137 165.507 133.187 159.621 133.169 159.563C133.14 159.471 133.035 159.422 132.94 159.45C132.845 159.475 132.789 159.576 132.818 159.669C132.838 159.727 134.804 165.664 137.47 169.182C137.526 169.258 137.635 169.275 137.717 169.227Z" fill="#9F91CA"/>
<path fill-rule="evenodd" clip-rule="evenodd" d="M112.191 156.659L128.563 162.873C128.621 162.886 128.676 162.886 128.726 162.858C128.762 162.835 128.78 162.809 128.8 162.764C128.832 162.68 128.789 162.59 128.694 162.549L112.204 156.29C112.198 156.411 112.191 156.529 112.191 156.659Z" fill="#9F91CA"/>
<path fill-rule="evenodd" clip-rule="evenodd" d="M112.293 161.276L126.631 166.305C126.681 166.326 126.744 166.32 126.794 166.29C126.819 166.275 126.848 166.241 126.866 166.215C126.9 166.112 126.86 166.022 126.762 165.979L112.259 160.885C112.259 161.018 112.272 161.142 112.293 161.276Z" fill="#9F91CA"/>
<path fill-rule="evenodd" clip-rule="evenodd" d="M113.061 165.925L125.657 170.364C125.718 170.379 125.784 170.373 125.82 170.352C125.856 170.328 125.888 170.294 125.895 170.257C125.926 170.171 125.89 170.064 125.788 170.04L112.954 165.528C112.995 165.668 113.027 165.796 113.061 165.925Z" fill="#9F91CA"/>
<mask id="mask1_138_3981" style="mask-type:alpha" maskUnits="userSpaceOnUse" x="94" y="140" width="48" height="40">
<path fill-rule="evenodd" clip-rule="evenodd" d="M141.542 140.426H94.2474V179.395H141.542V140.426Z" fill="white"/>
</mask>
<g mask="url(#mask1_138_3981)">
<path fill-rule="evenodd" clip-rule="evenodd" d="M105.848 140.923L94.6509 152.143C94.0281 152.769 94.1368 153.741 94.8955 154.314L127.44 178.987C128.198 179.564 129.317 179.524 129.94 178.899L141.139 167.677C141.76 167.053 141.651 166.081 140.894 165.506L108.348 140.833C107.592 140.256 106.47 140.299 105.848 140.923Z" fill="#F7996B"/>
</g>
<path fill-rule="evenodd" clip-rule="evenodd" d="M108.01 138.759L96.8134 149.981C96.1906 150.605 96.2993 151.577 97.058 152.152L129.602 176.825C130.361 177.4 131.48 177.359 132.102 176.735L143.302 165.515C143.924 164.891 143.813 163.919 143.057 163.344L110.51 138.669C109.754 138.094 108.633 138.134 108.01 138.759Z" fill="#07080E"/>
<path fill-rule="evenodd" clip-rule="evenodd" d="M111.029 141.386L101.191 151.248L127.713 171.357L137.551 161.495L111.029 141.386Z" fill="#EBEBEB"/>
<path fill-rule="evenodd" clip-rule="evenodd" d="M101.193 151.247L137.556 161.495L111.031 141.386L101.193 151.247Z" fill="#EFF2F9"/>
<mask id="mask2_138_3981" style="mask-type:alpha" maskUnits="userSpaceOnUse" x="193" y="93" width="90" height="119">
<path fill-rule="evenodd" clip-rule="evenodd" d="M254.144 93.658C258.049 93.6923 263.663 95.4367 266.122 95.8937C267.121 96.0783 268.149 96.2778 269.191 96.4859C271.879 97.0266 274.09 97.9729 275.881 99.241C283.645 104.73 283.515 116.256 280.075 127.062C279.104 130.108 278.207 133.258 277.398 136.412C277.283 136.837 277.177 137.262 277.07 137.687C276.909 138.337 276.751 138.987 276.592 139.639C274.183 149.696 272.67 159.5 272.421 166.082C272.251 170.505 270.421 196.846 270.985 202.397C271.107 203.6 271.25 204.83 271.411 206.091C271.413 206.091 271.413 206.091 271.413 206.091C271.413 206.091 271.675 210.357 265.608 211.05L198.785 207.859C198.785 207.859 194.772 205.51 195.986 200.646C195.986 200.646 195.993 200.644 195.997 200.641C195.993 200.644 195.988 200.644 195.984 200.644C196.063 199.644 196.135 198.682 196.201 197.764C196.287 196.524 199.129 165.445 199.184 164.39C199.254 163.083 199.292 161.926 199.301 160.961C199.306 160.708 199.308 160.465 199.304 160.24C199.304 160.206 199.304 160.178 199.304 160.148C199.304 160.148 196.221 153.683 193.957 148.368C191.839 143.399 194.691 138.588 196.851 128.293C197.204 126.609 197.528 124.894 197.795 123.159C197.94 122.238 197.927 122.815 197.915 123.111C197.929 122.991 197.952 122.875 197.961 122.753C197.965 122.702 197.972 122.644 197.974 122.592C197.988 122.431 197.997 122.272 198.011 122.114C198.054 121.536 198.092 120.976 198.128 120.434C198.38 116.629 198.5 113.645 199.175 111.199C199.369 110.499 199.607 109.845 199.908 109.227C200.81 107.371 202.266 105.856 204.714 104.498C206.209 103.665 208.071 102.899 210.401 102.144C211.37 101.831 221.312 98.7432 221.566 99.4834C222.963 103.549 226.059 107.195 230.238 108.813C234.416 110.426 239.657 109.716 242.784 106.635C244.107 105.33 245.004 103.704 245.885 102.103C246.698 100.625 247.509 99.1465 248.322 97.6682C249.017 96.4044 249.764 95.0848 251.012 94.2909C251.707 93.8489 252.72 93.6687 253.906 93.658" fill="white"/>
</mask>
<g mask="url(#mask2_138_3981)">
<path fill-rule="evenodd" clip-rule="evenodd" d="M295.699 174.164C285.994 172.379 275.944 173.113 266.731 176.563C257.83 179.898 250.074 185.373 241.893 189.973C228.355 197.586 210.026 203.465 196.501 192.488C195.115 191.364 197.126 189.476 198.503 190.591C213.507 202.768 233.537 191.885 247.272 183.659C254.685 179.217 262.226 174.748 270.732 172.446C279.112 170.18 287.919 170.008 296.451 171.577C298.238 171.905 297.481 174.491 295.699 174.164Z" fill="#FF9F89"/>
</g>
<mask id="mask3_138_3981" style="mask-type:alpha" maskUnits="userSpaceOnUse" x="193" y="93" width="90" height="119">
<path fill-rule="evenodd" clip-rule="evenodd" d="M254.144 93.658C258.049 93.6923 263.663 95.4367 266.122 95.8937C267.121 96.0783 268.149 96.2778 269.191 96.4859C271.879 97.0266 274.09 97.9729 275.881 99.241C283.645 104.73 283.515 116.256 280.075 127.062C279.104 130.108 278.207 133.258 277.398 136.412C277.283 136.837 277.177 137.262 277.07 137.687C276.909 138.337 276.751 138.987 276.592 139.639C274.183 149.696 272.67 159.5 272.421 166.082C272.251 170.505 270.421 196.846 270.985 202.397C271.107 203.6 271.25 204.83 271.411 206.091C271.413 206.091 271.413 206.091 271.413 206.091C271.413 206.091 271.675 210.357 265.608 211.05L198.785 207.859C198.785 207.859 194.772 205.51 195.986 200.646C195.986 200.646 195.993 200.644 195.997 200.641C195.993 200.644 195.988 200.644 195.984 200.644C196.063 199.644 196.135 198.682 196.201 197.764C196.287 196.524 199.129 165.445 199.184 164.39C199.254 163.083 199.292 161.926 199.301 160.961C199.306 160.708 199.308 160.465 199.304 160.24C199.304 160.206 199.304 160.178 199.304 160.148C199.304 160.148 196.221 153.683 193.957 148.368C191.839 143.399 194.691 138.588 196.851 128.293C197.204 126.609 197.528 124.894 197.795 123.159C197.94 122.238 197.927 122.815 197.915 123.111C197.929 122.991 197.952 122.875 197.961 122.753C197.965 122.702 197.972 122.644 197.974 122.592C197.988 122.431 197.997 122.272 198.011 122.114C198.054 121.536 198.092 120.976 198.128 120.434C198.38 116.629 198.5 113.645 199.175 111.199C199.369 110.499 199.607 109.845 199.908 109.227C200.81 107.371 202.266 105.856 204.714 104.498C206.209 103.665 208.071 102.899 210.401 102.144C211.37 101.831 221.312 98.7432 221.566 99.4834C222.963 103.549 226.059 107.195 230.238 108.813C234.416 110.426 239.657 109.716 242.784 106.635C244.107 105.33 245.004 103.704 245.885 102.103C246.698 100.625 247.509 99.1465 248.322 97.6682C249.017 96.4044 249.764 95.0848 251.012 94.2909C251.707 93.8489 252.72 93.6687 253.906 93.658" fill="white"/>
</mask>
<g mask="url(#mask3_138_3981)">
<path fill-rule="evenodd" clip-rule="evenodd" d="M241.36 176.356C228.793 181.709 215.576 176.315 204.243 170.743C197.884 167.614 191.493 164.317 184.44 162.825C176.321 161.111 168.039 162.544 160.004 163.973C158.222 164.289 157.458 161.705 159.25 161.386C166.356 160.124 173.635 158.819 180.892 159.573C187.5 160.255 193.651 162.664 199.557 165.445C211.662 171.146 226.066 179.946 239.931 174.041C241.579 173.337 243.02 175.648 241.36 176.356Z" fill="#FF9F89"/>
</g>
<mask id="mask4_138_3981" style="mask-type:alpha" maskUnits="userSpaceOnUse" x="193" y="93" width="90" height="119">
<path fill-rule="evenodd" clip-rule="evenodd" d="M254.144 93.658C258.049 93.6923 263.663 95.4367 266.122 95.8937C267.121 96.0783 268.149 96.2778 269.191 96.4859C271.879 97.0266 274.09 97.9729 275.881 99.241C283.645 104.73 283.515 116.256 280.075 127.062C279.104 130.108 278.207 133.258 277.398 136.412C277.283 136.837 277.177 137.262 277.07 137.687C276.909 138.337 276.751 138.987 276.592 139.639C274.183 149.696 272.67 159.5 272.421 166.082C272.251 170.505 270.421 196.846 270.985 202.397C271.107 203.6 271.25 204.83 271.411 206.091C271.413 206.091 271.413 206.091 271.413 206.091C271.413 206.091 271.675 210.357 265.608 211.05L198.785 207.859C198.785 207.859 194.772 205.51 195.986 200.646C195.986 200.646 195.993 200.644 195.997 200.641C195.993 200.644 195.988 200.644 195.984 200.644C196.063 199.644 196.135 198.682 196.201 197.764C196.287 196.524 199.129 165.445 199.184 164.39C199.254 163.083 199.292 161.926 199.301 160.961C199.306 160.708 199.308 160.465 199.304 160.24C199.304 160.206 199.304 160.178 199.304 160.148C199.304 160.148 196.221 153.683 193.957 148.368C191.839 143.399 194.691 138.588 196.851 128.293C197.204 126.609 197.528 124.894 197.795 123.159C197.94 122.238 197.927 122.815 197.915 123.111C197.929 122.991 197.952 122.875 197.961 122.753C197.965 122.702 197.972 122.644 197.974 122.592C197.988 122.431 197.997 122.272 198.011 122.114C198.054 121.536 198.092 120.976 198.128 120.434C198.38 116.629 198.5 113.645 199.175 111.199C199.369 110.499 199.607 109.845 199.908 109.227C200.81 107.371 202.266 105.856 204.714 104.498C206.209 103.665 208.071 102.899 210.401 102.144C211.37 101.831 221.312 98.7432 221.566 99.4834C222.963 103.549 226.059 107.195 230.238 108.813C234.416 110.426 239.657 109.716 242.784 106.635C244.107 105.33 245.004 103.704 245.885 102.103C246.698 100.625 247.509 99.1465 248.322 97.6682C249.017 96.4044 249.764 95.0848 251.012 94.2909C251.707 93.8489 252.72 93.6687 253.906 93.658" fill="white"/>
</mask>
<g mask="url(#mask4_138_3981)">
<path fill-rule="evenodd" clip-rule="evenodd" d="M246.465 171.516C247.74 170.846 249.015 170.175 250.292 169.505C250.94 169.162 251.866 169.334 252.229 169.984C252.58 170.615 252.412 171.456 251.721 171.82C250.444 172.49 249.169 173.161 247.894 173.831C247.246 174.172 246.32 174 245.958 173.35C245.607 172.722 245.774 171.88 246.465 171.516Z" fill="#FF9F89"/>
</g>
<mask id="mask5_138_3981" style="mask-type:alpha" maskUnits="userSpaceOnUse" x="193" y="93" width="90" height="119">
<path fill-rule="evenodd" clip-rule="evenodd" d="M254.144 93.658C258.049 93.6923 263.663 95.4367 266.122 95.8937C267.121 96.0783 268.149 96.2778 269.191 96.4859C271.879 97.0266 274.09 97.9729 275.881 99.241C283.645 104.73 283.515 116.256 280.075 127.062C279.104 130.108 278.207 133.258 277.398 136.412C277.283 136.837 277.177 137.262 277.07 137.687C276.909 138.337 276.751 138.987 276.592 139.639C274.183 149.696 272.67 159.5 272.421 166.082C272.251 170.505 270.421 196.846 270.985 202.397C271.107 203.6 271.25 204.83 271.411 206.091C271.413 206.091 271.413 206.091 271.413 206.091C271.413 206.091 271.675 210.357 265.608 211.05L198.785 207.859C198.785 207.859 194.772 205.51 195.986 200.646C195.986 200.646 195.993 200.644 195.997 200.641C195.993 200.644 195.988 200.644 195.984 200.644C196.063 199.644 196.135 198.682 196.201 197.764C196.287 196.524 199.129 165.445 199.184 164.39C199.254 163.083 199.292 161.926 199.301 160.961C199.306 160.708 199.308 160.465 199.304 160.24C199.304 160.206 199.304 160.178 199.304 160.148C199.304 160.148 196.221 153.683 193.957 148.368C191.839 143.399 194.691 138.588 196.851 128.293C197.204 126.609 197.528 124.894 197.795 123.159C197.94 122.238 197.927 122.815 197.915 123.111C197.929 122.991 197.952 122.875 197.961 122.753C197.965 122.702 197.972 122.644 197.974 122.592C197.988 122.431 197.997 122.272 198.011 122.114C198.054 121.536 198.092 120.976 198.128 120.434C198.38 116.629 198.5 113.645 199.175 111.199C199.369 110.499 199.607 109.845 199.908 109.227C200.81 107.371 202.266 105.856 204.714 104.498C206.209 103.665 208.071 102.899 210.401 102.144C211.37 101.831 221.312 98.7432 221.566 99.4834C222.963 103.549 226.059 107.195 230.238 108.813C234.416 110.426 239.657 109.716 242.784 106.635C244.107 105.33 245.004 103.704 245.885 102.103C246.698 100.625 247.509 99.1465 248.322 97.6682C249.017 96.4044 249.764 95.0848 251.012 94.2909C251.707 93.8489 252.72 93.6687 253.906 93.658" fill="white"/>
</mask>
<g mask="url(#mask5_138_3981)">
<path fill-rule="evenodd" clip-rule="evenodd" d="M188.055 116.728C193.595 118.309 199.442 120.045 203.618 124.047C207.785 128.044 209.484 133.556 212.349 138.339C215.277 143.231 219.594 147.795 225.346 149.666C230.87 151.46 237.311 150.32 241.149 146.018C242.327 144.699 244.322 146.606 243.151 147.915C235.291 156.721 221.618 153.256 214.414 145.669C210.116 141.139 208.089 135.59 204.993 130.366C201.098 123.789 194.575 121.391 187.303 119.314C185.562 118.818 186.304 116.228 188.055 116.728Z" fill="#FF9F89"/>
</g>
<mask id="mask6_138_3981" style="mask-type:alpha" maskUnits="userSpaceOnUse" x="193" y="93" width="90" height="119">
<path fill-rule="evenodd" clip-rule="evenodd" d="M254.144 93.658C258.049 93.6923 263.663 95.4367 266.122 95.8937C267.121 96.0783 268.149 96.2778 269.191 96.4859C271.879 97.0266 274.09 97.9729 275.881 99.241C283.645 104.73 283.515 116.256 280.075 127.062C279.104 130.108 278.207 133.258 277.398 136.412C277.283 136.837 277.177 137.262 277.07 137.687C276.909 138.337 276.751 138.987 276.592 139.639C274.183 149.696 272.67 159.5 272.421 166.082C272.251 170.505 270.421 196.846 270.985 202.397C271.107 203.6 271.25 204.83 271.411 206.091C271.413 206.091 271.413 206.091 271.413 206.091C271.413 206.091 271.675 210.357 265.608 211.05L198.785 207.859C198.785 207.859 194.772 205.51 195.986 200.646C195.986 200.646 195.993 200.644 195.997 200.641C195.993 200.644 195.988 200.644 195.984 200.644C196.063 199.644 196.135 198.682 196.201 197.764C196.287 196.524 199.129 165.445 199.184 164.39C199.254 163.083 199.292 161.926 199.301 160.961C199.306 160.708 199.308 160.465 199.304 160.24C199.304 160.206 199.304 160.178 199.304 160.148C199.304 160.148 196.221 153.683 193.957 148.368C191.839 143.399 194.691 138.588 196.851 128.293C197.204 126.609 197.528 124.894 197.795 123.159C197.94 122.238 197.927 122.815 197.915 123.111C197.929 122.991 197.952 122.875 197.961 122.753C197.965 122.702 197.972 122.644 197.974 122.592C197.988 122.431 197.997 122.272 198.011 122.114C198.054 121.536 198.092 120.976 198.128 120.434C198.38 116.629 198.5 113.645 199.175 111.199C199.369 110.499 199.607 109.845 199.908 109.227C200.81 107.371 202.266 105.856 204.714 104.498C206.209 103.665 208.071 102.899 210.401 102.144C211.37 101.831 221.312 98.7432 221.566 99.4834C222.963 103.549 226.059 107.195 230.238 108.813C234.416 110.426 239.657 109.716 242.784 106.635C244.107 105.33 245.004 103.704 245.885 102.103C246.698 100.625 247.509 99.1465 248.322 97.6682C249.017 96.4044 249.764 95.0848 251.012 94.2909C251.707 93.8489 252.72 93.6687 253.906 93.658" fill="white"/>
</mask>
<g mask="url(#mask6_138_3981)">
<path fill-rule="evenodd" clip-rule="evenodd" d="M228.929 143.964C235.035 143.485 239.823 139.346 245.319 137.215C250.496 135.209 256.314 135.214 261.559 137.033C266.449 138.73 270.593 141.876 273.678 145.826C275.333 147.95 276.642 150.268 277.664 152.722C278.83 155.529 279.793 159.985 283.772 160.08C285.593 160.123 285.597 162.805 283.772 162.762C278.074 162.626 276.627 157.367 274.842 153.231C272.525 147.864 268.397 143.112 262.882 140.477C256.91 137.625 250.184 137.771 244.266 140.612C239.238 143.026 234.718 146.193 228.929 146.646C227.113 146.785 227.124 144.103 228.929 143.964Z" fill="#FF9F89"/>
</g>
<mask id="mask7_138_3981" style="mask-type:alpha" maskUnits="userSpaceOnUse" x="193" y="93" width="90" height="119">
<path fill-rule="evenodd" clip-rule="evenodd" d="M254.144 93.658C258.049 93.6923 263.663 95.4367 266.122 95.8937C267.121 96.0783 268.149 96.2778 269.191 96.4859C271.879 97.0266 274.09 97.9729 275.881 99.241C283.645 104.73 283.515 116.256 280.075 127.062C279.104 130.108 278.207 133.258 277.398 136.412C277.283 136.837 277.177 137.262 277.07 137.687C276.909 138.337 276.751 138.987 276.592 139.639C274.183 149.696 272.67 159.5 272.421 166.082C272.251 170.505 270.421 196.846 270.985 202.397C271.107 203.6 271.25 204.83 271.411 206.091C271.413 206.091 271.413 206.091 271.413 206.091C271.413 206.091 271.675 210.357 265.608 211.05L198.785 207.859C198.785 207.859 194.772 205.51 195.986 200.646C195.986 200.646 195.993 200.644 195.997 200.641C195.993 200.644 195.988 200.644 195.984 200.644C196.063 199.644 196.135 198.682 196.201 197.764C196.287 196.524 199.129 165.445 199.184 164.39C199.254 163.083 199.292 161.926 199.301 160.961C199.306 160.708 199.308 160.465 199.304 160.24C199.304 160.206 199.304 160.178 199.304 160.148C199.304 160.148 196.221 153.683 193.957 148.368C191.839 143.399 194.691 138.588 196.851 128.293C197.204 126.609 197.528 124.894 197.795 123.159C197.94 122.238 197.927 122.815 197.915 123.111C197.929 122.991 197.952 122.875 197.961 122.753C197.965 122.702 197.972 122.644 197.974 122.592C197.988 122.431 197.997 122.272 198.011 122.114C198.054 121.536 198.092 120.976 198.128 120.434C198.38 116.629 198.5 113.645 199.175 111.199C199.369 110.499 199.607 109.845 199.908 109.227C200.81 107.371 202.266 105.856 204.714 104.498C206.209 103.665 208.071 102.899 210.401 102.144C211.37 101.831 221.312 98.7432 221.566 99.4834C222.963 103.549 226.059 107.195 230.238 108.813C234.416 110.426 239.657 109.716 242.784 106.635C244.107 105.33 245.004 103.704 245.885 102.103C246.698 100.625 247.509 99.1465 248.322 97.6682C249.017 96.4044 249.764 95.0848 251.012 94.2909C251.707 93.8489 252.72 93.6687 253.906 93.658" fill="white"/>
</mask>
<g mask="url(#mask7_138_3981)">
<path fill-rule="evenodd" clip-rule="evenodd" d="M292.172 117.807C284.846 116.155 277.232 116.118 269.914 117.854C262.864 119.53 256.881 123.148 250.442 126.164C241.37 130.408 228.302 132.666 221.642 123.407C220.613 121.976 223.066 120.633 224.087 122.053C227.41 126.675 233.76 127.827 239.293 127.048C245.571 126.164 251.119 122.77 256.632 120.017C267.957 114.365 280.377 112.393 292.926 115.221C294.697 115.618 293.948 118.208 292.172 117.807Z" fill="#FF9F89"/>
</g>
<mask id="mask8_138_3981" style="mask-type:alpha" maskUnits="userSpaceOnUse" x="193" y="93" width="90" height="119">
<path fill-rule="evenodd" clip-rule="evenodd" d="M254.144 93.658C258.049 93.6923 263.663 95.4367 266.122 95.8937C267.121 96.0783 268.149 96.2778 269.191 96.4859C271.879 97.0266 274.09 97.9729 275.881 99.241C283.645 104.73 283.515 116.256 280.075 127.062C279.104 130.108 278.207 133.258 277.398 136.412C277.283 136.837 277.177 137.262 277.07 137.687C276.909 138.337 276.751 138.987 276.592 139.639C274.183 149.696 272.67 159.5 272.421 166.082C272.251 170.505 270.421 196.846 270.985 202.397C271.107 203.6 271.25 204.83 271.411 206.091C271.413 206.091 271.413 206.091 271.413 206.091C271.413 206.091 271.675 210.357 265.608 211.05L198.785 207.859C198.785 207.859 194.772 205.51 195.986 200.646C195.986 200.646 195.993 200.644 195.997 200.641C195.993 200.644 195.988 200.644 195.984 200.644C196.063 199.644 196.135 198.682 196.201 197.764C196.287 196.524 199.129 165.445 199.184 164.39C199.254 163.083 199.292 161.926 199.301 160.961C199.306 160.708 199.308 160.465 199.304 160.24C199.304 160.206 199.304 160.178 199.304 160.148C199.304 160.148 196.221 153.683 193.957 148.368C191.839 143.399 194.691 138.588 196.851 128.293C197.204 126.609 197.528 124.894 197.795 123.159C197.94 122.238 197.927 122.815 197.915 123.111C197.929 122.991 197.952 122.875 197.961 122.753C197.965 122.702 197.972 122.644 197.974 122.592C197.988 122.431 197.997 122.272 198.011 122.114C198.054 121.536 198.092 120.976 198.128 120.434C198.38 116.629 198.5 113.645 199.175 111.199C199.369 110.499 199.607 109.845 199.908 109.227C200.81 107.371 202.266 105.856 204.714 104.498C206.209 103.665 208.071 102.899 210.401 102.144C211.37 101.831 221.312 98.7432 221.566 99.4834C222.963 103.549 226.059 107.195 230.238 108.813C234.416 110.426 239.657 109.716 242.784 106.635C244.107 105.33 245.004 103.704 245.885 102.103C246.698 100.625 247.509 99.1465 248.322 97.6682C249.017 96.4044 249.764 95.0848 251.012 94.2909C251.707 93.8489 252.72 93.6687 253.906 93.658" fill="white"/>
</mask>
<g mask="url(#mask8_138_3981)">
<path fill-rule="evenodd" clip-rule="evenodd" d="M200.517 96.3231C208.457 101.569 216.25 107.202 224.5 112.006C228.502 114.336 233.244 116.793 238.104 116.256C242.72 115.746 246.323 112.564 249.514 109.626C250.821 108.425 252.825 110.317 251.516 111.523C248.384 114.407 244.955 117.329 240.666 118.503C235.951 119.792 231.168 118.374 226.926 116.368C222.19 114.128 217.919 111.085 213.591 108.225L199.088 98.6382C197.604 97.6577 199.017 95.3318 200.517 96.3231Z" fill="#FF9F89"/>
</g>
<mask id="mask9_138_3981" style="mask-type:alpha" maskUnits="userSpaceOnUse" x="193" y="93" width="90" height="119">
<path fill-rule="evenodd" clip-rule="evenodd" d="M254.144 93.658C258.049 93.6923 263.663 95.4367 266.122 95.8937C267.121 96.0783 268.149 96.2778 269.191 96.4859C271.879 97.0266 274.09 97.9729 275.881 99.241C283.645 104.73 283.515 116.256 280.075 127.062C279.104 130.108 278.207 133.258 277.398 136.412C277.283 136.837 277.177 137.262 277.07 137.687C276.909 138.337 276.751 138.987 276.592 139.639C274.183 149.696 272.67 159.5 272.421 166.082C272.251 170.505 270.421 196.846 270.985 202.397C271.107 203.6 271.25 204.83 271.411 206.091C271.413 206.091 271.413 206.091 271.413 206.091C271.413 206.091 271.675 210.357 265.608 211.05L198.785 207.859C198.785 207.859 194.772 205.51 195.986 200.646C195.986 200.646 195.993 200.644 195.997 200.641C195.993 200.644 195.988 200.644 195.984 200.644C196.063 199.644 196.135 198.682 196.201 197.764C196.287 196.524 199.129 165.445 199.184 164.39C199.254 163.083 199.292 161.926 199.301 160.961C199.306 160.708 199.308 160.465 199.304 160.24C199.304 160.206 199.304 160.178 199.304 160.148C199.304 160.148 196.221 153.683 193.957 148.368C191.839 143.399 194.69 138.588 196.851 128.293C197.204 126.609 197.528 124.894 197.795 123.159C197.94 122.238 197.927 122.815 197.915 123.111C197.929 122.991 197.952 122.875 197.961 122.753C197.965 122.702 197.972 122.644 197.974 122.592C197.988 122.431 197.997 122.272 198.011 122.114C198.054 121.536 198.092 120.976 198.128 120.434C198.38 116.629 198.5 113.645 199.175 111.199C199.369 110.499 199.607 109.845 199.908 109.227C200.81 107.371 202.266 105.856 204.714 104.498C206.209 103.665 208.071 102.899 210.401 102.144C211.37 101.831 221.312 98.7432 221.566 99.4834C222.963 103.549 226.059 107.195 230.238 108.813C234.416 110.426 239.657 109.716 242.784 106.635C244.107 105.33 245.004 103.704 245.885 102.103C246.698 100.625 247.509 99.1465 248.322 97.6682C249.017 96.4044 249.764 95.0848 251.012 94.2909C251.707 93.8489 252.72 93.6687 253.906 93.658" fill="white"/>
</mask>
<g mask="url(#mask9_138_3981)">
<path fill-rule="evenodd" clip-rule="evenodd" d="M236.086 159.935C241.58 158.128 247.371 156.328 253.255 157.282C258.848 158.19 263.471 161.497 268.499 163.747C274.176 166.294 280.961 167.753 287.081 165.76C292.294 164.063 296.654 159.744 297.086 154.403C297.224 152.693 300.055 152.678 299.917 154.403C299.029 165.348 287.171 170.547 276.769 169.026C270.231 168.069 264.95 164.812 259.156 162.072C255.855 160.51 252.446 159.516 248.723 159.716C244.626 159.939 240.683 161.256 236.838 162.52C235.114 163.086 234.371 160.497 236.086 159.935Z" fill="#FF9F89"/>
</g>
<path fill-rule="evenodd" clip-rule="evenodd" d="M276.816 131.653C285.074 136.809 293.544 141.661 302.2 146.192C304.215 147.25 306.339 148.375 307.497 150.261C310.74 155.539 300.41 164.731 297.294 168.333C295.951 169.883 294.581 171.423 293.19 172.949C292.495 173.713 291.795 174.468 291.093 175.219L290.04 176.335L289.03 177.388L288.872 177.555C284.55 182.061 284.904 189.033 289.662 193.127C292.162 195.279 291.748 199.406 294.934 197.951C302.424 190.701 309.725 183.252 316.789 175.629C324.523 167.282 342.439 151.956 334.132 139.985C331.473 136.153 327.399 133.439 323.427 130.819C309.2 121.447 294.975 112.072 280.748 102.7C277.79 100.75 274.375 98.7047 270.847 99.3935C268.632 99.8248 266.788 101.301 265.402 102.994C261.455 107.828 260.798 114.874 263.794 120.288C266.313 124.835 270.93 127.946 275.442 130.791C275.899 131.078 276.357 131.366 276.816 131.653Z" fill="#EAAC8B"/>
<path fill-rule="evenodd" clip-rule="evenodd" d="M251.278 106.004C251.278 107.045 252.171 107.892 253.271 107.892C254.372 107.892 255.264 107.045 255.264 106.004C255.264 104.961 254.372 104.116 253.271 104.116C252.171 104.116 251.278 104.961 251.278 106.004Z" fill="#FF9F89"/>
<path fill-rule="evenodd" clip-rule="evenodd" d="M204.889 184.918C204.889 185.836 205.675 186.578 206.642 186.578C207.611 186.578 208.395 185.836 208.395 184.918C208.395 183.999 207.611 183.257 206.642 183.257C205.675 183.257 204.889 183.999 204.889 184.918Z" fill="#FF9F89"/>
<path fill-rule="evenodd" clip-rule="evenodd" d="M213.335 184.088C213.335 184.548 213.727 184.919 214.212 184.919C214.696 184.919 215.088 184.548 215.088 184.088C215.088 183.629 214.696 183.255 214.212 183.255C213.727 183.255 213.335 183.629 213.335 184.088Z" fill="#FF9F89"/>
<path fill-rule="evenodd" clip-rule="evenodd" d="M253.402 190.905C253.98 192.074 255.448 192.576 256.682 192.029C257.916 191.486 258.448 190.093 257.871 188.924C257.293 187.754 255.826 187.25 254.591 187.797C253.357 188.345 252.825 189.735 253.402 190.905Z" fill="#FF9F89"/>
<path fill-rule="evenodd" clip-rule="evenodd" d="M263.645 185.075C263.933 185.659 264.669 185.912 265.285 185.64C265.901 185.365 266.168 184.672 265.878 184.086C265.59 183.502 264.857 183.247 264.238 183.521C263.622 183.794 263.357 184.491 263.645 185.075Z" fill="#FF9F89"/>
<path fill-rule="evenodd" clip-rule="evenodd" d="M215.148 137.271C214.579 138.444 215.121 139.831 216.357 140.369C217.596 140.91 219.061 140.397 219.63 139.223C220.198 138.052 219.657 136.664 218.42 136.125C217.182 135.586 215.716 136.099 215.148 137.271Z" fill="#FF9F89"/>
<path fill-rule="evenodd" clip-rule="evenodd" d="M221.929 143.061C221.646 143.647 221.915 144.342 222.534 144.613C223.154 144.881 223.886 144.626 224.171 144.037C224.454 143.451 224.185 142.756 223.566 142.488C222.946 142.217 222.214 142.475 221.929 143.061Z" fill="#FF9F89"/>
<path fill-rule="evenodd" clip-rule="evenodd" d="M232.573 162.09C232.342 161.05 231.266 160.383 230.168 160.601C229.07 160.818 228.365 161.839 228.596 162.88C228.825 163.923 229.903 164.588 231.001 164.369C232.1 164.152 232.804 163.131 232.573 162.09Z" fill="#FF9F89"/>
<path fill-rule="evenodd" clip-rule="evenodd" d="M223.199 164.936C223.083 164.417 222.544 164.082 221.996 164.19C221.446 164.301 221.095 164.81 221.21 165.331C221.324 165.853 221.863 166.186 222.413 166.076C222.963 165.967 223.314 165.456 223.199 164.936Z" fill="#FF9F89"/>
</svg>
