<svg width="230" height="500" viewBox="0 0 230 500" fill="none" xmlns="http://www.w3.org/2000/svg">
<path fill-rule="evenodd" clip-rule="evenodd" d="M94.3173 479.929L115.867 479.83L120.306 448.707L98.756 448.805L94.3173 479.929Z" fill="#EAAC8B"/>
<path fill-rule="evenodd" clip-rule="evenodd" d="M114.972 473.829C109.991 475.25 98.7181 479.902 93.4315 471.701L57.6862 492.426L120.787 491.983L117.846 475.855C117.642 474.396 116.304 473.449 114.972 473.829Z" fill="#E56B6F"/>
<path fill-rule="evenodd" clip-rule="evenodd" d="M114.972 473.829C109.991 475.25 98.7181 479.902 93.4315 471.701L57.6862 492.426L120.787 491.983L117.846 475.855C117.642 474.396 116.304 473.449 114.972 473.829Z" fill="black" fill-opacity="0.2"/>
<path fill-rule="evenodd" clip-rule="evenodd" d="M57.7261 497.77L120.825 497.325L120.786 491.474L57.6872 491.917L57.7261 497.77Z" fill="black"/>
<path fill-rule="evenodd" clip-rule="evenodd" d="M93.8043 480.249C93.6462 480.177 93.5011 480.058 93.3906 479.896C91.0777 476.49 88.756 474.81 88.7322 474.793C88.2752 474.464 88.1496 473.803 88.4572 473.312C88.7604 472.821 89.3884 472.7 89.8367 473.014C89.945 473.089 92.4659 474.902 95.0084 478.64C95.3311 479.119 95.2315 479.787 94.7875 480.133C94.4908 480.363 94.1183 480.395 93.8043 480.249Z" fill="#EFF2F9"/>
<path fill-rule="evenodd" clip-rule="evenodd" d="M88.9443 482.989C88.7841 482.916 88.6411 482.798 88.5307 482.636C86.2177 479.228 83.8939 477.548 83.8722 477.531C83.4152 477.204 83.2896 476.541 83.5972 476.052C83.9004 475.56 84.5306 475.432 84.9767 475.752C85.085 475.827 87.6059 477.64 90.1485 481.379C90.4712 481.856 90.3716 482.527 89.9276 482.873C89.6309 483.1 89.2584 483.134 88.9443 482.989Z" fill="#EFF2F9"/>
<path fill-rule="evenodd" clip-rule="evenodd" d="M84.0843 485.727C83.9262 485.654 83.7811 485.535 83.6728 485.373C81.3576 481.967 79.0338 480.288 79.0121 480.271C78.5552 479.941 78.4296 479.281 78.7371 478.789C79.0403 478.3 79.6684 478.172 80.1167 478.492C80.2249 478.567 82.7459 480.38 85.2884 484.117C85.6133 484.594 85.5137 485.264 85.0675 485.61C84.7708 485.838 84.3983 485.872 84.0843 485.727Z" fill="#EFF2F9"/>
<path fill-rule="evenodd" clip-rule="evenodd" d="M131.699 205.937C131.699 205.937 119.573 233.436 105.37 318.293C91.165 403.151 89.257 460.175 89.257 460.175H132.951L171.05 223.29L161.313 214.053L140.881 205.937H131.699Z" fill="#7F99C3"/>
<path fill-rule="evenodd" clip-rule="evenodd" d="M131.699 205.937C131.699 205.937 119.573 233.436 105.37 318.293C91.165 403.151 89.257 460.175 89.257 460.175H132.951L171.05 223.29L161.313 214.053L140.881 205.937H131.699Z" fill="black" fill-opacity="0.5"/>
<path fill-rule="evenodd" clip-rule="evenodd" d="M165.914 479.058L187.078 478.961L186.959 448.346L165.793 448.443L165.914 479.058Z" fill="#EAAC8B"/>
<path fill-rule="evenodd" clip-rule="evenodd" d="M186.907 473.321C181.926 474.742 170.654 479.394 165.367 471.193L129.622 491.918L192.722 491.475L189.781 475.35C189.578 473.887 188.239 472.941 186.907 473.321Z" fill="#E56B6F"/>
<path fill-rule="evenodd" clip-rule="evenodd" d="M186.907 473.321C181.926 474.742 170.654 479.394 165.367 471.193L129.622 491.918L192.722 491.475L189.781 475.35C189.578 473.887 188.239 472.941 186.907 473.321Z" fill="black" fill-opacity="0.2"/>
<path fill-rule="evenodd" clip-rule="evenodd" d="M129.662 497.77L192.76 497.325L192.721 491.474L129.623 491.917L129.662 497.77Z" fill="black"/>
<path fill-rule="evenodd" clip-rule="evenodd" d="M165.739 480.249C165.579 480.177 165.436 480.058 165.326 479.896C163.013 476.49 160.689 474.81 160.667 474.793C160.208 474.464 160.085 473.803 160.392 473.312C160.696 472.821 161.321 472.7 161.772 473.014C161.88 473.089 164.401 474.902 166.941 478.64C167.266 479.119 167.167 479.787 166.723 480.133C166.426 480.363 166.054 480.395 165.739 480.249Z" fill="#EFF2F9"/>
<path fill-rule="evenodd" clip-rule="evenodd" d="M160.88 482.989C160.719 482.916 160.577 482.798 160.466 482.636C158.153 479.228 155.829 477.548 155.808 477.531C155.348 477.204 155.225 476.541 155.53 476.052C155.836 475.56 156.464 475.432 156.912 475.752C157.02 475.827 159.541 477.64 162.082 481.379C162.407 481.856 162.307 482.527 161.861 482.873C161.566 483.1 161.194 483.134 160.88 482.989Z" fill="#EFF2F9"/>
<path fill-rule="evenodd" clip-rule="evenodd" d="M156.019 485.727C155.859 485.654 155.716 485.535 155.606 485.373C153.293 481.967 150.969 480.288 150.947 480.271C150.488 479.941 150.365 479.281 150.67 478.789C150.975 478.3 151.603 478.172 152.052 478.492C152.16 478.567 154.681 480.38 157.223 484.117C157.546 484.594 157.447 485.264 157.003 485.61C156.706 485.838 156.333 485.872 156.019 485.727Z" fill="#EFF2F9"/>
<mask id="mask0_100_204" style="mask-type:alpha" maskUnits="userSpaceOnUse" x="135" y="187" width="68" height="274">
<path fill-rule="evenodd" clip-rule="evenodd" d="M202.604 187.911H135.539V460.174H202.604V187.911Z" fill="white"/>
</mask>
<g mask="url(#mask0_100_204)">
<path fill-rule="evenodd" clip-rule="evenodd" d="M178.947 205.937C178.947 205.937 201.275 234.216 202.358 275.189C203.608 322.458 199.694 460.175 199.694 460.175L157.855 459.081L135.539 205.937H178.947Z" fill="#7F99C3"/>
<path fill-rule="evenodd" clip-rule="evenodd" d="M178.947 205.937C178.947 205.937 201.275 234.216 202.358 275.189C203.608 322.458 199.694 460.175 199.694 460.175L157.855 459.081L135.539 205.937H178.947Z" fill="black" fill-opacity="0.5"/>
</g>
<path fill-rule="evenodd" clip-rule="evenodd" d="M146.534 91.5733L146.971 108.676C147.114 114.682 150.783 117.804 156.522 117.615C161.423 117.452 165.943 114.693 166.394 109.667L164.449 82.7865L146.534 91.5733Z" fill="#EAAC8B"/>
<path fill-rule="evenodd" clip-rule="evenodd" d="M146.805 99.9144C158.429 99.9265 165.807 84.3033 165.807 84.3033L146.456 88.7787L146.805 99.9144Z" fill="#00023C" fill-opacity="0.18"/>
<path fill-rule="evenodd" clip-rule="evenodd" d="M120.245 57.2578C121.426 58.1588 123.217 58.7833 124.54 57.9135C123.557 57.5924 120.235 56.1539 119.539 51.1026C118.766 47.1909 120.336 45.8528 120.336 45.8528C120.336 45.8528 120.042 45.5874 119.624 45.1325C117.597 47.1017 116.668 50.1213 117.413 52.9514C117.859 54.6463 118.872 56.2119 120.245 57.2578ZM123.054 26.8185C121.978 27.2378 121.058 27.9425 120.579 29.1401C119.916 30.7993 120.25 32.7284 121.12 34.3029C121.482 34.2204 121.714 34.2047 121.714 34.2047C121.714 34.2047 119.912 30.8417 121.722 28.2681C122.134 27.6793 122.593 27.211 123.054 26.8185ZM200.813 64.004C202.047 62.9313 202.859 61.3747 203.123 59.74C203.669 56.3747 201.729 53.1588 198.952 51.5063C198.712 51.6601 198.552 51.7293 198.552 51.7293C198.552 51.7293 201.633 53.1343 201.785 58.1945C201.937 63.2525 196.455 63.0161 196.455 63.0161C196.455 63.0161 196.919 64.1245 197.12 65.7056C198.428 65.3042 199.751 64.9251 200.813 64.004ZM199.992 30.1459C199.043 28.0272 197.484 26.1539 195.63 24.8158C194.473 23.984 193.293 23.665 192.076 23.6427C193.564 24.0152 195.32 24.8091 196.817 26.4728C200.171 30.1972 198.707 35.4157 196.425 36.3925C196.425 36.3925 198.012 37.1619 199.429 39.2293C201.176 36.6668 201.295 33.054 199.992 30.1459ZM118.896 44.2895C117.664 42.7485 116.206 40.3087 117.003 38.054C117.692 36.0981 118.991 35.137 120.053 34.6642C119.102 32.8488 118.762 30.6766 119.524 28.7654C120.64 25.9666 123.522 25.1793 126.223 25.1392C126.21 25.1035 124.087 19.9719 127.249 16.7895C130.422 13.5959 134.888 14.5504 134.888 14.5504C134.888 14.5504 134.959 8.08744 139.65 5.9398C144.343 3.79216 148.482 6.84747 148.482 6.84747C148.482 6.84747 149.076 3.56246 153.396 2.90456C157.717 2.24444 158.728 4.92062 158.728 4.92062C158.728 4.92062 161.349 0.484848 165.457 1.34123C169.565 2.19537 168.898 4.70876 168.898 4.70876C168.898 4.70876 173.464 1.90769 176.281 4.55265C179.097 7.19984 177.826 10.8506 177.826 10.8506C177.826 10.8506 182.96 8.44426 186.854 12.3983C190.172 15.7681 189.254 21.3435 188.91 22.9224C191.368 22.3069 193.737 22.1686 195.985 23.6762C198.201 25.1637 200.074 27.4229 201.118 29.9251C202.536 33.3305 202.218 37.4318 200.055 40.2685C200.615 41.3189 201.101 42.6102 201.369 44.2003C201.96 47.7039 200.858 49.6932 199.864 50.7369C202.734 52.6436 204.739 55.9933 204.267 59.6084C204.031 61.4126 203.253 63.1187 202.012 64.4255C200.67 65.8372 198.935 66.2743 197.204 66.8564C197.237 68.4465 196.923 70.3065 195.717 71.9858C192.86 75.9643 188.743 73.4131 188.743 73.4131C188.743 73.4131 190.584 81.2431 183.099 81.7248C183.099 81.7248 181.247 87.7217 174.709 88.6115C168.171 89.5014 164.4 85.5518 164.4 85.5518L138.169 76.8073C138.169 76.8073 132.213 77.5165 128.668 74.5081C125.123 71.504 127.247 67.153 127.247 67.153C127.247 67.153 124.211 65.9242 123.518 62.3314C123.267 61.0223 123.375 60.099 123.611 59.4434C122.474 59.5816 121.265 59.2382 120.256 58.6428C118.487 57.599 117.161 55.7636 116.505 53.7966C115.368 50.38 116.425 46.6869 118.896 44.2895Z" fill="black"/>
<path fill-rule="evenodd" clip-rule="evenodd" d="M153.043 92.059C143.371 92.7949 134.843 85.5358 133.992 77.4225L132.099 58.2677C131.031 48.0982 136.748 38.9814 146.583 37.5518H146.585C156.651 36.0866 168.974 42.9555 170.397 53.3235L171.757 68.7472C172.81 80.6763 164.561 90.3819 153.043 92.059Z" fill="#EAAC8B"/>
<path fill-rule="evenodd" clip-rule="evenodd" d="M180.814 68.4506C181.398 72.699 178.524 76.633 174.397 77.2329C170.269 77.8328 166.451 74.8756 165.868 70.625C165.283 66.3743 168.157 62.4425 172.285 61.8404C176.411 61.2427 180.231 64.1999 180.814 68.4506Z" fill="#EAAC8B"/>
<path fill-rule="evenodd" clip-rule="evenodd" d="M171.043 72.2053C171.043 72.2053 170.276 66.6254 175.578 66.7503Z" fill="#00023C" fill-opacity="0.18"/>
<path fill-rule="evenodd" clip-rule="evenodd" d="M128.349 54.571C132.223 56.4465 142.105 57.0241 146.125 56.2637C151.169 55.3091 156.081 53.5562 160.642 51.0473C162.121 53.6254 162.885 56.6517 164.56 59.0893C166.232 61.529 169.376 63.2842 171.865 61.8636C178.007 58.3533 174.18 46.3417 170.351 42.8827C146.318 21.1655 124.44 52.6776 128.349 54.571Z" fill="black"/>
<path fill-rule="evenodd" clip-rule="evenodd" d="M147.406 85.17C147.382 85.1634 147.358 85.1544 147.334 85.1477C146.99 85.0608 146.483 85.1901 146.412 84.6816C146.338 84.1442 146.882 84.1843 147.187 84.0126C149.123 84.0795 150.611 83.1852 151.828 81.7133C152.225 81.555 152.55 80.7878 153.022 81.3676C153.505 81.9586 152.727 82.1861 152.489 82.5674C152.339 82.8038 152.017 82.8752 151.928 83.174C150.579 84.2178 149.106 84.9671 147.406 85.17Z" fill="#B96471"/>
<path fill-rule="evenodd" clip-rule="evenodd" d="M147.406 85.1703C149.106 84.9674 150.579 84.218 151.928 83.1743C151.972 83.6672 151.95 84.1667 151.814 84.6351C151.474 85.8193 150.653 86.3969 149.477 86.408C148.567 86.4192 147.822 86.0668 147.406 85.1703Z" fill="#E56B6F" fill-opacity="0.5"/>
<path fill-rule="evenodd" clip-rule="evenodd" d="M151.829 81.7139C150.612 83.1858 149.124 84.08 147.188 84.0131C147.169 82.9092 147.723 82.3405 148.73 82.0395C149.757 81.7384 150.777 81.6291 151.829 81.7139Z" fill="#E56B6F" fill-opacity="0.5"/>
<path fill-rule="evenodd" clip-rule="evenodd" d="M142.401 70.8049C142.273 70.6554 142.147 70.5194 142.024 70.4057C141.376 69.8147 140.497 69.5493 139.631 69.5136C138.628 69.4757 137.53 69.7411 136.64 70.2139C136.226 70.4346 135.784 70.8985 135.551 71.3089C135.258 71.8196 135.505 72.3727 136.185 72.2232C137.222 71.9935 137.933 70.9074 139.079 70.8539C140.194 70.8049 141.114 71.5297 141.84 72.3303C142.013 72.5221 142.212 72.6938 142.37 72.8967C142.897 73.5725 143.399 72.8967 143.295 72.2388C143.206 71.6925 142.721 71.1862 142.401 70.8049Z" fill="black"/>
<path fill-rule="evenodd" clip-rule="evenodd" d="M145.355 73.1506C145.381 72.5261 145.557 71.8638 145.795 71.2193C145.914 70.8959 146.066 70.577 146.49 70.5948C146.93 70.6149 147.133 70.9093 147.216 71.2951C147.276 71.5739 147.311 71.8749 147.276 72.1559C147.112 73.5342 147.205 74.9459 146.804 76.2951C146.687 76.6898 146.492 76.9775 146.059 76.9508C145.572 76.9218 145.31 76.5761 145.253 76.1301C145.128 75.1577 145.16 74.1854 145.355 73.1506Z" fill="#00023C" fill-opacity="0.18"/>
<path fill-rule="evenodd" clip-rule="evenodd" d="M152.992 63.6808C152.556 63.5288 152.009 63.3972 151.819 62.9565C151.632 62.5362 151.94 62.1588 152.297 61.9132C153.455 61.1104 154.891 60.8192 156.406 60.8395C157.281 60.8496 157.684 61.5941 157.229 62.169C156.72 62.8071 154.006 63.7973 152.992 63.6808Z" fill="black"/>
<path fill-rule="evenodd" clip-rule="evenodd" d="M150.105 70.6917C150.153 70.4469 150.068 70.107 150.105 69.9142C150.27 69.0759 150.734 68.3416 151.186 67.6311C152.619 65.3804 154.348 63.5109 157.118 63.7015C158.291 63.7817 159.283 64.1088 160.289 64.7565C160.289 64.7565 160.899 65.4527 161.131 65.7993C161.504 68.3403 159.786 70.1392 158.896 70.8776C156.671 72.7242 155.196 72.3155 151.964 72.0165C150.966 72.3479 150.424 72.0165 150.105 70.6917Z" fill="black"/>
<path fill-rule="evenodd" clip-rule="evenodd" d="M135.38 65.6105C135.986 65.565 136.621 65.6067 136.872 65.6086C138.816 65.798 139.684 66.2167 139.479 66.7244C139.259 67.2586 138.032 67.5692 136.614 67.4764C135.972 67.4347 135.419 67.3059 134.862 67.143C134.224 66.9574 133.738 66.7244 133.876 66.3076C134.022 65.8795 134.642 65.6673 135.38 65.6105Z" fill="black"/>
<path fill-rule="evenodd" clip-rule="evenodd" d="M144.101 69.6379L147.709 68.7202L147.437 67.5815L143.828 68.4992L144.101 69.6379Z" fill="#282E53"/>
<path fill-rule="evenodd" clip-rule="evenodd" d="M162.621 65.4104L171.2 62.5558L170.851 61.4408L162.272 64.2953L162.621 65.4104Z" fill="#282E53"/>
<path fill-rule="evenodd" clip-rule="evenodd" d="M163.001 67.4793L162.433 67.5127C162.542 69.5556 161.905 71.5181 160.638 73.0346C159.378 74.5444 157.645 75.4342 155.759 75.5413C153.859 75.6461 152.053 74.9592 150.639 73.5966C149.22 72.2317 148.38 70.354 148.272 68.3089C148.046 64.1028 151.042 60.5011 154.946 60.2781C158.825 60.1131 162.21 63.3044 162.433 67.5127L163.001 67.4793ZM155.375 76.7233C155.523 76.7233 155.672 76.7188 155.821 76.7099C158.02 76.5872 160.036 75.5524 161.5 73.7973C162.958 72.0489 163.694 69.7942 163.568 67.4458C163.311 62.5975 159.417 58.8508 154.884 59.1118C150.353 59.3682 146.879 63.5252 147.135 68.3736C147.26 70.7197 148.228 72.8785 149.864 74.453C151.395 75.9249 153.337 76.7233 155.375 76.7233Z" fill="#282E53"/>
<path fill-rule="evenodd" clip-rule="evenodd" d="M143.816 71.234C144.026 75.168 141.226 78.5355 137.577 78.7429C133.951 78.9592 130.787 75.9128 130.577 71.9789C130.475 70.0699 131.071 68.2344 132.256 66.8161C133.434 65.4044 135.054 64.5725 136.817 64.4722C140.457 64.2938 143.606 67.2978 143.816 71.234ZM137.228 79.9227C137.364 79.9227 137.499 79.9204 137.637 79.9115C141.915 79.6684 145.194 75.7478 144.951 71.1693C144.706 66.5908 141.018 63.0716 136.756 63.3036C134.679 63.4195 132.775 64.3964 131.394 66.0534C130.016 67.7037 129.323 69.829 129.44 72.0435C129.678 76.4748 133.128 79.9227 137.228 79.9227Z" fill="#282E53"/>
<path fill-rule="evenodd" clip-rule="evenodd" d="M159.396 65.5127C159.364 65.2763 159.14 65.2183 158.976 65.1113C157.88 64.4177 156.03 64.3954 154.967 65.1893C153.568 66.2353 152.394 67.4686 151.632 69.072C151.426 69.5025 151.24 69.9418 151.075 70.3923C151.021 70.5395 150.967 70.6956 150.986 70.8562C151.114 71.8932 153.007 70.0332 153.061 69.3753C153.28 66.6813 156.565 64.9128 158.878 66.0011C159.017 66.0658 159.16 66.1907 159.299 66.0346C159.426 65.8918 159.422 65.6934 159.396 65.5127Z" fill="#EFF2F9"/>
<path fill-rule="evenodd" clip-rule="evenodd" d="M192.697 211.359V223.07L170.454 218.935L168.874 203.474L192.697 211.359Z" fill="#7F99C3"/>
<path fill-rule="evenodd" clip-rule="evenodd" d="M192.697 211.359V223.07L170.454 218.935L168.874 203.474L192.697 211.359Z" fill="black" fill-opacity="0.4"/>
<path fill-rule="evenodd" clip-rule="evenodd" d="M82.2181 140.553C82.2181 140.553 68.1127 143.758 58.3604 153.403L76.5656 148.941L82.2181 140.553Z" fill="#7F99C3"/>
<path fill-rule="evenodd" clip-rule="evenodd" d="M82.2181 140.553C82.2181 140.553 68.1127 143.758 58.3604 153.403L76.5656 148.941L82.2181 140.553Z" fill="black" fill-opacity="0.6"/>
<path fill-rule="evenodd" clip-rule="evenodd" d="M125.141 165.531C126.737 162.061 129.59 157.875 128.372 154.089C127.344 150.886 124.27 148.27 121.501 146.713C118.999 145.304 116.188 144.378 113.336 144.43C106.414 144.561 105.55 149.218 102.988 154.639C101.935 156.87 100.844 158.995 99.6874 160.855C98.5374 162.706 97.3441 164.327 96.2807 165.409C95.7566 165.951 95.2714 166.343 94.9163 166.613C94.5568 166.876 94.3315 166.983 94.2341 167.039C94.1864 167.064 94.1626 167.079 94.0868 167.13L94.1908 167.137L94.3987 167.151C94.9726 167.204 95.3776 167.282 95.7501 167.378C95.9125 167.42 96.0684 167.465 96.2114 167.514C96.3283 167.55 96.4669 167.605 96.5622 167.639C96.9672 167.804 97.1556 167.918 97.2574 167.985C97.357 168.049 97.3527 168.06 97.3137 168.04C97.2704 168.018 97.1881 167.971 97.0755 167.889C96.6185 167.563 95.8649 166.901 95.096 166.158C94.3207 165.402 91.3363 168.995 90.5112 168.076C88.8393 166.245 87.1586 164.204 85.465 162.126C78.708 153.745 67.2492 131.245 67.2492 131.245L52.7236 140.09C53.029 140.828 53.3106 141.49 53.6094 142.179C53.9061 142.864 54.1985 143.549 54.506 144.22C55.1124 145.574 55.7383 146.91 56.3772 148.246C57.6528 150.911 58.9891 153.544 60.3751 156.163C63.1559 161.394 66.1381 166.535 69.4842 171.631C71.1583 174.191 72.9428 176.713 74.9266 179.283C75.9315 180.56 76.9927 181.845 78.1774 183.163C79.3772 184.488 80.6636 185.828 82.4265 187.284C82.864 187.648 83.3513 188.025 83.8906 188.411C84.432 188.799 85.0211 189.193 85.7401 189.608C86.457 190.018 87.2821 190.449 88.3476 190.857C88.6053 190.96 88.9129 191.064 89.1988 191.158C89.5085 191.256 89.8333 191.35 90.1668 191.437C90.8815 191.611 91.6309 191.76 92.5578 191.836L92.8957 191.861L93.1382 191.874L93.3938 191.883L93.9114 191.896C94.2536 191.91 94.6001 191.896 94.9466 191.892C95.6375 191.874 96.3305 191.825 97.0192 191.745C98.3966 191.586 99.7567 191.305 101.054 190.924C103.657 190.159 105.99 189.004 107.997 187.71C110.011 186.415 111.711 184.967 113.214 183.504C116.197 180.556 118.421 177.532 120.314 174.521C122.202 171.51 123.768 168.522 125.141 165.531Z" fill="#EAAC8B"/>
<path fill-rule="evenodd" clip-rule="evenodd" d="M125.141 165.531C126.737 162.061 129.59 157.875 128.372 154.089C127.344 150.886 124.27 148.27 121.501 146.713C118.999 145.304 116.188 144.378 113.336 144.43C106.414 144.561 105.55 149.218 102.988 154.639C101.935 156.87 100.844 158.995 99.6874 160.855C98.5374 162.706 97.3441 164.327 96.2807 165.409C95.7566 165.951 95.2714 166.343 94.9163 166.613C94.5568 166.876 94.3315 166.983 94.2341 167.039C94.1864 167.064 94.1626 167.079 94.0868 167.13L94.1908 167.137L94.3987 167.151C94.9726 167.204 95.3776 167.282 95.7501 167.378C95.9125 167.42 96.0684 167.465 96.2114 167.514C96.3283 167.55 96.4669 167.605 96.5622 167.639C96.9672 167.804 97.1556 167.918 97.2574 167.985C97.357 168.049 97.3527 168.06 97.3137 168.04C97.2704 168.018 97.1881 167.971 97.0755 167.889C96.6185 167.563 95.8649 166.901 95.096 166.158C94.3207 165.402 91.3363 168.995 90.5112 168.076C88.8393 166.245 87.1586 164.204 85.465 162.126C78.708 153.745 67.2492 131.245 67.2492 131.245L52.7236 140.09C53.029 140.828 53.3106 141.49 53.6094 142.179C53.9061 142.864 54.1985 143.549 54.506 144.22C55.1124 145.574 55.7383 146.91 56.3772 148.246C57.6528 150.911 58.9891 153.544 60.3751 156.163C63.1559 161.394 66.1381 166.535 69.4842 171.631C71.1583 174.191 72.9428 176.713 74.9266 179.283C75.9315 180.56 76.9927 181.845 78.1774 183.163C79.3772 184.488 80.6636 185.828 82.4265 187.284C82.864 187.648 83.3513 188.025 83.8906 188.411C84.432 188.799 85.0211 189.193 85.7401 189.608C86.457 190.018 87.2821 190.449 88.3476 190.857C88.6053 190.96 88.9129 191.064 89.1988 191.158C89.5085 191.256 89.8333 191.35 90.1668 191.437C90.8815 191.611 91.6309 191.76 92.5578 191.836L92.8957 191.861L93.1382 191.874L93.3938 191.883L93.9114 191.896C94.2536 191.91 94.6001 191.896 94.9466 191.892C95.6375 191.874 96.3305 191.825 97.0192 191.745C98.3966 191.586 99.7567 191.305 101.054 190.924C103.657 190.159 105.99 189.004 107.997 187.71C110.011 186.415 111.711 184.967 113.214 183.504C116.197 180.556 118.421 177.532 120.314 174.521C122.202 171.51 123.768 168.522 125.141 165.531Z" fill="black" fill-opacity="0.1"/>
<path fill-rule="evenodd" clip-rule="evenodd" d="M67.2219 142.607C65.0908 145.564 61.4719 146.945 57.944 146.347C56.2634 146.061 54.3164 145.508 52.3434 144.476C50.9768 143.76 49.2875 142.482 48.0964 142.618C45.138 142.948 44.0595 140.845 43.308 140.651C42.6085 140.999 41.6209 141.305 40.4102 141.166C38.8704 140.997 37.5926 140.419 36.8455 140H36.8411C33.8979 139.962 31.3294 140.078 30.4999 139.483C28.8409 138.294 27.2275 126.637 30.0538 126.155C33.7961 125.52 31.8946 134.115 35.3121 135.743C35.3121 135.743 32.7414 124.875 36.9538 124.072C39.8298 123.526 40.289 134.362 43.347 136.325C43.347 136.325 40.4492 126.258 43.5571 124.643C46.6649 123.028 46.6562 135.165 49.829 135.479C50.4765 135.54 47.2561 126.882 50.9811 126.414C54.7062 125.948 52.6249 136.293 63.6376 136.059C68.099 135.966 69.9096 138.874 67.2219 142.607Z" fill="#EAAC8B"/>
<path fill-rule="evenodd" clip-rule="evenodd" d="M67.2219 142.607C65.0908 145.564 61.4719 146.945 57.944 146.347C56.2634 146.061 54.3164 145.508 52.3434 144.476C50.9768 143.76 49.2875 142.482 48.0964 142.618C45.138 142.948 44.0595 140.845 43.308 140.651C42.6085 140.999 41.6209 141.305 40.4102 141.166C38.8704 140.997 37.5926 140.419 36.8455 140H36.8411C33.8979 139.962 31.3294 140.078 30.4999 139.483C28.8409 138.294 27.2275 126.637 30.0538 126.155C33.7961 125.52 31.8946 134.115 35.3121 135.743C35.3121 135.743 32.7414 124.875 36.9538 124.072C39.8298 123.526 40.289 134.362 43.347 136.325C43.347 136.325 40.4492 126.258 43.5571 124.643C46.6649 123.028 46.6562 135.165 49.829 135.479C50.4765 135.54 47.2561 126.882 50.9811 126.414C54.7062 125.948 52.6249 136.293 63.6376 136.059C68.099 135.966 69.9096 138.874 67.2219 142.607Z" fill="black" fill-opacity="0.1"/>
<path fill-rule="evenodd" clip-rule="evenodd" d="M103.647 137.315H23.0906C21.0288 137.315 19.3569 135.595 19.3569 133.47C19.3569 131.347 21.0288 129.625 23.0906 129.625H103.647C105.709 129.625 107.381 131.347 107.381 133.47C107.381 135.595 105.709 137.315 103.647 137.315Z" fill="black"/>
<path fill-rule="evenodd" clip-rule="evenodd" d="M83.395 137.315H22.3887C20.9463 137.315 19.636 136.45 19.0361 135.1L2.35789 97.5936C1.23821 95.0825 3.02276 92.2189 5.70826 92.2189H66.7167C68.1591 92.2189 69.4672 93.0842 70.0693 94.4335L86.7475 131.938C87.865 134.454 86.0805 137.315 83.395 137.315Z" fill="black"/>
<path fill-rule="evenodd" clip-rule="evenodd" d="M40.4953 108.014C39.263 110.625 37.6517 112.815 35.9212 114.916C35.5574 115.357 35.4794 115.636 36.023 116.02C37.9159 117.36 39.4167 119.111 40.6599 121.082C41.0345 121.675 41.2793 121.651 41.6366 121.142C43.1743 118.937 44.8224 116.838 46.8344 115.061C47.5079 114.465 46.9491 114.084 46.4857 113.77C44.2225 112.242 42.4639 110.161 40.4953 108.014Z" fill="#E56B6F"/>
<path fill-rule="evenodd" clip-rule="evenodd" d="M146.834 101.88C130.847 104.012 123.578 116.844 117.865 124.225C112.032 131.765 88.5971 163.621 88.5971 163.621C88.5971 163.621 85.565 155.61 80.7636 143.244L60.408 153.124C61.8699 162.624 63.479 173.112 64.2175 178.095C65.7422 188.373 69.8029 209.468 87.2391 209.468C91.7417 209.468 124.349 175.351 124.349 175.351V218.61H133.099L138.634 145.927C144.326 116.532 147.059 101.849 146.834 101.88Z" fill="#7F99C3"/>
<path fill-rule="evenodd" clip-rule="evenodd" d="M146.834 101.88C130.847 104.012 123.578 116.844 117.865 124.225C112.032 131.765 88.5971 163.621 88.5971 163.621C88.5971 163.621 85.565 155.61 80.7636 143.244L60.408 153.124C61.8699 162.624 63.479 173.112 64.2175 178.095C65.7422 188.373 69.8029 209.468 87.2391 209.468C91.7417 209.468 124.349 175.351 124.349 175.351V218.61H133.099L138.634 145.927C144.326 116.532 147.059 101.849 146.834 101.88Z" fill="black" fill-opacity="0.3"/>
<path fill-rule="evenodd" clip-rule="evenodd" d="M173.339 101.759L170.454 218.936L133.1 218.61C133.1 218.61 129.216 155.874 132.851 139.455C136.851 121.382 144.253 102.337 144.253 102.337L146.861 101.759C147.682 106.808 158.664 112.461 167.043 99.7986L173.339 101.759Z" fill="#E56B6F"/>
<path fill-rule="evenodd" clip-rule="evenodd" d="M173.339 101.759L170.454 218.936L133.1 218.61C133.1 218.61 129.216 155.874 132.851 139.455C136.851 121.382 144.253 102.337 144.253 102.337L146.861 101.759C147.682 106.808 158.664 112.461 167.043 99.7986L173.339 101.759Z" fill="black" fill-opacity="0.2"/>
<path fill-rule="evenodd" clip-rule="evenodd" d="M168.399 100.221C168.399 100.221 186.006 105.076 192.889 111.109C199.771 117.139 215.126 152.768 220.712 167.806C228.69 189.291 233.011 222.692 204.603 217.565C176.195 212.438 171.665 210.933 171.665 210.933V196.305L161.113 191.629L159.647 146.091L168.399 100.221Z" fill="#7F99C3"/>
<path fill-rule="evenodd" clip-rule="evenodd" d="M168.399 100.221C168.399 100.221 186.006 105.076 192.889 111.109C199.771 117.139 215.126 152.768 220.712 167.806C228.69 189.291 233.011 222.692 204.603 217.565C176.195 212.438 171.665 210.933 171.665 210.933V196.305L161.113 191.629L159.647 146.091L168.399 100.221Z" fill="black" fill-opacity="0.3"/>
<path fill-rule="evenodd" clip-rule="evenodd" d="M142.429 185.836C144.134 180.109 150.022 176.884 155.586 178.639L155.887 178.735L162.824 180.925C165.161 181.659 167.497 182.375 169.834 183.066C171.136 183.463 172.433 183.82 173.733 184.194C174.406 192.633 174.599 201.188 173.349 209.524C172.117 209.09 170.863 208.673 169.65 208.222C167.183 207.285 164.743 206.311 162.328 205.316C159.915 204.31 157.524 203.278 155.146 202.21L151.592 200.568L148.008 198.826C143.339 196.565 140.872 191.059 142.429 185.836Z" fill="#EAAC8B"/>
<path fill-rule="evenodd" clip-rule="evenodd" d="M154.717 183.815C154.717 183.815 155.057 179.332 152.049 177.064C149.039 174.794 140.068 168.895 138.117 167.064C136.168 165.235 134.273 168.761 136.655 172.062C139.038 175.365 140.785 177.439 140.785 177.439C140.785 177.439 133.285 172.129 129.69 170.012C126.097 167.894 121.543 164.254 120.163 165.276C118.786 166.295 121.348 170.492 131.115 176.629C131.115 176.629 119.199 171.618 117.307 171.417C115.254 171.199 114.552 173.103 119.615 176.281C124.681 179.459 129.933 182.104 129.933 182.104C129.933 182.104 127.605 180.826 125.85 182.394C124.094 183.964 127.334 186.545 127.334 186.545C127.334 186.545 123.325 188.431 128.018 191.598C132.711 194.763 146.301 198.032 149.745 196.379C153.186 194.725 154.717 183.815 154.717 183.815Z" fill="#EAAC8B"/>
<path fill-rule="evenodd" clip-rule="evenodd" d="M175.864 205.611L181.239 206.215C181.895 197.736 180.853 188.817 180.321 185.057C180.163 183.956 179.344 183.084 178.281 182.879L168.944 181.07C169.44 193.452 168.093 204.188 167.396 208.746C167.196 210.06 168.022 211.304 169.282 211.585L177.746 213.47C179.03 213.755 180.316 212.912 180.561 211.585C180.782 210.392 180.955 209.163 181.087 207.917L175.864 205.611Z" fill="#7F99C3"/>
<path fill-rule="evenodd" clip-rule="evenodd" d="M175.864 205.611L181.239 206.215C181.895 197.736 180.853 188.817 180.321 185.057C180.163 183.956 179.344 183.084 178.281 182.879L168.944 181.07C169.44 193.452 168.093 204.188 167.396 208.746C167.196 210.06 168.022 211.304 169.282 211.585L177.746 213.47C179.03 213.755 180.316 212.912 180.561 211.585C180.782 210.392 180.955 209.163 181.087 207.917L175.864 205.611Z" fill="black" fill-opacity="0.5"/>
<path fill-rule="evenodd" clip-rule="evenodd" d="M65.3253 159.272L67.582 164.335C74.9844 160.555 81.8823 155.053 84.7389 152.653C85.577 151.948 85.8823 150.775 85.5077 149.732L82.218 140.552C72.1582 147.352 62.5186 151.679 58.3625 153.403C57.1649 153.9 56.552 155.269 56.9678 156.527L59.7443 164.975C60.1666 166.255 61.5288 166.957 62.7611 166.491C63.8678 166.077 64.981 165.595 66.0877 165.073L65.3253 159.272Z" fill="#7F99C3"/>
<path fill-rule="evenodd" clip-rule="evenodd" d="M65.3253 159.272L67.582 164.335C74.9844 160.555 81.8823 155.053 84.7389 152.653C85.577 151.948 85.8823 150.775 85.5077 149.732L82.218 140.552C72.1582 147.352 62.5186 151.679 58.3625 153.403C57.1649 153.9 56.552 155.269 56.9678 156.527L59.7443 164.975C60.1666 166.255 61.5288 166.957 62.7611 166.491C63.8678 166.077 64.981 165.595 66.0877 165.073L65.3253 159.272Z" fill="black" fill-opacity="0.5"/>
</svg>
