<svg width="52" height="52" viewBox="0 0 52 52" fill="none" xmlns="http://www.w3.org/2000/svg">
<path d="M49.61 37.3981H18.6728C17.7735 37.3981 17.0445 36.669 17.0445 35.7698V16.2303C17.0445 15.3311 17.7735 14.6021 18.6728 14.6021H49.61C50.5093 14.6021 51.2383 15.3311 51.2383 16.2303V35.7696C51.2383 36.6689 50.5093 37.3981 49.61 37.3981Z" fill="#FFE1A0"/>
<path d="M18.6728 37.3981H49.61C50.5093 37.3981 51.2383 36.6691 51.2383 35.7699V16.2303L37.6301 26.7657C35.5761 28.3559 32.7067 28.3559 30.6526 26.7657L17.0445 16.2303V35.7696C17.0445 36.669 17.7735 37.3981 18.6728 37.3981Z" fill="#F7D291"/>
<path d="M34.1413 28.007C32.9501 28.007 31.759 27.6223 30.7651 26.8529L17.0444 16.2304V19.3193L29.2699 28.7842C30.6569 29.8581 32.3871 30.4495 34.1413 30.4495C35.8956 30.4495 37.6256 29.8581 39.0128 28.7842L51.2383 19.3192V16.2303L37.5176 26.8528C36.5238 27.6223 35.3326 28.007 34.1413 28.007Z" fill="#F0C382"/>
<path d="M49.61 13.8405H18.6728C17.3549 13.8405 16.2828 14.9127 16.2828 16.2304V35.7697C16.2828 37.0876 17.355 38.1597 18.6728 38.1597H49.61C50.9279 38.1597 52 37.0875 52 35.7697V16.2304C52 14.9125 50.9278 13.8405 49.61 13.8405ZM18.6728 15.3639H49.61C49.9731 15.3639 50.2843 15.5885 50.413 15.906L37.0512 26.2506C35.338 27.577 32.9446 27.577 31.2314 26.2506L17.8698 15.906C17.9985 15.5885 18.3097 15.3639 18.6728 15.3639ZM49.61 36.6364H18.6728C18.3097 36.6364 17.9985 36.4117 17.8698 36.0942L27.2804 28.8085C27.613 28.551 27.674 28.0725 27.4164 27.7399C27.1588 27.4073 26.6805 27.3463 26.3478 27.6039L17.8061 34.2167V17.7835L30.2987 27.4552C31.4299 28.331 32.7856 28.7689 34.1413 28.7689C35.4969 28.7689 36.8526 28.331 37.9838 27.4552L50.4766 17.7835V34.2166L41.935 27.6038C41.6023 27.3463 41.1239 27.4072 40.8663 27.7398C40.6088 28.0724 40.6697 28.5509 41.0023 28.8084L50.4129 36.0941C50.2842 36.4115 49.9731 36.6364 49.61 36.6364Z" fill="black"/>
<path d="M13.7879 27.6807H4.01822C3.59755 27.6807 3.2565 28.0217 3.2565 28.4424C3.2565 28.8631 3.59755 29.2041 4.01822 29.2041H13.7879C14.2086 29.2041 14.5496 28.8631 14.5496 28.4424C14.5496 28.0217 14.2086 27.6807 13.7879 27.6807Z" fill="black"/>
<path d="M13.7879 31.7513H0.761719C0.341047 31.7513 0 32.0924 0 32.5131C0 32.9337 0.341047 33.2748 0.761719 33.2748H13.7879C14.2086 33.2748 14.5496 32.9337 14.5496 32.5131C14.5496 32.0924 14.2086 31.7513 13.7879 31.7513Z" fill="black"/>
<path d="M13.7879 23.6101H7.27483C6.85415 23.6101 6.51311 23.9512 6.51311 24.3718C6.51311 24.7925 6.85415 25.1335 7.27483 25.1335H13.7879C14.2086 25.1335 14.5496 24.7925 14.5496 24.3718C14.5496 23.9512 14.2086 23.6101 13.7879 23.6101Z" fill="black"/>
<path d="M13.7879 19.5393H10.5313C10.1107 19.5393 9.76961 19.8804 9.76961 20.301C9.76961 20.7217 10.1107 21.0627 10.5313 21.0627H13.7879C14.2086 21.0627 14.5496 20.7217 14.5496 20.301C14.5496 19.8804 14.2086 19.5393 13.7879 19.5393Z" fill="black"/>
</svg>
