<svg width="40" height="40" viewBox="0 0 40 40" fill="none" xmlns="http://www.w3.org/2000/svg">
<g clip-path="url(#clip0_155_4227)">
<path d="M24.6328 30.1563C16.4688 30.1563 9.06253 24.3125 9.06253 16.1484C9.06253 9.57032 13.625 3.18751 19.5703 1.26563C19.9688 1.14063 19.8203 0.742194 19.4063 0.742194C19.3516 0.742194 18.9063 0.898444 18.8516 0.898444C18.2032 0.906257 18.5313 0.625007 17.8985 0.687507C8.07816 1.76563 0.42972 10.2188 0.58597 20.3047C0.74222 30.4922 8.75003 38.7813 18.8282 39.3828C19.211 39.4063 19.6016 39.3359 19.9844 39.3359C30.4375 38.5625 35.211 32.2344 38.9141 22.5703C38.9688 22.4219 38.9219 22.2578 38.9219 22.1016C38.9219 21.6875 38.336 21.5938 38.211 21.9922C37.7422 23.4531 37.5391 22.7266 36.6641 23.9531C33.9922 27.7031 29.6016 30.1563 24.6328 30.1563Z" fill="#FFE282"/>
<path d="M17.75 1.29688C11.8047 3.21094 7.5 8.78906 7.5 15.3672C7.5 23.5312 14.125 30.1562 22.2891 30.1562C22.6797 30.1562 23.0781 30.1406 23.4609 30.1094C15.8438 29.5078 9.84375 23.1328 9.84375 15.3672C9.84375 8.78906 14.1406 3.21094 20.0859 1.29688C20.4844 1.17188 20.3906 0.585938 19.9766 0.585938C19.9219 0.585938 19.8672 0.585938 19.8125 0.585938C19.1641 0.59375 18.5234 0.632812 17.8984 0.695312C18.0625 0.875 18.0313 1.20312 17.75 1.29688Z" fill="#FDDA78"/>
<path d="M38.7031 19.9062C38.2344 21.3672 37.5391 22.7187 36.6719 23.9453C34.9297 32.4453 27.6875 38.8516 18.8281 39.375C19.2109 39.3984 19.6016 39.4141 19.9844 39.4141C30.5547 39.4219 39.1406 31.0547 39.4062 20.4922C39.4062 20.3359 39.4141 20.1797 39.4141 20.0234C39.4141 19.6016 38.8281 19.5156 38.7031 19.9062Z" fill="#FDDA78"/>
<path d="M3.55468 30.9063C3.35937 30.9063 3.17187 30.8125 3.05468 30.6328C1.11718 27.5469 0.062496 23.9766 -3.96417e-06 20.3125C-0.093754 13.8281 3 7.65626 8.27343 3.81251C8.53125 3.62501 8.89843 3.67969 9.09375 3.94532C9.28125 4.20313 9.22656 4.57032 8.96093 4.76563C3.99218 8.38282 1.07812 14.1875 1.17187 20.2969C1.22656 23.7422 2.21875 27.1094 4.04687 30.0156C4.21875 30.2891 4.14062 30.6485 3.85937 30.8203C3.77343 30.8828 3.66406 30.9063 3.55468 30.9063Z" fill="black"/>
<path d="M24.6328 30.7422C20.5312 30.7422 16.6719 29.1406 13.7656 26.2422C10.8594 23.3359 9.26562 19.4766 9.26562 15.375C9.26562 12.0547 10.3047 8.89844 12.2734 6.24219C13.9219 4.01562 16.0937 2.29688 18.6172 1.23438C15.9687 1.42969 13.3828 2.19531 11.0547 3.46094C10.7734 3.61719 10.4141 3.50781 10.2578 3.22656C10.1016 2.94531 10.2109 2.58594 10.4922 2.42969C13.3359 0.867188 16.5625 0.03125 19.8125 0H19.9766C20.4531 0 20.8437 0.328125 20.9141 0.796875C20.9922 1.27344 20.7187 1.70313 20.2656 1.85156C17.4297 2.76562 14.9922 4.52344 13.2031 6.92969C11.3828 9.38281 10.4219 12.3047 10.4219 15.3672C10.4219 19.1562 11.8984 22.7188 14.5859 25.4062C17.2656 28.0859 20.8359 29.5703 24.625 29.5703C26.3672 29.5703 28.0703 29.2578 29.6875 28.6406C29.9922 28.5234 30.3281 28.6797 30.4453 28.9766C30.5625 29.2812 30.4062 29.6172 30.1094 29.7344C28.3672 30.3984 26.5156 30.7422 24.6328 30.7422Z" fill="black"/>
<path d="M20 40H19.9922C13.9688 40 8.32817 37.3203 4.51567 32.6562C4.31255 32.4062 4.35161 32.0391 4.60161 31.8281C4.85161 31.625 5.2188 31.6641 5.42974 31.9141C9.02349 36.3047 14.336 38.8281 20 38.8281H20.0079C24.961 38.8281 29.6329 36.9375 33.1641 33.5C36.4766 30.2656 38.4532 25.9922 38.7891 21.3828C37.5313 24.3437 35.3594 26.8594 32.5704 28.5391C32.2969 28.7031 31.9297 28.6172 31.7657 28.3437C31.6016 28.0703 31.6875 27.7031 31.961 27.5391C34.9063 25.7656 37.1016 22.9922 38.1485 19.7344C38.2969 19.2812 38.7266 19.0078 39.2032 19.0859C39.6719 19.1641 40.0079 19.5469 40 20.0234C40 20.1875 40 20.3516 39.9922 20.5078C39.8594 25.7734 37.7266 30.6797 33.9688 34.3359C30.2266 37.9922 25.2579 40 20 40Z" fill="black"/>
</g>
<defs>
<clipPath id="clip0_155_4227">
<rect width="40" height="40" fill="white"/>
</clipPath>
</defs>
</svg>
