<svg width="40" height="40" viewBox="0 0 40 40" fill="none" xmlns="http://www.w3.org/2000/svg">
<g clip-path="url(#clip0_100_170)">
<path d="M29.8276 19.9999C29.8276 25.8591 25.8591 30.6088 19.9999 30.6088C14.1408 30.6088 9.39111 25.8591 9.39111 19.9999C9.39111 14.1408 14.1409 9.39102 20 9.39102C25.8592 9.39102 29.8276 14.1408 29.8276 19.9999Z" fill="#FED21C"/>
<path d="M20 9.39102C19.6038 9.39102 19.213 9.41344 18.8281 9.45579C24.1357 10.0391 28.2652 14.537 28.2652 19.9999C28.2652 25.4629 24.1357 29.9607 18.8281 30.5441C19.213 30.5864 19.6038 30.6088 20 30.6088C25.8591 30.6088 30.6089 25.8591 30.6089 19.9999C30.6089 14.1408 25.8591 9.39102 20 9.39102Z" fill="#FED21C"/>
<path d="M20 6.79136H18.0814C17.8003 6.79136 17.6039 6.513 17.6982 6.24808L18.7525 3.28519L19.6168 0.856284C19.7451 0.495659 20.255 0.495659 20.3834 0.856284L21.2477 3.28519L22.302 6.24808C22.3963 6.513 22.1998 6.79136 21.9187 6.79136H20Z" fill="#FED21C"/>
<path d="M20 33.2085H21.9186C22.1997 33.2085 22.3961 33.4868 22.3018 33.7517L21.2475 36.7146L20.3832 39.1435C20.2549 39.5042 19.745 39.5042 19.6166 39.1435L18.7523 36.7146L17.698 33.7517C17.6038 33.4868 17.8002 33.2085 18.0813 33.2085H20Z" fill="#FED21C"/>
<path d="M33.2088 19.9999V18.0814C33.2088 17.8002 33.4872 17.6038 33.7521 17.6981L36.715 18.7524L39.1439 19.6167C39.5045 19.745 39.5045 20.2549 39.1439 20.3833L36.715 21.2476L33.7521 22.3019C33.4872 22.3962 33.2088 22.1997 33.2088 21.9186V19.9999Z" fill="#FED21C"/>
<path d="M6.79142 19.9999V21.9185C6.79142 22.1997 6.51306 22.3961 6.24814 22.3018L3.28525 21.2475L0.856345 20.3832C0.49572 20.2548 0.49572 19.7449 0.856345 19.6166L3.28525 18.7523L6.24814 17.698C6.51306 17.6038 6.79142 17.8002 6.79142 18.0813V19.9999Z" fill="#FED21C"/>
<path d="M10.6599 10.6601L9.30328 12.0168C9.10445 12.2156 8.76874 12.1576 8.64812 11.9036L7.29859 9.06309L6.19218 6.73442C6.02788 6.38872 6.38851 6.0281 6.73429 6.19232L9.06296 7.29864L11.9035 8.64825C12.1575 8.76887 12.2154 9.10465 12.0166 9.3034L10.6599 10.6601Z" fill="#FED21C"/>
<path d="M29.3396 29.3398L30.6962 27.9832C30.8951 27.7844 31.2308 27.8423 31.3514 28.0963L32.701 30.9369L33.8073 33.2656C33.9716 33.6113 33.611 33.9719 33.2652 33.8077L30.9365 32.7013L28.096 31.3517C27.842 31.2311 27.7841 30.8953 27.9829 30.6966L29.3396 29.3398Z" fill="#FED21C"/>
<path d="M29.3397 10.6602L27.9831 9.30353C27.7842 9.10471 27.8422 8.769 28.0962 8.64838L30.9367 7.29877L33.2654 6.19244C33.6111 6.02814 33.9717 6.38877 33.8075 6.73455L32.7012 9.06322L31.3516 11.9038C31.2309 12.1578 30.8952 12.2156 30.6964 12.0169L29.3397 10.6602Z" fill="#FED21C"/>
<path d="M10.6604 29.3398L12.017 30.6964C12.2158 30.8953 12.1579 31.231 11.9039 31.3516L9.06335 32.7012L6.73468 33.8075C6.38898 33.9718 6.02836 33.6112 6.19258 33.2654L7.2989 30.9368L8.64851 28.0962C8.76913 27.8422 9.10491 27.7843 9.30366 27.9831L10.6604 29.3398Z" fill="#FED21C"/>
<path d="M20.0002 40C19.5746 40 19.2075 39.741 19.0649 39.3401L17.1463 33.9482C17.0382 33.6447 17.0846 33.3064 17.2704 33.0431C17.4561 32.7798 17.7594 32.6226 18.0816 32.6226H21.9188C22.241 32.6226 22.5442 32.7798 22.7299 33.0431C22.9156 33.3064 22.9621 33.6447 22.8541 33.9482L20.9355 39.34C20.7928 39.741 20.4257 40 20.0002 40ZM18.3354 33.7945L20.0002 38.473L21.6649 33.7945H18.3354ZM21.9188 33.7945H21.9195H21.9188Z" fill="black"/>
<path d="M33.6161 22.9113C33.4136 22.9113 33.2129 22.8494 33.0433 22.7298C32.78 22.5441 32.6228 22.2408 32.6228 21.9186V18.0814C32.6228 17.7593 32.78 17.456 33.0433 17.2703C33.3066 17.0845 33.645 17.0382 33.9485 17.1461L39.3403 19.0647C39.7412 19.2074 40.0003 19.5745 40.0003 20C40.0003 20.4256 39.7412 20.7927 39.3403 20.9353L33.9485 22.8539C33.8405 22.8924 33.728 22.9113 33.6161 22.9113ZM33.7947 18.3353V21.6648L38.4732 20L33.7947 18.3353Z" fill="black"/>
<path d="M6.38414 22.9113C6.27219 22.9113 6.15977 22.8924 6.05172 22.854L0.66 20.9354C0.259062 20.7927 0 20.4256 0 20C0 19.5745 0.259062 19.2074 0.659922 19.0647L6.0518 17.1461C6.35531 17.0381 6.69367 17.0846 6.95695 17.2703C7.22023 17.456 7.37742 17.7593 7.37742 18.0815V21.9186C7.37742 22.2408 7.22023 22.5441 6.95695 22.7298C6.78734 22.8495 6.58664 22.9113 6.38414 22.9113ZM1.52703 20L6.20555 21.6648V18.3353L1.52703 20Z" fill="black"/>
<path d="M9.01511 12.7218C8.95909 12.7218 8.90277 12.717 8.84667 12.7073C8.52917 12.6525 8.25714 12.4461 8.11886 12.1551L5.66292 6.98587C5.48034 6.60158 5.55675 6.15876 5.85761 5.85783C6.15847 5.55697 6.60128 5.48048 6.98566 5.66314L12.1548 8.11907C12.4459 8.25735 12.6523 8.52946 12.7071 8.84696C12.7619 9.16446 12.6585 9.49001 12.4307 9.71782L9.71745 12.4311C9.53003 12.6187 9.27612 12.7218 9.01511 12.7218ZM11.4228 9.06868L6.93745 6.93767L9.06847 11.4231L11.4228 9.06868Z" fill="black"/>
<path d="M33.4437 34.435C33.2991 34.435 33.1526 34.4028 33.0138 34.3369L27.8447 31.881C27.5536 31.7427 27.3471 31.4706 27.2923 31.1531C27.2376 30.8355 27.3409 30.51 27.5687 30.2822L30.2819 27.5689C30.5098 27.341 30.8354 27.2378 31.1529 27.2926C31.4704 27.3474 31.7424 27.5539 31.8806 27.8449L34.3365 33.0141C34.5191 33.3984 34.4427 33.8413 34.1418 34.1422C33.9497 34.3343 33.6995 34.435 33.4437 34.435ZM28.5768 30.9313L33.0622 33.0624L30.9312 28.5769L28.5768 30.9313Z" fill="black"/>
<path d="M30.9844 12.7218C30.7234 12.7218 30.4695 12.6187 30.2819 12.4311L27.5687 9.71782C27.3409 9.48993 27.2376 9.16438 27.2923 8.84688C27.3472 8.52939 27.5536 8.25735 27.8446 8.11907L33.0139 5.66314C33.3982 5.48048 33.8409 5.55697 34.1419 5.85783C34.4428 6.15876 34.5193 6.60158 34.3366 6.98587L31.8807 12.1551C31.7424 12.4462 31.4703 12.6526 31.1528 12.7073C31.0967 12.7171 31.0404 12.7218 30.9844 12.7218ZM31.1106 11.6025H31.1114H31.1106ZM30.9311 11.423L33.0621 6.93759L28.5767 9.0686L30.9311 11.423Z" fill="black"/>
<path d="M6.55585 34.435C6.30007 34.435 6.04991 34.3343 5.85765 34.1421C5.55679 33.8412 5.4803 33.3984 5.66296 33.0141L8.11882 27.845C8.2571 27.5539 8.52921 27.3475 8.84671 27.2927C9.16406 27.2378 9.48976 27.3411 9.71757 27.569L12.4309 30.2823C12.6588 30.5102 12.762 30.8357 12.7072 31.1532C12.6523 31.4707 12.4459 31.7428 12.1549 31.8811L6.98569 34.3369C6.84694 34.4028 6.70046 34.435 6.55585 34.435ZM9.06851 28.577L6.93749 33.0624L11.4229 30.9314L9.06851 28.577ZM11.6023 31.1107H11.603H11.6023Z" fill="black"/>
<path d="M21.9183 7.37742H18.0811C17.7589 7.37742 17.4556 7.22023 17.2699 6.95695C17.0842 6.69367 17.0377 6.35531 17.1458 6.0518L17.6826 4.54305C17.7912 4.23812 18.1263 4.07891 18.4311 4.18742C18.736 4.29594 18.8951 4.63102 18.7867 4.93586L18.3349 6.20555H21.6644L19.9997 1.52703L19.643 2.52938C19.5345 2.83422 19.1992 2.99328 18.8946 2.885C18.5897 2.77648 18.4305 2.44141 18.539 2.13656L19.0644 0.660078C19.207 0.259063 19.5741 0 19.9997 0C20.4252 0 20.7923 0.259062 20.935 0.659922L22.8536 6.0518C22.9616 6.35531 22.9152 6.69367 22.7294 6.95695C22.5437 7.22023 22.2404 7.37742 21.9183 7.37742Z" fill="black"/>
<path d="M11.6844 27.1741C11.5118 27.1741 11.3407 27.0981 11.2251 26.9523C9.64185 24.9567 8.80505 22.5527 8.80505 20C8.80505 13.8272 13.827 8.80516 19.9999 8.80516C25.6627 8.80516 30.441 13.0389 31.1145 18.6533C31.153 18.9745 30.9238 19.2663 30.6025 19.3048C30.2815 19.3434 29.9895 19.1142 29.9509 18.7928C29.348 13.767 25.07 9.97704 19.9999 9.97704C14.4732 9.97704 9.97693 14.4733 9.97693 20C9.97693 22.2855 10.726 24.4377 12.1431 26.2241C12.3442 26.4776 12.3018 26.8461 12.0483 27.0473C11.9405 27.1327 11.8121 27.1741 11.6844 27.1741Z" fill="black"/>
<path d="M19.9998 31.1948C17.4899 31.1948 15.1177 30.383 13.1398 28.8473C12.8843 28.6489 12.8379 28.2809 13.0364 28.0252C13.2348 27.7697 13.6029 27.7234 13.8585 27.9218C15.6289 29.2964 17.7525 30.023 19.9997 30.023C22.4982 30.023 24.8915 29.0984 26.7388 27.4193C28.5737 25.7516 29.7215 23.4809 29.9709 21.0255C30.0035 20.7036 30.291 20.4691 30.613 20.5018C30.9349 20.5345 31.1694 20.822 31.1367 21.1439C30.8582 23.8874 29.5761 26.424 27.527 28.2865C25.4636 30.162 22.7904 31.1948 19.9998 31.1948Z" fill="black"/>
</g>
<defs>
<clipPath id="clip0_100_170">
<rect width="40" height="40" fill="white"/>
</clipPath>
</defs>
</svg>
