<svg width="48" height="48" viewBox="0 0 48 48" fill="none" xmlns="http://www.w3.org/2000/svg">
<g clip-path="url(#clip0_149_435)">
<path d="M4.13654 18.4578L0.800278 15.1215L11.9375 3.98395L20.3867 12.4332L14.8683 22.9247L4.13654 18.4578Z" fill="#CFD8DC"/>
<path d="M4.13654 19.2581C3.92447 19.2581 3.72083 19.1735 3.57103 19.0237L0.800279 16.2529C0.17544 15.6277 0.17544 14.615 0.800279 13.9902L10.8061 3.98395C11.439 3.37889 12.436 3.37889 13.0689 3.98395L20.9526 11.8666C21.2555 12.1805 21.2515 12.6797 20.9427 12.9881C20.634 13.2968 20.1351 13.3012 19.8212 12.998L11.9375 5.11532L1.93165 15.1215L4.70241 17.8923C4.93095 18.1208 4.99944 18.4651 4.87565 18.764C4.75185 19.0629 4.46031 19.2581 4.13654 19.2581Z" fill="#E6E7E8"/>
<path d="M42.9337 21.1622C42.3656 21.186 41.6137 21.1622 40.7335 21.1223C33.5886 20.7542 17.7863 18.4819 17.7863 18.4819C17.4285 18.4662 17.1245 18.2146 17.0424 17.8659L16.2502 14.3373C16.2396 14.3066 16.237 14.2736 16.2421 14.2414C16.1945 13.8378 16.4612 13.4638 16.8582 13.377L21.0508 12.4331L39.7732 8.23252C40.2061 8.13583 40.6358 8.40796 40.7335 8.84051L42.9176 18.6097C42.9337 18.6819 43.79 21.13 42.9337 21.1622Z" fill="white"/>
<path d="M42.9337 21.1622C42.3656 21.186 41.6137 21.1622 40.7335 21.1223C33.5886 20.7542 17.7863 18.4819 17.7863 18.4819C17.4285 18.4662 17.1245 18.2146 17.0424 17.8659L16.2502 14.3373C16.2396 14.3066 16.237 14.2736 16.2421 14.2414C16.1945 13.8378 16.4612 13.4638 16.8582 13.377L21.0508 12.4331L39.7732 8.23252C40.2061 8.13583 40.6358 8.40796 40.7335 8.84051L42.9176 18.6097C42.9337 18.6819 43.79 21.13 42.9337 21.1622Z" fill="black" fill-opacity="0.2"/>
<path d="M40.7335 21.1223C33.5886 20.7542 17.7863 18.4819 17.7863 18.4819C17.4285 18.4662 17.1245 18.2145 17.0424 17.8659L16.2502 14.3373C16.2396 14.3066 16.237 14.2736 16.2421 14.2414L18.5386 13.7213L37.2691 9.52064C37.6998 9.42651 38.1254 9.69828 38.221 10.1286L40.4134 19.9059C40.5442 20.3048 40.6511 20.7106 40.7335 21.1223Z" fill="white"/>
<path d="M36.0047 19.2581C35.8385 19.2577 35.6762 19.2057 35.5407 19.109L29.548 18.7555C29.4626 18.9709 29.2879 19.1387 29.0693 19.2156C28.8502 19.2921 28.6092 19.2705 28.4078 19.1555L24.0032 18.4578C24.0032 18.8999 23.645 19.2581 23.2033 19.2581C22.7612 19.2581 22.403 18.8999 22.403 18.4578L22.403 15.2574C22.4026 14.9714 22.5546 14.7066 22.8022 14.5633C23.0502 14.4201 23.3553 14.4198 23.6032 14.563L28.4038 17.3074L29.6615 14.1597C29.7527 13.9315 29.9439 13.7579 30.1798 13.6891C30.4153 13.6199 30.6698 13.6631 30.8698 13.8059L36.4706 17.8066C36.7537 18.0087 36.8739 18.371 36.7677 18.7024C36.6611 19.0335 36.3527 19.2584 36.0047 19.2581Z" fill="#FED21C"/>
<path d="M36.805 16.0576C35.4792 16.0576 34.4046 14.9827 34.4046 13.6572C34.4046 12.3317 35.4792 11.2567 36.805 11.2567C38.1305 11.2567 39.2051 12.3317 39.2051 13.6572C39.2051 14.9827 38.1305 16.0576 36.805 16.0576Z" fill="#E56B6F"/>
<path d="M47.2064 21.6581L44.5419 42.6609C44.4412 43.4597 43.7629 44.0593 42.9578 44.0611L41.6294 44.0611C42.0843 44.0604 42.5176 43.8666 42.8212 43.5278C43.1248 43.189 43.2706 42.7371 43.2219 42.2851L42.7978 38.4603L40.9335 21.6581L40.9255 21.6581L40.6053 18.7618L40.5815 18.5219L47.2064 21.6581Z" fill="#B9E1F5"/>
<path d="M47.2064 21.6581L44.5419 42.6609C44.4412 43.4597 43.7629 44.0593 42.9578 44.0611L41.6294 44.0611C42.0843 44.0604 42.5176 43.8666 42.8212 43.5278C43.1248 43.189 43.2706 42.7371 43.2219 42.2851L42.7978 38.4603L40.9335 21.6581L40.9255 21.6581L40.6053 18.7618L40.5815 18.5219L47.2064 21.6581Z" fill="black" fill-opacity="0.2"/>
<path d="M41.6294 44.0611L5.07269 44.0611C4.25777 44.0585 3.57359 43.4465 3.48056 42.6371L2.3045 32.0515L2.13639 30.5073L0.800278 18.4578L40.5735 18.4578L41.9176 30.5234L42.0696 31.9075L43.2219 42.2851C43.2706 42.7371 43.1248 43.189 42.8212 43.5278C42.5176 43.8666 42.0843 44.0604 41.6294 44.0611Z" fill="#B9E1F5"/>
<path d="M41.6294 44.0611L5.07269 44.0611C4.25777 44.0585 3.57359 43.4465 3.48056 42.6371L2.3045 32.0515L2.13639 30.5073L0.800278 18.4578L40.5735 18.4578L41.9176 30.5234L42.0696 31.9075L43.2219 42.2851C43.2706 42.7371 43.1248 43.189 42.8212 43.5278C42.5176 43.8666 42.0843 44.0604 41.6294 44.0611Z" fill="black" fill-opacity="0.2"/>
<path d="M39.2293 44.0611L5.07269 44.0611C4.25777 44.0585 3.57359 43.4465 3.48056 42.6371L2.30451 32.0515L2.13639 30.5073L0.800278 18.4578L38.173 18.4578L39.5172 30.5234L39.6692 31.9075L40.8214 42.2851C40.8702 42.7371 40.7247 43.189 40.4211 43.5278C40.1175 43.8666 39.6842 44.0604 39.2293 44.0611Z" fill="#B9E1F5"/>
<path d="M24.8035 31.2596C24.8035 33.0272 23.3703 34.46 21.6031 34.46C19.8355 34.46 18.4023 33.0272 18.4023 31.2596C18.4023 29.4921 19.8355 28.0593 21.6031 28.0593C23.3703 28.0593 24.8035 29.4921 24.8035 31.2596Z" fill="#7F99C3"/>
<path d="M24.8035 31.2596C24.8035 33.0272 23.3703 34.46 21.6031 34.46C19.8355 34.46 18.4023 33.0272 18.4023 31.2596C18.4023 29.4921 19.8355 28.0593 21.6031 28.0593C23.3703 28.0593 24.8035 29.4921 24.8035 31.2596Z" fill="black" fill-opacity="0.2"/>
<path d="M0.204014 17.9241C0.0523824 18.0937 -0.0201371 18.3197 0.0047686 18.5456L2.68762 42.7257C2.77918 43.5322 3.27363 44.2369 4.00066 44.5973C4.14936 44.7636 4.36143 44.8595 4.58484 44.8614L42.956 44.8614C44.1643 44.8592 45.1832 43.9611 45.3374 42.7627L48.0001 21.7592C48.0001 21.7504 48.0001 21.7431 48.0001 21.7343C47.9958 21.6306 47.9859 21.527 47.9697 21.4244C47.9511 21.3765 47.9276 21.3303 47.9002 21.2871C47.8796 21.2409 47.8551 21.197 47.8265 21.1556C47.7943 21.1226 47.7595 21.0922 47.7225 21.0644C47.6811 21.0241 47.635 20.9882 47.5855 20.9582C47.5775 20.9582 47.5735 20.9461 47.5654 20.9421L43.846 19.0833L41.3375 7.882C41.291 7.67396 41.1639 7.49303 40.9833 7.37949C40.8031 7.26558 40.5852 7.22859 40.3776 7.27621L20.7651 11.6801L12.5034 3.41583C12.191 3.10341 11.6844 3.10341 11.372 3.41583L0.234413 14.5556C-0.0780061 14.868 -0.0780061 15.3746 0.234413 15.687L2.20526 17.6578L0.800284 17.6578C0.572471 17.6578 0.356011 17.7545 0.204014 17.9241ZM43.9138 41.2687L41.5206 19.71L46.3414 22.12L43.9138 41.2687ZM42.0001 18.1603L41.1632 17.7417C41.017 17.6736 40.8537 17.652 40.6951 17.6802C40.6563 17.6695 40.6167 17.6619 40.5768 17.6578L36.2615 17.6578L30.8691 13.8059C30.6691 13.663 30.4146 13.6198 30.1787 13.689C29.9432 13.7579 29.752 13.9315 29.6608 14.1597L28.4038 17.3073L23.6032 14.5629C23.3553 14.4197 23.0502 14.4201 22.8022 14.5633C22.5546 14.7065 22.4026 14.9713 22.403 15.2574L22.403 17.6578L17.8185 17.6578L17.0303 14.1579L39.9516 9.01667L42.0001 18.1603ZM33.5084 17.6578L29.9879 17.6578L30.7713 15.7005L33.5084 17.6578ZM25.7916 17.6578L24.0032 17.6578L24.0032 16.636L25.7916 17.6578ZM1.93166 15.1215L11.9375 5.11528L18.9169 12.0947L15.8982 12.7771C15.6902 12.8236 15.5096 12.951 15.3961 13.1312C15.2826 13.3114 15.2456 13.5297 15.2932 13.737L16.1781 17.6578L4.46801 17.6578L1.93166 15.1215ZM39.8604 19.258L40.1127 21.5244C40.0996 21.5684 40.0904 21.6131 40.0853 21.6581C40.0867 21.7746 40.1142 21.8889 40.1655 21.9936L41.1038 30.4593L28.0038 30.4593C27.5618 30.4593 27.2036 30.8175 27.2036 31.2596C27.2036 31.7013 27.5618 32.0595 28.0038 32.0595L41.2855 32.0595L42.4297 42.373C42.4546 42.5997 42.3817 42.8264 42.229 42.9964C42.0766 43.166 41.8587 43.2623 41.6305 43.2612L5.07343 43.2612C4.66615 43.2608 4.3237 42.9539 4.27902 42.5488L3.11504 32.0595L15.202 32.0595C15.6441 32.0595 16.0023 31.7013 16.0023 31.2596C16.0023 30.8175 15.6441 30.4593 15.202 30.4593L2.93741 30.4593L1.69396 19.258L39.8604 19.258Z" fill="black"/>
<path d="M21.6031 35.2599C23.8124 35.2599 25.6034 33.4689 25.6034 31.2596C25.6034 29.05 23.8124 27.259 21.6031 27.259C19.3934 27.259 17.6024 29.05 17.6024 31.2596C17.605 33.4678 19.3945 35.2573 21.6031 35.2599ZM21.6031 28.8592C22.9286 28.8592 24.0032 29.9338 24.0032 31.2596C24.0032 32.5851 22.9286 33.6597 21.6031 33.6597C20.2772 33.6597 19.2026 32.5851 19.2026 31.2596C19.2026 29.9338 20.2772 28.8592 21.6031 28.8592Z" fill="black"/>
<path d="M36.805 16.0576C38.1305 16.0576 39.2051 14.9827 39.2051 13.6572C39.2051 12.3317 38.1305 11.2567 36.805 11.2567C35.4792 11.2567 34.4046 12.3317 34.4046 13.6572C34.4046 14.9827 35.4792 16.0576 36.805 16.0576ZM36.805 12.8569C37.2467 12.8569 37.6049 13.2151 37.6049 13.6572C37.6049 14.0989 37.2467 14.4571 36.805 14.4571C36.363 14.4571 36.0048 14.0989 36.0048 13.6572C36.0048 13.2151 36.363 12.8569 36.805 12.8569Z" fill="black"/>
<path d="M12.7033 8.29077C12.3909 7.97835 11.8844 7.97835 11.572 8.29077L5.17122 14.6919C4.96319 14.8926 4.87968 15.19 4.95293 15.4698C5.02619 15.7496 5.24448 15.9679 5.5243 16.0412C5.80412 16.1144 6.10152 16.0309 6.3026 15.8229L12.7033 9.42215C13.0158 9.10973 13.0158 8.60319 12.7033 8.29077Z" fill="black"/>
<path d="M15.1038 10.6912C14.7914 10.3788 14.2848 10.3788 13.9724 10.6912L9.97178 14.6919C9.76374 14.8926 9.68023 15.19 9.75349 15.4698C9.82674 15.7496 10.0454 15.9679 10.3249 16.0412C10.6047 16.1144 10.9021 16.0309 11.1032 15.8229L15.1038 11.8226C15.4159 11.5102 15.4159 11.0036 15.1038 10.6912Z" fill="black"/>
</g>
<defs>
<clipPath id="clip0_149_435">
<rect width="48" height="48" fill="white"/>
</clipPath>
</defs>
</svg>
