<svg width="48" height="48" viewBox="0 0 48 48" fill="none" xmlns="http://www.w3.org/2000/svg">
<g clip-path="url(#clip0_152_91)">
<path d="M7.59007 14.5542L12.5613 9.58299L38.4116 35.4333L33.4404 40.4045L7.59007 14.5542Z" fill="#8C98A7"/>
<path d="M9.57884 12.5658L14.5501 7.59458L40.4004 33.4449L35.4291 38.4161L9.57884 12.5658Z" fill="#A6B0BD"/>
<path d="M10.573 13.5601L13.5557 10.5774L37.4174 34.4391L34.4348 37.4218L10.573 13.5601Z" fill="#C0C8D2"/>
<path d="M42.4982 46.4749L36.8718 40.8486L40.8493 36.8711L46.4757 42.4974C47.9738 39.3611 47.4246 35.4912 44.8269 32.8934C41.5318 29.5983 36.1893 29.5983 32.8942 32.8934C29.5991 36.1886 29.5991 41.531 32.8942 44.8261C35.4919 47.4238 39.3618 47.973 42.4982 46.4749Z" fill="#A6B0BD"/>
<path d="M5.82557 12.4541L1.52506 5.50183C0.0269921 8.63822 0.576193 12.5081 3.17388 15.1058C6.46899 18.4009 11.8115 18.4009 15.1066 15.1058L5.82557 12.4541Z" fill="#8C98A7"/>
<path d="M5.16265 13.1171C8.45776 16.4122 12.9098 17.3027 15.1066 15.1059C18.4017 11.8108 18.4017 6.46831 15.1066 3.1732C12.5089 0.575421 8.63898 0.0263141 5.50269 1.52438L11.129 7.15073L7.15142 11.1284L1.52507 5.50191C1.18559 7.47962 2.56497 10.5193 5.16265 13.1171Z" fill="#A6B0BD"/>
<path d="M46.474 4.50915L44.4852 2.52039L31.7239 16.2762L42.4965 12.4643L46.4741 8.48678C47.5724 7.38837 47.5724 5.60755 46.474 4.50915Z" fill="#E56B6F"/>
<path d="M46.474 4.50915L44.4852 2.52039L31.7239 16.2762L42.4965 12.4643L46.4741 8.48678C47.5724 7.38837 47.5724 5.60755 46.474 4.50915Z" fill="black" fill-opacity="0.2"/>
<path d="M44.4852 2.52034L43.4908 1.52591C42.3924 0.427513 40.6116 0.427607 39.5132 1.52591L35.5356 5.50354L33.2155 17.7677L44.4852 6.49797C45.5836 5.39957 45.5836 3.61874 44.4852 2.52034Z" fill="#E56B6F"/>
<path d="M29.5693 13.4587L39.5133 15.4474L42.4965 12.4642L40.5077 10.4755L29.5693 13.4587Z" fill="#FFEAC3"/>
<path d="M40.5077 10.4755L35.5357 5.50354L32.5525 8.48674L33.5469 17.4362L40.5077 10.4755Z" fill="white"/>
<path d="M6.08582 41.9142L1.11386 46.8861C1.54812 47.3204 2.1952 47.4098 2.7188 47.1574L5.8431 45.6491L6.08582 41.9142Z" fill="#233952"/>
<path d="M2.35101 42.157L0.842633 45.2812C0.590158 45.8047 0.679504 46.4519 1.11376 46.8861L6.23076 43.385L2.35101 42.157Z" fill="black"/>
<path d="M12.5498 42.411L10.9542 38.1646L4.65639 44.4623L5.84301 45.649L12.5498 42.411Z" fill="#FFF7F6"/>
<path d="M5.58903 35.4502L2.35101 42.157L4.65638 44.4624L12.135 39.3454L5.58903 35.4502Z" fill="#FFF7F6"/>
<path d="M10.561 40.4223L12.5498 42.411L39.5133 15.4475L37.5245 13.4587L20.0655 22.9626L10.561 40.4223Z" fill="#EE916D"/>
<path d="M7.5778 37.439L22.5511 25.4488L34.5413 10.4755L32.5525 8.48669L5.58904 35.4501L7.5778 37.439Z" fill="#FED21C"/>
<path d="M7.57501 37.4369L34.5344 10.4775L37.5171 13.4602L10.5577 40.4196L7.57501 37.4369Z" fill="#FED21C"/>
<path d="M7.57501 37.4369L34.5344 10.4775L37.5171 13.4602L10.5577 40.4196L7.57501 37.4369Z" fill="#505050" fill-opacity="0.2"/>
<path d="M37.7452 29.7892L31.9556 23.9996L46.9713 8.984C48.342 7.61315 48.342 5.38279 46.9713 4.01194L43.9882 1.02884C42.6172 -0.342004 40.387 -0.341816 39.0161 1.02884L24.0004 16.0444L18.2108 10.2548C18.5506 7.47187 17.5903 4.66258 15.6038 2.67579C12.8693 -0.0586844 8.68792 -0.776545 5.19959 0.889901C4.99361 0.98834 4.8482 1.18053 4.80958 1.40554C4.77095 1.63045 4.84398 1.86024 5.00543 2.02158L10.1346 7.15067L7.15141 10.1339L2.02223 5.00459C1.86088 4.84324 1.63119 4.77002 1.40618 4.80884C1.18127 4.84737 0.988987 4.99278 0.890548 5.19875C-0.77571 8.68727 -0.0579435 12.8683 2.67671 15.6029C4.66314 17.5895 7.47205 18.5499 10.2556 18.21L16.0452 23.9996L5.09187 34.953C5.03608 35.0088 4.99014 35.0735 4.95583 35.1445L0.209344 44.9758C-0.179915 45.7829 -0.0162236 46.7505 0.616604 47.3833C1.02039 47.7872 1.56041 48 2.1082 48C2.4189 48 2.73222 47.9316 3.02444 47.7906L12.8555 43.0442C12.9265 43.01 12.9912 42.964 13.0469 42.9082L25.9892 29.966L31.0934 35.0702C31.2261 35.2028 31.4053 35.2761 31.5906 35.2761C31.62 35.2761 31.6494 35.2742 31.679 35.2704C31.8946 35.2432 32.0855 35.1176 32.1961 34.9305C32.526 34.3719 32.9282 33.8538 33.3915 33.3905C33.8547 32.9273 34.3728 32.5251 34.9314 32.1952C35.1185 32.0845 35.2441 31.8937 35.2714 31.678C35.2986 31.4623 35.2247 31.2462 35.071 31.0925L29.9669 25.9883L30.9612 24.994L36.9991 31.032C37.1591 31.1918 37.3859 31.2652 37.6095 31.2288C40.0634 30.8288 42.576 31.6369 44.3298 33.3908C46.4007 35.4616 47.1047 38.5128 46.2193 41.2467L41.3466 36.3738C41.2147 36.242 41.0359 36.1679 40.8493 36.1679C40.6628 36.1679 40.4841 36.242 40.3521 36.3738L36.3744 40.3514C36.0998 40.6261 36.0998 41.0713 36.3744 41.3459L41.2472 46.2186C38.5136 47.1039 35.4621 46.3999 33.3913 44.329C31.6376 42.5753 30.8295 40.0631 31.2295 37.6088C31.2659 37.3855 31.1927 37.1583 31.0327 36.9984L26.4863 32.452C26.2116 32.1775 25.7665 32.1775 25.4919 32.452C25.2173 32.7267 25.2173 33.1718 25.4919 33.4464L29.79 37.7445C29.4503 40.5275 30.4104 43.3368 32.397 45.3233C34.1489 47.0752 36.494 47.9994 38.8708 47.9993C40.2041 47.9993 41.5476 47.7084 42.8013 47.1096C43.0072 47.0112 43.1526 46.8189 43.1912 46.594C43.2298 46.369 43.1568 46.1392 42.9954 45.9779L37.8661 40.8487L40.8493 37.8655L45.9784 42.9948C46.1399 43.156 46.3696 43.2296 46.5945 43.1905C46.8195 43.152 47.0117 43.0066 47.1101 42.8006C48.7765 39.3122 48.0587 35.131 45.3241 32.3964C43.3375 30.4097 40.5285 29.4494 37.7452 29.7892ZM12.5499 41.4165L11.5554 40.4221L37.5245 14.4531L38.5188 15.4475L12.5499 41.4165ZM32.5525 9.48126L33.5468 10.4755L7.5778 36.4446L6.58346 35.4503L32.5525 9.48126ZM19.0285 21.0163L14.5333 16.5212C14.9118 16.2439 15.27 15.9368 15.6038 15.603C15.9377 15.2691 16.2447 14.911 16.522 14.5324L21.0172 19.0276L19.0285 21.0163ZM33.547 8.48674L35.5357 6.49797L41.502 12.4643L39.5133 14.453L33.547 8.48674ZM34.5413 11.4699L36.5301 13.4587L10.561 39.4278L8.57223 37.439L34.5413 11.4699ZM40.0105 2.02327C40.8328 1.20078 42.1713 1.20078 42.9936 2.02327L45.9767 5.00637C46.7992 5.82877 46.7992 7.16708 45.9767 7.98947L42.4965 11.4697L36.5302 5.50345L40.0105 2.02327ZM11.0017 16.9672C10.8418 16.8073 10.6149 16.7343 10.3914 16.7704C7.93668 17.1701 5.42478 16.3622 3.67105 14.6085C1.60025 12.5378 0.896266 9.4866 1.78157 6.75279L6.65424 11.6256C6.78606 11.7574 6.96494 11.8314 7.15141 11.8314C7.33789 11.8314 7.51677 11.7574 7.64858 11.6256L11.6262 7.64793C11.7581 7.51603 11.8322 7.33724 11.8322 7.15067C11.8322 6.96411 11.7581 6.78542 11.6262 6.65341L6.75353 1.78083C9.48744 0.895713 12.5386 1.5996 14.6094 3.67022C16.3631 5.42404 17.1713 7.93632 16.7712 10.3907C16.7349 10.6139 16.8081 10.841 16.968 11.001L23.0059 17.0389L22.0116 18.0332L16.9075 12.9291C16.7538 12.7754 16.5376 12.7015 16.322 12.7287C16.1063 12.756 15.9155 12.8816 15.8048 13.0687C15.4749 13.6273 15.0727 14.1452 14.6094 14.6087C14.1462 15.0719 13.6281 15.4741 13.0695 15.804C12.8824 15.9146 12.7569 16.1055 12.7296 16.3211C12.7022 16.5369 12.7763 16.753 12.9299 16.9067L18.0341 22.0109L17.0396 23.0053L11.0017 16.9672ZM5.79182 36.6475L11.3525 42.2082L5.98701 44.7986L3.20135 42.0129L5.79182 36.6475ZM2.41327 46.524C2.14411 46.6539 1.82151 46.5995 1.61103 46.389C1.40037 46.1784 1.34609 45.856 1.47584 45.587L2.55381 43.3543L4.6457 45.4462L2.41327 46.524ZM33.4676 31.478C33.089 31.7553 32.7309 32.0623 32.3971 32.3962C32.0632 32.73 31.7561 33.0881 31.4788 33.4667L26.9837 28.9715L28.9723 26.9828L33.4676 31.478Z" fill="black"/>
</g>
<defs>
<clipPath id="clip0_152_91">
<rect width="48" height="48" fill="white"/>
</clipPath>
</defs>
</svg>
